<?xml version="1.0" encoding="UTF-8" standalone="no"?>
<svg version="1.0" width="501.65485" height="630.3382" viewBox="0 0 501.65485 630.3382" preserveAspectRatio="xMidYMid" id="svg108" sodipodi:docname="DALL·E 2023-10-31 12.47.33 - Vector logo illustration with a con(2).svg" inkscape:version="1.3 (0e150ed6c4, 2023-07-21)"
    xmlns:inkscape="http://www.inkscape.org/namespaces/inkscape"
    xmlns:sodipodi="http://sodipodi.sourceforge.net/DTD/sodipodi-0.dtd"
    xmlns="http://www.w3.org/2000/svg"
    xmlns:svg="http://www.w3.org/2000/svg">
    <defs id="defs108" />
    <sodipodi:namedview id="namedview108" pagecolor="#ffffff" bordercolor="#666666" borderopacity="1.0" inkscape:showpageshadow="2" inkscape:pageopacity="0.0" inkscape:pagecheckerboard="0" inkscape:deskcolor="#d1d1d1" inkscape:zoom="0.8359375" inkscape:cx="96.299065" inkscape:cy="311.02804" inkscape:window-width="1920" inkscape:window-height="1052" inkscape:window-x="-8" inkscape:window-y="-8" inkscape:window-maximized="1" inkscape:current-layer="svg108" />
    <path style="fill:#cfcce6;fill-opacity:1;stroke:none;stroke-width:1px;stroke-linecap:butt;stroke-linejoin:miter;stroke-opacity:1" d="M 72.072087,527.54432 C 129.49265,351.69385 371.13751,222.49759 371.13751,222.49759 l 88.52337,83.73832 -26.31776,227.28972 -223.70093,71.77569 z" id="path109" sodipodi:nodetypes="cccccc" />
    <g fill="#423b78" id="g61" transform="translate(-271.255,-204.56783)">
        <path d="m 502,788.95 c -22.3,-2.4 -39.25,-6.7 -59.2,-15.05 -6.75,-2.8 -18.05,-8.35 -21.05,-10.35 -1.1,-0.75 -2.85,-1.7 -3.9,-2.2 -9.85,-4.45 -35,-24.35 -44.85,-35.4 -15.15,-17 -26.35,-32.9 -33.1,-46.95 -4.1,-8.6 -9.7,-21.45 -11.15,-25.75 -0.75,-2.2 -1.7,-4.8 -2.1,-5.75 -0.45,-0.95 -0.9,-2.7 -1.05,-3.85 -0.2,-1.75 -0.1,-2.15 0.6,-2.15 0.45,0 0.8,0.3 0.8,0.7 0,0.4 0.35,0.85 0.8,1 0.4,0.15 0.65,0.5 0.45,0.8 -0.15,0.25 0.2,0.95 0.75,1.5 0.55,0.55 0.9,1.25 0.75,1.5 -0.2,0.3 -0.05,0.5 0.2,0.5 0.3,0 0.55,0.55 0.55,1.25 0,0.7 0.2,1.25 0.4,1.25 0.2,0 0.45,0.6 0.5,1.35 0.05,0.75 0.65,1.9 1.3,2.65 1.1,1.15 3.85,6.1 3.8,6.75 -0.2,1.55 14.5,24.1 20.05,30.75 8.2,9.85 10.35,12.15 18.8,20.1 13.25,12.45 17.25,15.55 29.15,22.5 8.25,4.8 25,12.85 28.5,13.65 1.2,0.25 5.15,1.75 6.5,2.5 3.05,1.6 26.3,8.15 26.9,7.55 0.15,-0.15 0.5,-0.1 0.8,0.15 0.9,0.7 14.75,2.95 23.55,3.8 6.65,0.7 26.75,0.35 32.55,-0.5 12.4,-1.85 26.1,-5.65 38.1,-10.55 5.5,-2.25 19.3,-9.2 24.6,-12.35 9.05,-5.4 27,-18.25 27,-19.35 0,-0.3 0.3,-0.5 0.65,-0.5 0.8,0 14.2,-12.35 19.95,-18.45 10.6,-11.15 24.6,-30.6 32.45,-45.05 15.1,-27.9 21.25,-47.05 25.7,-80 3.35,-24.65 -0.2,-54.45 -9.5,-80.25 -4.55,-12.55 -13.85,-29.95 -21.8,-40.5 -4.65,-6.25 -15.5,-18.75 -16,-18.5 -0.25,0.2 -0.45,0.75 -0.45,1.3 0,1.25 -4.1,12.65 -6.2,17.2 -1.8,3.85 -6.45,12 -7.7,13.4 -0.7,0.8 -0.7,0.95 0.2,1.55 0.5,0.4 0.8,0.85 0.6,1.05 -0.2,0.2 -3.3,0.1 -6.95,-0.2 -13.6,-1.15 -17.85,-0.6 -22.6,2.75 -5.6,4 -5.15,11.95 0.9,14.8 3.25,1.55 3.45,1.7 3.65,2.3 0.1,0.35 -0.3,0.6 -0.9,0.6 -0.6,0 -0.9,0.2 -0.75,0.5 0.3,0.45 -9.1,9.85 -15,15.1 -2.7,2.4 -9.6,6.85 -11.2,7.25 -0.7,0.15 -1.65,0.6 -2.1,1 -1.15,0.95 -10.3,4.15 -12,4.15 -0.75,0 -1.45,0.2 -1.55,0.45 -0.2,0.7 -5.95,1.55 -10.2,1.55 -7.05,0 -17.75,-2.65 -23.9,-5.95 -1.6,-0.85 -3.45,-1.55 -4.1,-1.55 -0.85,0 -1.2,-0.3 -1.2,-1 0,-0.8 0.35,-1 1.7,-1 3.95,0 10.5,-3.25 14.4,-7.2 4.85,-4.85 7.85,-12.25 7.95,-19.55 0,-1.9 0.15,-4.4 0.35,-5.45 l 0.35,-2 7.25,-2.1 c 11.9,-3.5 22.85,-8.75 31.2,-15.05 2.4,-1.8 7.55,-6.35 11.5,-10.2 6.45,-6.25 8.75,-8.95 15.35,-17.95 3.65,-5 13.45,-25.9 13.45,-28.7 0,-0.5 0.45,-0.8 1.05,-0.8 0.95,0 1,0.2 0.75,1.7 -0.3,1.55 -0.15,1.75 1.8,3.1 10.8,7.35 15.2,10.6 23.65,17.7 0.85,0.65 5,4.65 9.25,8.8 4.25,4.15 8.15,7.7 8.65,7.85 0.55,0.2 0.8,0.15 0.6,-0.2 -0.55,-0.85 0.25,-3.95 1,-3.95 0.5,0 0.7,1.2 0.85,5.15 l 0.15,5.15 5.5,7 c 9.15,11.6 20,28.2 25.2,38.55 6.65,13.25 10.95,24.55 15.3,40.4 2.65,9.6 2.8,10.35 4.45,20 3.05,17.8 2.95,45.1 -0.25,64 -6.4,38.1 -19.65,67.3 -44.6,98.5 -11.8,14.7 -32.2,32.4 -50.75,43.95 -20.1,12.55 -45.8,22.55 -68.35,26.55 -14.25,2.55 -18,2.85 -36.5,3 -9.9,0.1 -19.9,-0.05 -22.25,-0.3 z" id="path58" />
        <path d="m 318.5,560.9 c 0,-0.9 0.15,-2.85 0.3,-4.25 0.3,-2.2 0.5,-2.65 1.35,-2.65 0.9,0 0.95,0.25 0.65,2.9 -0.55,4.55 -0.85,5.6 -1.6,5.6 -0.45,0 -0.7,-0.55 -0.7,-1.6 z" id="path59" />
        <path d="m 321.5,544.4 c 0,-2.2 1.55,-8.4 2.05,-8.4 0.25,0 0.45,-0.75 0.45,-1.7 0,-2.25 1.9,-8.75 5.3,-18.4 2.3,-6.4 3,-7.9 3.75,-7.9 1.3,0 1.2,1.4 -0.25,4.9 -1.3,3.2 -4.35,12.15 -5.25,15.6 -1,3.7 -1.6,5.7 -2,6.75 -0.25,0.55 -0.8,2.7 -1.3,4.75 -1,4.5 -1.55,6 -2.25,6 -0.25,0 -0.5,-0.75 -0.5,-1.6 z" id="path60" />
        <path d="m 334,505.1 c 0,-1.75 0.15,-2.1 1,-2.1 0.65,0 1,0.35 1,1 0,0.6 -0.45,1.5 -1,2.1 l -1,1.1 z" id="path61" />
    </g>
    <g fill="#423b78" id="g65" transform="translate(-271.255,-204.56783)">
        <path d="m 530.5,788.75 c 0,-0.4 0.3,-0.75 0.7,-0.75 0.4,0 0.8,-0.25 0.9,-0.6 0.15,-0.45 0.6,-0.45 1.85,0 0.9,0.35 1.85,0.45 2.1,0.3 0.25,-0.15 0.45,0.2 0.45,0.75 0,0.95 -0.3,1.05 -3,1.05 -2.35,0 -3,-0.15 -3,-0.75 z" id="path62" />
        <path d="m 327,522.75 c 0,-1.5 0.15,-1.75 1.2,-1.75 1.15,0 1.2,0.1 0.65,1.75 -0.3,0.95 -0.8,1.75 -1.2,1.75 -0.4,0 -0.65,-0.65 -0.65,-1.75 z" id="path63" />
        <path d="m 546.5,490.4 c 0,-2.4 0.65,-4.9 1.25,-4.9 0.95,0 1.2,1.7 0.65,4 -0.55,2.15 -1.9,2.75 -1.9,0.9 z" id="path64" />
        <path d="m 557,351.2 c 0,-0.35 0.5,-0.7 1.15,-0.9 1.1,-0.25 1.15,-0.45 0.95,-3.4 -0.2,-3.15 -2,-7.4 -3.15,-7.4 -0.3,0 -0.35,-0.2 -0.2,-0.5 0.15,-0.25 -0.15,-0.5 -0.7,-0.5 -0.7,0 -1.05,-0.3 -1.05,-1 0,-1 0.35,-1 27.4,-1 30.55,0 29.5,-0.1 32.95,3.55 3.3,3.5 5.85,10.55 4.05,11.2 -0.35,0.1 -14.3,0.3 -31.05,0.35 -22.5,0.1 -30.35,0 -30.35,-0.4 z" id="path65" />
    </g>
    <g fill="#423b78" id="g66" transform="translate(-271.255,-204.56783)">
        <path d="m 490.75,451.65 c -4,-1.05 -14.9,-5.95 -17.5,-7.9 -0.8,-0.6 -2.65,-1.75 -4.1,-2.55 -4,-2.2 -11.65,-8.35 -16.1,-12.95 -3.4,-3.5 -4.05,-4.45 -4.05,-5.8 v -1.65 l 1.35,1.3 c 2,1.85 3.3,2.4 5.6,2.4 2.65,0 3.45,-0.35 4.3,-2.05 0.95,-1.8 0.95,-3.5 0.05,-5.7 -0.75,-1.75 -0.75,-1.75 0.6,-1.75 1.15,0 1.9,0.8 4.95,5.4 7.4,10.95 14.55,17.75 27.05,25.65 2.55,1.6 2.65,1.7 2.5,3.65 -0.15,1.95 -0.25,2.05 -1.9,2.15 -0.95,0 -2.2,-0.05 -2.75,-0.2 z" id="path66" />
    </g>
    <g fill="#1c1933" id="g95" transform="translate(-271.255,-204.56783)">
        <path d="m 492.9,833.15 c -0.5,-0.1 -0.9,-0.5 -0.9,-0.9 0,-0.8 1.1,-1.25 3.05,-1.25 1.2,0 1.45,0.2 1.45,1.25 0,1.05 -0.25,1.25 -1.35,1.2 -0.8,-0.05 -1.8,-0.15 -2.25,-0.3 z" id="path67" />
        <path d="m 483.9,832.15 c -0.5,-0.1 -0.9,-0.5 -0.9,-0.9 0,-0.75 1.55,-1.25 3.9,-1.25 1.4,0 1.6,0.15 1.6,1.25 0,1.1 -0.2,1.25 -1.85,1.2 -1.05,-0.05 -2.3,-0.15 -2.75,-0.3 z" id="path68" />
        <path d="m 579.5,827.05 c 0,-0.6 0.3,-1.05 0.75,-1.05 0.45,0 0.9,-0.35 1.05,-0.75 0.25,-0.55 1.1,-0.75 3.5,-0.75 5.6,0 3.45,1.85 -3.8,3.3 -1.3,0.3 -1.5,0.2 -1.5,-0.75 z" id="path69" />
        <path d="m 601,820.95 c 0,-0.65 0.2,-1.45 0.4,-1.75 0.5,-0.7 3.4,-1.7 5.15,-1.7 1.9,0 2.95,-0.45 2.95,-1.3 0,-0.4 0.5,-0.7 1.25,-0.7 0.7,0 1.25,-0.25 1.25,-0.55 0,-0.3 0.95,-0.45 2.4,-0.35 4.75,0.3 2,2.2 -8.2,5.65 -1.95,0.7 -3.95,1.35 -4.4,1.55 -0.6,0.25 -0.8,0 -0.8,-0.85 z" id="path70" />
        <path d="m 348.4,765.3 c -2.15,-2.05 -3.9,-3.95 -3.9,-4.25 0,-0.3 0.7,-0.55 1.6,-0.55 2.25,0 6.4,4.45 6.4,6.85 0,0.9 -0.05,1.65 -0.1,1.65 -0.1,0 -1.9,-1.65 -4,-3.7 z" id="path71" />
        <path d="m 474,679.45 c 0,-0.35 0.25,-2 0.6,-3.75 0.45,-2.55 0.75,-3.2 1.5,-3.2 0.7,0 0.9,0.4 0.9,1.75 0,2.75 -1.1,5.75 -2.1,5.75 -0.5,0 -0.9,-0.25 -0.9,-0.55 z" id="path72" />
        <path d="m 432.5,608.05 c 0,-0.7 0.3,-1.05 0.95,-1.05 0.55,0 1.05,-0.25 1.15,-0.5 0.1,-0.3 1.65,-0.65 3.55,-0.85 3.15,-0.3 3.35,-0.25 3.35,0.75 0,1.2 -1.7,1.85 -6.1,2.4 -2.7,0.3 -2.9,0.25 -2.9,-0.75 z" id="path73" />
        <path d="m 613.75,529.25 c -1.1,-0.35 -2.85,-0.8 -3.85,-1 -1.95,-0.3 -2.55,-1.4 -1.1,-1.95 1.25,-0.5 3.7,-0.35 3.7,0.2 0,0.3 0.9,0.5 2,0.5 1.9,0 2,0.1 2,1.5 0,1.7 0,1.7 -2.75,0.75 z" id="path74" />
        <path d="m 518.75,512.75 c -0.25,-0.05 -1.45,-0.4 -2.6,-0.75 -3.15,-0.95 -2.8,-2 0.6,-2 2.7,0 2.75,0 2.75,1.5 0,0.85 -0.05,1.5 -0.1,1.45 -0.1,0 -0.35,-0.1 -0.65,-0.2 z" id="path75" />
        <path d="m 653.05,507.95 c -2.55,-0.5 -4.55,-1.7 -4.55,-2.7 0,-0.6 0.85,-0.7 4.65,-0.6 4.75,0.1 5.75,-0.25 9.2,-3.15 0.7,-0.6 4.15,-0.7 4.15,-0.1 0,0.7 -1.8,3.05 -3.1,4.1 -2.85,2.2 -6.75,3.15 -10.35,2.45 z" id="path76" />
        <path d="m 418,490.65 c 0,-0.7 0.3,-1.15 0.75,-1.15 0.4,0 0.75,-0.2 0.75,-0.5 0,-0.25 1.05,-0.5 2.3,-0.5 2.05,0 2.25,0.1 2.1,1.1 -0.1,0.9 -0.65,1.2 -3,1.65 -2.85,0.55 -2.9,0.55 -2.9,-0.6 z" id="path77" />
        <path d="m 441.5,488.7 c 0,-1.7 0,-1.7 2.25,-1.7 1.85,0 2.25,0.15 2.25,0.95 0,0.95 -0.5,1.3 -3.1,2.05 -1.35,0.4 -1.4,0.35 -1.4,-1.3 z" id="path78" />
        <path d="m 603.15,490.15 c -0.35,-0.1 -0.65,-0.65 -0.65,-1.2 0,-0.75 0.35,-0.95 1.75,-0.95 1.55,0 1.75,0.15 1.75,1.25 0,0.95 -0.25,1.25 -1.1,1.2 -0.65,0 -1.45,-0.15 -1.75,-0.3 z" id="path79" />
        <path d="m 553.5,475.6 c 0,-1.65 0.85,-2.1 4.15,-2.1 1.45,0 1.85,0.2 1.85,0.9 0,0.7 -0.6,1.1 -2.1,1.55 -1.2,0.35 -2.55,0.75 -3,0.85 -0.7,0.2 -0.9,-0.05 -0.9,-1.2 z" id="path80" />
        <path d="m 562,472.75 c 0,-1.75 0,-1.75 2.25,-1.75 1.85,0 2.25,0.15 2.25,0.95 0,0.65 -0.65,1.2 -2,1.75 -1.1,0.45 -2.15,0.8 -2.25,0.8 -0.15,0 -0.25,-0.8 -0.25,-1.75 z" id="path81" />
        <path d="m 481,473.15 c -3.85,-1.35 -6.5,-2.9 -6.5,-3.7 0,-0.75 0.4,-0.95 2,-0.95 1.3,0 2.15,0.25 2.3,0.7 0.15,0.4 0.95,1 1.75,1.3 1,0.45 1.45,0.95 1.45,1.8 0,0.65 -0.05,1.2 -0.1,1.15 -0.1,0 -0.5,-0.15 -0.9,-0.3 z" id="path82" />
        <path d="m 575.5,467.25 c 0,-0.8 0.3,-1.25 0.75,-1.25 0.4,0 0.75,-0.45 0.75,-0.95 0,-1.55 3.95,-3.55 6.95,-3.55 3.85,0 3.8,0.1 -3.7,4.6 -2.2,1.3 -4.15,2.4 -4.35,2.4 -0.25,0 -0.4,-0.55 -0.4,-1.25 z" id="path83" />
        <path d="m 465.6,465.8 c -1.45,-0.85 -2.55,-1.75 -2.45,-2.05 0.1,-0.25 1.1,-0.55 2.25,-0.65 1.65,-0.15 2.15,0.05 2.6,0.9 0.3,0.6 0.5,1.55 0.4,2.2 l -0.15,1.1 z" id="path84" />
        <path d="m 455.9,459.35 c -1.6,-1.15 -2.9,-2.25 -2.9,-2.45 0,-0.25 1,-0.4 2.25,-0.4 1.35,0 2.25,0.25 2.25,0.55 0,0.35 0.35,0.85 0.8,1.15 0.45,0.35 0.7,1.15 0.6,1.95 l -0.15,1.3 z" id="path85" />
        <path d="m 496.1,453.2 c -1.45,-0.35 -3.1,-0.95 -3.6,-1.2 -0.55,-0.3 -2.45,-1 -4.25,-1.55 -1.8,-0.55 -3.25,-1.2 -3.25,-1.45 0,-0.3 -0.4,-0.5 -0.95,-0.5 -1.85,0 -4.05,-1.1 -4.05,-2 0,-0.65 0.35,-0.9 1,-0.85 0.55,0.05 1,0.3 1,0.55 0,0.25 0.15,0.3 0.35,0.15 0.15,-0.2 0.6,-0.1 1,0.2 0.35,0.3 0.65,0.4 0.65,0.15 0,-0.25 0.2,-0.15 0.45,0.2 0.2,0.35 0.9,0.7 1.45,0.75 0.6,0.05 1.1,0.25 1.1,0.5 0,0.2 0.2,0.3 0.45,0.1 0.25,-0.15 0.6,-0.05 0.8,0.25 0.2,0.3 0.55,0.4 0.8,0.25 0.25,-0.2 0.45,-0.05 0.45,0.25 0,0.35 0.35,0.5 0.75,0.3 0.4,-0.15 0.75,0 0.75,0.25 0,0.3 0.45,0.45 1,0.3 0.55,-0.15 1,-0.05 1,0.25 0,0.25 0.25,0.3 0.5,0.15 0.9,-0.55 0.5,-1.05 -2.1,-2.75 -5.9,-3.7 -8.9,-5.75 -8.9,-6.1 0,-0.25 0.8,-0.4 1.75,-0.4 0.95,0 1.75,0.2 1.75,0.4 0,0.2 0.7,0.65 1.5,0.95 0.85,0.3 1.5,0.9 1.5,1.35 0,0.45 0.4,0.8 1,0.8 0.55,0 2.35,0.7 4,1.5 1.65,0.85 4.3,2 5.85,2.55 3.75,1.4 4.15,1.75 4.15,3.75 v 1.7 l -2.6,-0.05 c -1.45,0 -3.85,-0.35 -5.3,-0.75 z" id="path86" />
        <path d="m 473,443.55 c 0,-0.25 -0.55,-0.6 -1.25,-0.75 -0.7,-0.2 -1.25,-0.55 -1.25,-0.8 0,-0.3 -0.35,-0.5 -0.75,-0.5 -0.45,0 -0.75,-0.45 -0.75,-1.25 0,-1.45 0.55,-1.35 4.3,1.05 3.4,2.15 3.7,2.7 1.5,2.7 -1,0 -1.8,-0.2 -1.8,-0.45 z" id="path87" />
        <path d="m 479.4,439 -1.65,-1.45 1.9,-0.05 c 1.75,0 1.85,0.1 1.85,1.5 0,0.85 -0.1,1.5 -0.25,1.5 -0.15,0 -0.95,-0.65 -1.85,-1.5 z" id="path88" />
        <path d="m 433.75,437.15 c -0.55,-0.75 -1.4,-2 -1.85,-2.75 L 431,433 h 1.65 c 1.8,0 2.85,1.55 2.85,4.1 0,1.75 -0.45,1.75 -1.75,0.05 z" id="path89" />
        <path d="m 461.8,436.45 c -0.7,-0.55 -1.3,-1.35 -1.3,-1.75 0,-0.4 -0.45,-0.7 -1,-0.7 -0.8,0 -1,-0.35 -1,-1.55 v -1.5 l 2.15,1.55 c 1.15,0.8 3,2.3 4.1,3.25 l 2,1.7 -1.8,0.05 c -1.1,0 -2.35,-0.4 -3.15,-1.05 z" id="path90" />
        <path d="m 512.9,428.85 c -3.7,-1.4 -8,-5.45 -9.6,-9 -1.65,-3.6 -2.1,-10.05 -1.05,-14.1 1.2,-4.5 4.65,-9.1 8.55,-11.4 2.05,-1.2 5.9,-1.85 10.95,-1.85 5.1,0 5.7,0.1 8.25,1.45 4.25,2.25 6.45,4.45 8.3,8.3 1.6,3.25 1.7,3.8 1.7,8.5 0,5.9 -0.5,8.05 -2.75,11.75 -1.9,3.1 -5.3,5.6 -9.15,6.75 -3.75,1.15 -11.7,0.95 -15.2,-0.4 z" id="path91" />
        <path d="m 450.5,425.25 c 0,-0.9 -0.25,-1.25 -1,-1.25 -0.8,0 -1,-0.35 -1,-1.85 v -1.9 l 1.75,1.9 c 0.9,1 2.1,1.85 2.6,1.9 0.55,0 0.65,0.1 0.25,0.3 -0.5,0.2 -0.45,0.45 0.2,1.2 0.8,0.9 0.8,0.95 -0.95,0.95 -1.65,0 -1.85,-0.15 -1.85,-1.25 z" id="path92" />
        <path d="m 552.4,338.15 c -1.65,-0.2 -1.9,-0.4 -1.9,-1.45 0,-1.1 0.2,-1.2 2.5,-1.2 1.4,0 2.5,0.25 2.5,0.5 0,0.3 0.35,0.5 0.75,0.5 1.2,0 0.9,1.35 -0.35,1.7 -0.65,0.15 -1.25,0.25 -1.4,0.2 -0.15,-0.05 -1.1,-0.15 -2.1,-0.25 z" id="path93" />
        <path d="m 430,322.75 c 0,-0.4 0.35,-0.75 0.75,-0.75 0.65,0 0.75,-6.25 0.85,-49.35 0.15,-48.95 0.15,-49.4 1.2,-52.15 2.45,-6.4 6.65,-10.9 12.7,-13.7 3.4,-1.6 4,-1.6 4,-0.15 0,0.95 -0.45,1.35 -2.1,1.9 -1.2,0.35 -2.45,0.95 -2.8,1.3 -0.5,0.5 -0.4,0.7 0.65,0.95 0.7,0.15 1.25,0.6 1.25,1 0,0.4 0.25,0.7 0.5,0.7 0.3,0 0.5,0.35 0.5,0.75 0,0.4 0.35,0.75 0.75,0.75 1,0 2.25,2.6 2.25,4.7 0,1.3 -0.4,2.1 -1.75,3.35 -3.45,3.3 -3.35,1.45 -3.25,50.65 0,24.3 -0.1,45.7 -0.3,47.5 l -0.35,3.3 h -7.4 c -6.3,0 -7.45,-0.1 -7.45,-0.75 z" id="path94" />
        <path d="m 569.65,323.15 c -3.55,-0.2 -4.15,-0.45 -3.15,-1.45 0.3,-0.3 0.55,-18.45 0.6,-49.95 l 0.15,-49.5 1.85,-3.85 c 1.9,-3.95 6.85,-9.75 7.3,-8.5 0.1,0.4 1.25,0.6 3.05,0.6 5.05,0 9.3,3.75 8.95,7.9 -0.1,1.45 -0.5,2.05 -2,3.1 -3.3,2.3 -5.25,5.1 -5.65,8.35 -0.2,1.6 -0.55,23.25 -0.7,48.15 l -0.3,45.25 -3.25,0.05 c -1.8,0 -4.9,-0.05 -6.85,-0.15 z" id="path95" />
    </g>
    <g fill="#1c1933" id="g108" transform="translate(-271.255,-204.56783)">
        <path d="m 505.8,834.25 c -5.7,-0.35 -10.55,-0.85 -10.75,-1.05 -0.15,-0.25 -1.95,-0.45 -4,-0.5 -2.25,0 -3.8,-0.25 -3.95,-0.6 -0.1,-0.3 -0.8,-0.4 -1.8,-0.25 -2.9,0.45 -16.9,-2.55 -32,-6.9 -21.15,-6.1 -38.2,-13.15 -54.75,-22.7 -11.25,-6.45 -32.85,-21.3 -37.65,-25.9 -0.35,-0.35 -2.75,-2.4 -5.25,-4.55 -2.55,-2.15 -4.65,-4.05 -4.65,-4.25 0,-0.15 -1.1,-1.55 -2.5,-3.05 -1.4,-1.5 -2.5,-2.5 -2.5,-2.25 0,0.7 -6.9,-6.2 -11.7,-11.75 -8.85,-10.1 -20.45,-26.25 -27.8,-38.5 -8.65,-14.5 -17.4,-33.7 -23.25,-51.25 -2.25,-6.7 -2.5,-7.45 -5.45,-18.5 -7.7,-28.85 -8.7,-69.95 -2.5,-101.25 4.15,-20.9 11.05,-41.9 19.5,-59 10.1,-20.55 22.5,-38.8 37.55,-55.35 2.65,-2.95 7.35,-6.05 10.55,-6.95 1.5,-0.45 4.55,-0.8 6.8,-0.8 7.85,0 14.55,4.1 18.75,11.35 1.85,3.15 2.55,6.15 2.55,10.75 0,6.4 -0.75,8.6 -5.05,14.45 -16.8,23 -19.45,27.15 -26.45,41.3 -6.7,13.5 -10.7,24.75 -15.5,43.6 -4.15,16.3 -5.3,26.7 -5.2,47.9 0.05,15.25 0.8,22.4 3.7,35.75 0.5,2.35 1.2,5.5 1.5,7 2.65,12.45 8.45,27.85 17.65,47 3.8,7.9 10.05,17.9 16.9,27.05 12.15,16.25 22.5,27 37.2,38.75 8.45,6.75 19.15,14.05 23.6,16.05 1.05,0.5 2.8,1.45 3.9,2.2 3,2 14.3,7.55 21.05,10.35 20.65,8.65 38.45,13.05 60.8,15.15 8.65,0.8 33.15,0.35 41.15,-0.75 39.25,-5.45 70.85,-18.7 100.75,-42.25 10.75,-8.45 24.45,-21.75 31.35,-30.3 24.95,-31.2 38.2,-60.4 44.6,-98.5 3.2,-18.7 3.3,-43.4 0.25,-61 -1.65,-9.65 -1.8,-10.4 -4.45,-20 C 714.4,518.9 710.1,507.6 703.45,494.35 698.25,484 687.4,467.4 678.25,455.8 l -5.5,-7 v -7.8 -7.75 l 1.65,-3.35 c 3,-6.1 8.25,-9.7 16,-11.05 5.8,-0.95 12.3,1.35 18.65,6.7 2.9,2.4 9.25,9.7 16.15,18.45 18,22.8 32.5,52.25 39.95,81 6.6,25.35 8.1,38.3 7.7,64.5 -0.3,17.75 -0.65,22.2 -3.4,38.5 -2.6,15.65 -7.7,33.5 -13.75,48.15 -1.5,3.65 -3.2,7.75 -3.75,9.2 -1.5,3.9 -8.45,17.65 -12.2,24.15 -4.45,7.75 -14,21.7 -19,27.8 -7.65,9.3 -17.6,20.45 -23.3,25.95 -6.2,5.95 -19.6,17.4 -24.7,21 -1.2,0.85 -4.7,3.35 -7.8,5.55 -10.8,7.7 -20.35,13.3 -34.6,20.2 -11.25,5.45 -14.1,6.6 -15.55,6.2 -0.9,-0.2 -1.25,0 -1.5,0.9 -0.25,0.7 -0.45,0.9 -0.65,0.55 -0.3,-0.85 -1.65,-0.85 -1.65,0 0,0.9 -3.35,2.5 -3.6,1.75 -0.25,-0.75 -3.85,0.45 -4.9,1.6 -0.65,0.75 -12.25,4.6 -15.6,5.2 -0.75,0.1 -1.6,0.35 -1.9,0.55 -0.25,0.15 -0.5,0.05 -0.5,-0.2 0,-0.8 -1.05,-0.65 -1.7,0.2 -1.65,2.1 -28.8,6.6 -47.05,7.75 -9.8,0.6 -16.4,0.55 -29.95,-0.25 z" id="path96" />
        <path d="m 519.25,755.2 c -14.95,-2.15 -25.7,-7.9 -34.45,-18.45 -4.55,-5.45 -8.45,-13.4 -9.8,-19.95 -0.95,-4.55 -1.05,-6.25 -0.85,-22.5 0.3,-20.15 0.25,-19.45 0.95,-19 0.35,0.25 0.45,-0.05 0.25,-0.95 -0.45,-1.6 1.65,-8.8 3.85,-13.55 3.1,-6.65 9.6,-14.7 15.3,-18.95 4.25,-3.2 11.15,-6.6 16,-7.85 3,-0.75 6.35,-1.15 11.25,-1.35 6.35,-0.2 7.45,-0.1 11.85,1 16.55,4.3 29.45,16.5 34.55,32.6 2.65,8.35 2.85,10.5 2.85,27.9 0,20.4 -0.75,25.25 -5.15,34.1 -6.6,13.3 -17.1,21.95 -30.85,25.45 -4.6,1.15 -12.7,1.9 -15.75,1.5 z" id="path97" />
        <path d="m 423.05,608.2 c -10.45,-1.95 -20.3,-7.3 -26.5,-14.45 -5.9,-6.75 -9.95,-14.45 -11.65,-21.9 -1.2,-5.45 -1.4,-15.6 -0.45,-19.85 2.85,-12.35 6.6,-19.55 13.6,-26.3 6.65,-6.3 12.3,-9.75 19.8,-12 3.85,-1.2 5.35,-1.35 11.65,-1.4 4.4,-0.05 8.55,0.2 10.5,0.65 12.95,2.7 22.3,9.2 30.45,21.3 3.35,5 6,11.7 7.1,17.95 0.95,5.7 0.35,16.65 -1.25,22.05 -4.25,14.1 -13.2,24.65 -25.95,30.5 -3.85,1.75 -10.35,3.45 -10.35,2.7 0,-0.25 -0.35,-0.45 -0.8,-0.45 -0.45,0 -0.7,0.3 -0.55,0.65 0.15,0.4 -0.05,0.7 -0.45,0.7 -0.4,0 -0.7,-0.2 -0.7,-0.45 0,-0.65 -1.35,-0.45 -1.65,0.25 -0.35,0.9 -8.05,0.95 -12.8,0.05 z m 8.3,-47.45 c 7.55,-3.4 11.6,-13.1 8.65,-20.9 -1.5,-4.05 -5.55,-8.3 -9.6,-10.1 -6,-2.7 -13.1,-1.45 -18.05,3.2 -3.55,3.3 -4.95,6.4 -5.25,11.35 -0.3,5.45 0.65,8.3 4,12 5.35,5.85 13.2,7.6 20.25,4.45 z" id="path98" />
        <path d="m 607.5,608.45 c -11.25,-2 -22.35,-8.35 -28.55,-16.3 -7.05,-9 -10.75,-18.5 -11.3,-29.15 -0.5,-9.8 0.85,-16.45 4.95,-24.75 4.75,-9.55 12.75,-17.1 23.5,-22.25 6.25,-3 10.85,-4 18.35,-4 13.3,0.05 24.15,4.3 33,13 4.3,4.2 6.55,7.4 9.75,13.85 4.1,8.2 5.6,15.3 5.15,24.35 -0.6,12.4 -5.05,22.95 -13.25,31.45 -5.65,5.8 -14.1,10.75 -21.6,12.65 -5.4,1.4 -15.45,1.95 -20,1.15 z m 8.65,-47.6 c 3.25,-1.6 6.25,-4.7 8.15,-8.45 1.2,-2.25 1.4,-3.25 1.4,-6.9 0,-3.25 -0.25,-4.8 -1.05,-6.6 -1.3,-2.9 -4.65,-6.55 -7.5,-8.25 -1.2,-0.7 -2.15,-1.4 -2.15,-1.55 0,-0.2 -0.85,-0.4 -1.9,-0.5 -1,-0.05 -1.9,-0.3 -2,-0.55 -0.15,-0.45 -1.35,-0.3 -5.35,0.55 -5.65,1.2 -10.85,5.1 -12.75,9.5 -1.5,3.55 -1.25,10.4 0.5,14.15 1.7,3.55 6.15,7.85 9.5,9.15 3.85,1.55 9.3,1.3 13.15,-0.55 z" id="path99" />
        <path d="m 518.45,512.4 c -0.4,-0.35 -1.45,-0.7 -2.35,-0.8 -2.75,-0.2 -8.1,-3.15 -11.1,-6.1 -5.8,-5.7 -8.5,-12.95 -8.5,-22.95 v -4.3 l -6.65,-2.15 c -7.45,-2.4 -11.7,-4.25 -12.65,-5.5 -0.55,-0.65 -0.8,-0.7 -1.1,-0.25 -0.6,0.9 -8.25,-2.85 -9.4,-4.6 -0.5,-0.8 -1.15,-1.2 -1.6,-1 -1.25,0.45 -9.1,-4.9 -9.1,-6.25 0,-0.25 -0.15,-0.45 -0.35,-0.45 -1.05,0.15 -1.85,-0.25 -4.5,-2.5 -6,-5 -15.1,-15 -17.45,-19 -0.5,-0.95 -1.4,-2.2 -2,-2.8 -4.65,-4.75 -15.35,-28.55 -17.55,-39 -0.6,-2.9 -2.15,-13.95 -2.15,-15.35 0,-0.2 -5.6,-0.4 -12.4,-0.4 -14.45,0 -15.6,-0.2 -21.3,-4.05 -16.05,-10.7 -18.4,-31.35 -5.05,-44.7 3.7,-3.7 8.85,-6.7 13.25,-7.7 1.4,-0.35 12.75,-0.55 29.55,-0.55 h 27.3 l 0.35,-3.5 c 0.2,-1.9 0.3,-23.25 0.25,-47.4 -0.1,-40.3 0,-44.15 0.75,-46.5 0.5,-1.45 1.35,-3 1.95,-3.45 2.25,-1.85 2.5,-2.45 1.65,-4.05 -0.4,-0.8 -1.25,-1.6 -1.85,-1.75 -0.55,-0.15 -0.9,-0.5 -0.7,-0.8 0.15,-0.3 0.05,-0.55 -0.2,-0.55 -0.3,0 -0.55,-0.3 -0.55,-0.7 0,-0.4 -0.9,-0.9 -2.1,-1.25 -3.2,-0.8 -3.9,-1.4 -2.4,-1.95 0.7,-0.3 1.7,-0.9 2.25,-1.45 0.55,-0.5 1.9,-1.2 3,-1.6 1.1,-0.4 2.15,-0.95 2.35,-1.25 0.25,-0.35 2.55,-0.55 6.5,-0.55 5.95,0 6.3,0.05 9.5,1.65 6.25,3.05 12.05,9.85 13.35,15.6 0.35,1.4 0.6,20.05 0.7,50.75 l 0.2,48.5 h 44.2 44.2 l 0.25,-6 0.3,-6 0.1,5.8 0.1,5.8 5.05,0.3 c 2.8,0.2 5.3,0.2 5.5,0.05 0.25,-0.15 0.45,-15.95 0.5,-35.1 0.05,-44.05 0.45,-60 1.55,-61.65 1,-1.5 3.85,-4.35 5.65,-5.7 1.35,-1 1.35,-1.1 0.6,-2.6 -1,-1.9 -5.05,-4.65 -6.85,-4.65 -3.55,0 -6.1,0.65 -6.85,1.8 -0.4,0.65 -0.8,1.45 -0.85,1.85 -0.05,0.4 -0.45,1.3 -0.95,2 -0.45,0.75 -0.85,1.5 -0.85,1.75 0,0.25 -0.45,0.85 -1,1.35 -0.55,0.5 -1,0.7 -1,0.4 0,-0.65 2.65,-5.8 3.55,-6.85 6,-7.25 14.4,-10.8 22.25,-9.45 7.5,1.3 14.4,6.65 18,13.9 l 1.95,3.95 0.15,49.65 0.15,49.65 h 20.6 c 22.8,0 24.45,0.2 30.05,3.1 9.75,5.15 16.35,17.85 14.8,28.65 -1.7,11.7 -8,19.55 -18.95,23.65 -3.1,1.15 -4.05,1.25 -15.4,1.5 l -12.1,0.2 -0.25,1.85 c -0.15,1 -0.4,3.05 -0.55,4.55 -0.5,4 -2.55,13.5 -4.05,18.45 -2.55,8.3 -10,24.15 -13.8,29.3 -0.9,1.2 -3.05,4.1 -4.8,6.45 -3.55,4.75 -14.3,15.45 -20.25,20.2 -3.8,3 -4.35,3.3 -5.7,3.15 -1.15,-0.15 -5.1,2.45 -4.85,3.15 0.15,0.45 -0.9,1.25 -2.85,2.3 -4.85,2.5 -10.95,5 -10.95,4.5 0,-0.3 -0.35,-0.5 -0.75,-0.5 -0.4,0 -0.6,0.3 -0.45,0.7 0.35,0.9 -2.75,2 -6,2.05 -1.6,0.05 -2.55,0.35 -2.85,0.85 -0.25,0.45 -1.55,1.05 -2.95,1.4 -1.4,0.35 -2.6,0.8 -2.75,1.05 -0.15,0.2 -0.5,3.3 -0.75,6.8 -0.7,9.5 -2.85,14.9 -7.95,20 -4.6,4.6 -11,7.35 -17.6,7.6 -2.6,0.05 -4.05,-0.1 -4.5,-0.55 z M 502,451.75 c -0.25,-0.3 -1.3,-0.8 -2.35,-1.2 -3.5,-1.2 -11.8,-5.2 -12.75,-6.15 -0.5,-0.5 -1.25,-0.9 -1.65,-0.9 -0.4,0 -0.75,-0.2 -0.75,-0.45 0,-0.25 -0.4,-0.6 -0.85,-0.75 -0.5,-0.15 -1.6,-0.9 -2.4,-1.65 -0.85,-0.8 -2.5,-2.3 -3.75,-3.35 -3.9,-3.4 -9.4,-9.85 -13.1,-15.3 -1.95,-2.9 -3.7,-5.35 -3.9,-5.5 -0.2,-0.15 -1.5,-2.25 -2.85,-4.75 -2.35,-4.25 -3.9,-8.2 -5.15,-13.25 -2.1,-8.3 -10,-10.75 -14,-4.25 -2.1,3.35 -1.25,7.75 2.85,15.25 2.2,4 6.45,10.1 8.85,12.7 1,1.05 1.8,2.05 1.85,2.25 0.1,0.7 11.45,10.7 14.45,12.7 10.05,6.7 16.75,10 26.5,13.1 6.05,1.95 6.85,2.15 8.35,2.1 0.7,-0.05 0.95,-0.25 0.65,-0.6 z m 24.6,-24 c 3.85,-1.15 7.25,-3.65 9.15,-6.75 2.1,-3.5 2.75,-5.85 2.75,-10.25 0,-3 -0.25,-4.05 -1.7,-7 -1.85,-3.85 -4.05,-6.05 -8.3,-8.3 -2.4,-1.25 -3.3,-1.45 -6.75,-1.45 -7.35,0 -11.85,2.25 -15.55,7.75 -3.25,4.95 -3.8,12 -1.25,17.15 1.6,3.15 6.05,7.15 9.45,8.45 3.4,1.3 8.7,1.5 12.2,0.4 z m 90.45,-78.1 c 0.6,-0.6 -2.3,-6.1 -4.4,-8.25 -3.4,-3.5 -2.85,-3.45 -32.3,-3.3 -20.8,0.1 -26.35,0 -26.35,-0.45 0,-0.35 -0.45,-0.65 -1,-0.65 -0.55,0 -1,0.25 -1,0.5 0,0.35 -26.55,0.5 -78.6,0.5 h -78.6 l -2.2,1.05 c -4.15,2 -5.45,6.8 -2.75,10 l 1.35,1.6 112.7,-0.3 c 62,-0.15 112.9,-0.45 113.15,-0.7 z" id="path100" />
        <path d="m 385.25,507.3 c -3.95,-1.7 -6.6,-7.3 -5.75,-11.9 0.75,-3.75 2.4,-6.2 7.3,-10.85 8.55,-8.1 16.35,-12.35 29.2,-15.85 2.6,-0.7 5.3,-0.9 13.5,-0.9 9.8,-0.05 10.35,0 12.65,1.15 4.85,2.35 7.4,6.2 7.45,11.2 0.05,4.15 -0.9,6.8 -3.1,8.25 -1,0.65 -1.8,0.95 -1.9,0.65 -0.1,-0.3 -0.5,-0.55 -0.9,-0.55 -0.35,0 -0.55,0.3 -0.4,0.7 0.2,0.55 -0.2,0.8 -1.4,1 -2.6,0.45 -19.4,0.6 -19.4,0.2 0,-0.25 -0.35,-0.4 -0.75,-0.4 -0.4,0 -0.75,0.15 -0.75,0.4 0,0.2 -2,1.1 -4.45,2.05 -5.4,1.95 -10.45,5.2 -15.75,10.05 -2.15,2 -4.85,4.05 -6,4.55 -2.4,1.1 -7.3,1.25 -9.55,0.25 z" id="path101" />
        <path d="m 645.95,503.4 c -2.05,-2 -4.3,-4.15 -5.05,-4.7 -2.6,-2.2 -8.5,-5.35 -12.25,-6.6 -3.55,-1.15 -4.75,-1.3 -13.85,-1.45 -7.3,-0.1 -10.1,-0.3 -10.4,-0.8 -0.3,-0.45 -0.4,-0.45 -0.4,0 0,0.45 -0.4,0.45 -1.6,0.05 -4.55,-1.55 -6.6,-4.55 -6.6,-9.65 -0.05,-4.4 1.05,-6.75 4.15,-9.05 4.15,-3 6.45,-3.4 17.5,-3.05 8.05,0.25 10.65,0.55 14.6,1.55 9,2.25 16.85,6 24,11.4 7.3,5.5 10.95,11 10.95,16.55 0,3.45 -0.6,4.85 -2.15,4.9 -0.6,0 -0.8,0.15 -0.45,0.3 0.7,0.3 0.8,1.45 0.1,1.9 -0.3,0.15 -0.35,-0.05 -0.2,-0.45 0.45,-1.25 -0.95,-0.95 -3.1,0.6 -1.8,1.25 -2.35,1.35 -6.45,1.35 -2.45,0 -4.65,0.2 -4.8,0.4 -0.15,0.25 -1.95,-1.25 -4,-3.25 z" id="path102" />
        <path d="m 567,286.5 c 0,-7.25 0.15,-13 0.35,-12.8 0.4,0.35 0.25,25.35 -0.1,25.75 -0.15,0.1 -0.25,-5.7 -0.25,-12.95 z" id="path103" />
        <path d="m 431.65,237.5 c 0,-1.25 0.1,-1.75 0.2,-1.1 0.1,0.6 0.1,1.6 0,2.25 -0.1,0.6 -0.2,0.1 -0.2,-1.15 z" id="path104" />
        <path d="m 431.6,233.5 c 0,-0.95 0.1,-1.35 0.25,-0.85 0.1,0.45 0.1,1.25 0,1.75 -0.15,0.45 -0.25,0.05 -0.25,-0.9 z" id="path105" />
        <path d="m 567.1,227 c 0,-0.95 0.1,-1.35 0.25,-0.85 0.1,0.45 0.1,1.25 0,1.75 -0.15,0.45 -0.25,0.05 -0.25,-0.9 z" id="path106" />
        <path d="m 431.9,225.95 c -0.15,-0.45 -0.1,-1.1 0.1,-1.5 0.65,-0.95 0.9,-0.4 0.5,1.05 -0.2,0.95 -0.35,1.05 -0.6,0.45 z" id="path107" />
        <path d="m 433,220.55 c 0,-0.9 2.05,-5.05 2.5,-5.05 0.6,0 0.3,1.7 -0.35,2.15 -0.35,0.2 -0.65,0.75 -0.65,1.15 0,0.45 -0.35,1.1 -0.75,1.5 -0.4,0.45 -0.75,0.55 -0.75,0.25 z" id="path108" />
    </g>
</svg>
