<?xml version="1.0" encoding="UTF-8" standalone="no"?>
<svg version="1.0" width="459.93918" height="618.93884" viewBox="0 0 459.93918 618.93884" preserveAspectRatio="xMidYMid" id="svg187" sodipodi:docname="generated logo.svg" inkscape:version="1.3 (0e150ed6c4, 2023-07-21)"
    xmlns:inkscape="http://www.inkscape.org/namespaces/inkscape"
    xmlns:sodipodi="http://sodipodi.sourceforge.net/DTD/sodipodi-0.dtd"
    xmlns="http://www.w3.org/2000/svg"
    xmlns:svg="http://www.w3.org/2000/svg">
    <defs id="defs187" />
    <sodipodi:namedview id="namedview187" pagecolor="#ffffff" bordercolor="#666666" borderopacity="1.0" inkscape:showpageshadow="2" inkscape:pageopacity="0.0" inkscape:pagecheckerboard="0" inkscape:deskcolor="#d1d1d1" inkscape:zoom="0.8359375" inkscape:cx="220.71028" inkscape:cy="348.11215" inkscape:window-width="1920" inkscape:window-height="1052" inkscape:window-x="-8" inkscape:window-y="-8" inkscape:window-maximized="1" inkscape:current-layer="g75" />
    <g fill="#afa9d5" id="g75" transform="translate(-290.5,-208)">
        <path d="m 516.9,826.65 c -0.5,-0.1 -0.9,-0.55 -0.9,-0.95 0,-0.55 1.25,-0.7 6.75,-0.7 5.4,0 6.75,0.15 6.75,0.7 0,0.35 -0.5,0.8 -1.1,1 -1.3,0.35 -10.2,0.3 -11.5,-0.05 z" id="path8" />
        <path d="m 505.9,826.15 c -0.5,-0.1 -0.9,-0.55 -0.9,-0.95 0,-0.5 0.7,-0.7 2.75,-0.7 2.4,0 2.75,0.1 2.75,1 0,0.85 -0.3,1 -1.85,0.95 -1.05,-0.05 -2.3,-0.15 -2.75,-0.3 z" id="path9" />
        <path d="m 532.5,825.65 c 0,-0.9 0.45,-1.05 3.9,-1.35 7.3,-0.65 29.7,-4.7 38.85,-7.05 11.75,-3 25.6,-7.9 35.95,-12.7 2.45,-1.1 4.85,-2.05 5.35,-2.05 0.45,0 0.95,-0.2 1.05,-0.45 0.25,-0.65 8.25,-4.55 9.4,-4.55 0.55,0 1,-0.3 1,-0.65 0,-0.8 2.05,-1.85 3.5,-1.85 0.55,0 1,-0.35 1,-0.75 0,-0.4 0.55,-0.85 1.25,-1.05 0.7,-0.15 1.25,-0.5 1.25,-0.75 0,-0.25 0.35,-0.45 0.75,-0.45 0.4,0 0.75,-0.2 0.75,-0.5 0,-0.25 0.55,-0.5 1.25,-0.5 0.8,0 1.25,-0.3 1.25,-0.75 0,-0.4 0.35,-0.75 0.75,-0.75 0.4,0 0.75,-0.2 0.75,-0.5 0,-0.25 0.35,-0.5 0.75,-0.5 0.4,0 0.75,-0.2 0.75,-0.5 0,-0.25 0.35,-0.5 0.75,-0.5 0.4,0 0.75,-0.2 0.75,-0.5 0,-0.25 0.35,-0.5 0.75,-0.5 0.4,0 0.75,-0.2 0.75,-0.5 0,-0.25 0.35,-0.5 0.75,-0.5 0.4,0 0.75,-0.2 0.75,-0.5 0,-0.25 0.35,-0.5 0.75,-0.5 0.4,0 0.75,-0.2 0.75,-0.5 0,-0.25 0.35,-0.5 0.75,-0.5 0.4,0 0.75,-0.2 0.75,-0.5 0,-0.25 0.45,-0.5 1,-0.5 0.55,0 1,-0.35 1,-0.75 0,-0.4 0.35,-0.75 0.75,-0.75 0.4,0 0.75,-0.2 0.75,-0.5 0,-0.25 0.45,-0.5 1,-0.5 0.55,0 1,-0.35 1,-0.75 0,-0.4 0.3,-0.75 0.7,-0.75 0.4,0 0.8,-0.35 1,-0.75 0.15,-0.4 0.7,-0.75 1.25,-0.75 0.5,0 1.05,-0.45 1.2,-1 0.15,-0.55 0.7,-1 1.25,-1 0.55,0 1.1,-0.45 1.25,-1 0.15,-0.7 0.7,-1 1.55,-1 0.95,0 1.3,-0.25 1.3,-0.9 0,-1.3 1.6,-2.6 3.15,-2.6 1.1,0 1.35,-0.25 1.35,-1.15 0,-1.8 2.95,-4.35 5,-4.35 1.75,0.05 1.75,0.05 -2,3.6 -10.5,9.9 -27.65,22.2 -42.25,30.3 -19.65,10.9 -44.8,20 -66.5,24.05 -14,2.6 -21.75,3.85 -26.85,4.3 -3.65,0.35 -3.9,0.3 -3.9,-0.6 z" id="path10" />
        <path d="m 499.5,825.7 c -0.7,-0.1 -3.95,-0.55 -7.25,-1 -23.35,-3 -48.25,-10.55 -70.95,-21.35 -15.4,-7.4 -30.75,-17.45 -46.05,-30.05 -5.05,-4.25 -5.35,-4.55 -4.05,-4.7 1.9,-0.25 2.8,0.2 2.8,1.35 0,0.7 0.4,1.05 1.4,1.15 0.95,0.1 1.4,0.45 1.5,1.3 0.15,0.8 0.5,1.1 1.45,1.1 0.8,0 1.35,0.35 1.5,1 0.15,0.55 0.7,1 1.25,1 0.55,0 1.1,0.45 1.25,1 0.15,0.55 0.7,1 1.2,1 0.55,0 0.95,0.35 0.95,0.75 0,0.4 0.45,0.75 1,0.75 0.55,0 1,0.35 1,0.75 0,0.4 0.45,0.75 1,0.75 0.55,0 1.15,0.35 1.3,0.75 0.2,0.4 0.6,0.75 1,0.75 0.4,0 0.7,0.25 0.7,0.5 0,0.3 0.35,0.5 0.75,0.5 0.4,0 0.75,0.35 0.75,0.75 0,0.4 0.45,0.75 1,0.75 0.55,0 1,0.25 1,0.5 0,0.3 0.35,0.5 0.75,0.5 0.4,0 0.75,0.25 0.75,0.5 0,0.3 0.35,0.5 0.75,0.5 0.4,0 0.75,0.25 0.75,0.5 0,0.3 0.35,0.5 0.75,0.5 0.4,0 0.75,0.25 0.75,0.5 0,0.3 0.35,0.5 0.75,0.5 0.4,0 0.75,0.2 0.75,0.45 0,0.25 0.55,0.6 1.25,0.75 0.7,0.2 1.25,0.55 1.25,0.8 0,0.3 0.35,0.5 0.75,0.5 0.4,0 0.75,0.2 0.75,0.45 0,0.25 0.55,0.6 1.25,0.75 0.7,0.2 1.25,0.55 1.25,0.8 0,0.3 0.3,0.5 0.7,0.5 0.4,0 1.05,0.3 1.4,0.65 0.35,0.35 1.4,0.95 2.3,1.3 0.85,0.35 1.6,1 1.6,1.35 0,0.4 0.45,0.7 1,0.7 1.15,0 10.15,4.4 10.4,5.05 0.1,0.25 0.6,0.45 1.15,0.45 0.5,0 0.95,0.25 0.95,0.5 0,0.3 0.4,0.5 0.85,0.5 1.2,0 6.15,2.1 6.15,2.6 0,0.2 0.4,0.4 0.9,0.4 0.5,0 2.85,0.8 5.25,1.75 18.45,7.45 42.45,13.35 61,15.05 3.3,0.3 3.85,0.45 3.85,1.25 0,0.95 -1.15,1.1 -4.5,0.65 z" id="path11" />
        <path d="m 497.85,791.5 c -0.25,-0.9 0,-1 2.05,-1 2.35,-0.05 2.35,-0.05 0.6,-0.75 -6,-2.35 -11.45,-4.15 -20.25,-6.75 -35.35,-10.35 -56.9,-21.1 -77.8,-38.8 -6.3,-5.35 -21.9,-20.65 -26.95,-26.45 -7,-8.05 -15.7,-20.45 -21.1,-30 -4.6,-8.1 -14.4,-28.6 -14.4,-30.1 0,-0.35 1.6,-1.4 3.6,-2.4 4.65,-2.35 10.2,-5.55 12.3,-7.1 0.9,-0.7 1.95,-1.15 2.3,-1 0.35,0.15 1.9,3.35 3.45,7.15 3,7.35 7.85,16.35 13.65,25.45 8.55,13.35 14,19.9 27.55,33.25 7.95,7.85 12.15,11.55 17.9,15.7 11.15,8.2 18.65,12.7 28.45,17.1 5.35,2.45 7.25,2.65 4.05,0.5 -3,-2 -15.9,-11 -20.75,-14.45 -9.3,-6.6 -16.5,-12.9 -16.5,-14.4 0,-0.45 2.65,-3.35 5.9,-6.5 7.65,-7.45 15.35,-15.55 21.1,-22.25 2.55,-3 4.95,-5.6 5.3,-5.8 0.35,-0.25 2.5,0.75 5.25,2.45 5.95,3.55 15.4,8.1 21.1,10.1 5.4,1.9 5.85,1.9 5.85,0.3 0,-0.9 0.25,-1.25 0.95,-1.25 0.8,0 0.95,0.6 1.2,5.65 0.8,15.8 7.3,31.35 17.35,41.35 5.7,5.7 13.95,9.5 20.6,9.5 3.15,0 8.6,-1.6 12.9,-3.75 6.35,-3.25 12.8,-10.3 16.75,-18.5 5,-10.3 7.75,-21.85 7.75,-32.3 0,-4.3 0.15,-5.45 0.7,-5.45 0.8,0 1.3,1.5 1.3,4.15 0,1 0.15,1.85 0.3,1.85 0.15,0 2.2,-0.9 4.5,-1.95 15.3,-7.2 32.5,-21.8 44.45,-37.8 10.8,-14.4 20.05,-31.55 26.85,-49.75 0.8,-2.15 2.2,-3.95 6.1,-8.05 5.55,-5.85 7.25,-8.35 10.6,-15.9 3.4,-7.55 4.45,-12.95 4.4,-23.3 -0.05,-7.6 -0.2,-9 -1.4,-13.45 -3.3,-12.15 -9.15,-21.55 -20,-32.25 -2.05,-2.05 -3.4,-3.8 -3.6,-4.75 -0.5,-2.4 -4.6,-12 -7.8,-18.15 -3.45,-6.7 -5.8,-10.65 -10.65,-17.7 -3.65,-5.3 -3.65,-5.3 5.75,-5.65 5.15,-0.15 28.9,-0.3 52.8,-0.3 38.85,0.05 43.45,-0.05 43.6,-0.75 0.35,-1.55 1.6,-0.8 1.6,1 0,1.75 0,1.75 -13.55,1.75 -13.55,0 -13.55,0 -13.25,1.15 1.55,5.55 4.3,28.35 4.3,35.55 0,2.65 0,2.65 -5.6,2.9 -6.75,0.25 -9.85,1.45 -13.95,5.2 -3.15,2.95 -4.75,5.65 -5.5,9.2 -1,4.7 1.15,10.6 5.2,14.35 4.2,3.85 7.95,5.15 15.25,5.15 5.1,0 5.1,0 5.1,1.4 -0.05,4.4 -1.1,23.15 -1.55,27.6 -0.45,4.75 -2.15,15.6 -2.75,17.55 -0.15,0.6 -1.15,0.9 -4.05,1.15 -7.15,0.6 -12.85,4.5 -15.95,11.05 -3,6.2 -2.05,11.75 3,17.15 3.15,3.35 7.1,5.2 11.7,5.5 3.6,0.25 3.6,0.25 3.6,2.25 0,1.8 -0.55,4.1 -2.8,11.85 -2.45,8.4 -9.8,24.9 -15,33.75 -10,17.05 -18.85,28.5 -31.3,40.5 -18.25,17.6 -40.5,32.35 -61.15,40.5 -22.55,8.9 -45.55,12.75 -67.3,11.3 -15.1,-1 -27.8,-3.25 -38.2,-6.8 -5.95,-2 -9.1,-3.25 -21.2,-8.45 -4.2,-1.8 -4.2,-1.8 0.5,3.25 8.7,9.45 19.7,19.1 30.45,26.8 4.1,2.9 9.1,5.05 18.65,8 2.3,0.7 2.35,0.8 2.35,2.7 0,1.95 0,1.95 -3.2,1.95 -2.75,0 -3.2,-0.15 -3.45,-1 z m 143.2,-124.05 c 0,-6.35 -5.15,-11.45 -11.45,-11.45 -6.35,0 -11.45,5.1 -11.45,11.45 0,6.35 5.1,11.45 11.45,11.45 6.3,0 11.45,-5.1 11.45,-11.45 z m -6.95,10.5" id="path12" />
        <path d="m 490,791.4 c -7.55,-1.3 -18.1,-3.55 -23.15,-4.95 -6.85,-1.9 -21.65,-7.3 -22.6,-8.25 -0.35,-0.4 -1,-0.7 -1.45,-0.7 -1.05,0 -4.3,-1.6 -4.3,-2.1 0,-0.2 -0.55,-0.4 -1.25,-0.4 -0.7,0 -1.25,-0.2 -1.25,-0.5 0,-0.25 -0.45,-0.5 -1,-0.5 -0.75,0 -1,-0.35 -1,-1.25 0,-0.7 0.05,-1.25 0.15,-1.25 0.1,0 3.3,1.45 7.15,3.2 14.6,6.65 29.95,11.45 44.95,14.05 10.4,1.8 10.25,1.75 10.25,2.55 0,0.8 -2.2,0.85 -6.5,0.1 z" id="path13" />
        <path d="m 428.75,770.9 c -0.55,-0.3 -1.1,-0.7 -1.25,-0.9 -0.15,-0.15 -1,-0.6 -1.85,-0.95 -0.9,-0.4 -1.65,-0.85 -1.65,-1.05 0,-0.2 -0.55,-0.55 -1.25,-0.7 -0.7,-0.2 -1.25,-0.65 -1.25,-1.05 0,-0.45 -0.5,-0.75 -1.2,-0.75 -0.7,0 -1.55,-0.35 -2,-0.75 -0.4,-0.4 -0.95,-0.75 -1.25,-0.75 -0.3,0 -0.55,-0.2 -0.55,-0.5 0,-0.25 -0.35,-0.5 -0.75,-0.5 -0.4,0 -0.75,-0.35 -0.75,-0.75 0,-0.45 -0.45,-0.75 -1.25,-0.75 -0.8,0 -1.25,-0.3 -1.25,-0.75 0,-0.4 -0.45,-0.75 -1,-0.75 -0.55,0 -1,-0.2 -1,-0.5 0,-0.25 -0.35,-0.5 -0.75,-0.5 -0.45,0 -0.9,-0.35 -1.05,-0.75 -0.2,-0.4 -0.6,-0.75 -1,-0.75 -0.4,0 -0.7,-0.2 -0.7,-0.5 0,-0.25 -0.35,-0.5 -0.75,-0.5 -0.4,0 -0.75,-0.45 -0.75,-1 0,-0.75 -0.35,-1 -1.25,-1 -0.7,0 -1.4,-0.35 -1.55,-0.75 -0.2,-0.4 -0.6,-0.75 -1,-0.75 -0.4,0 -0.7,-0.3 -0.7,-0.7 0,-0.4 -0.5,-0.8 -1.1,-0.9 -0.65,-0.1 -1.35,-0.65 -1.65,-1.25 -0.25,-0.6 -0.95,-1.15 -1.5,-1.25 -0.65,-0.1 -1.05,-0.6 -1.15,-1.5 -0.15,-1.15 -0.4,-1.4 -1.55,-1.4 -1.55,0 -2.55,-0.8 -2.55,-2.1 0,-0.6 -0.4,-0.9 -1.15,-0.9 -1.6,0 -2.95,-1.6 -2.75,-3.25 0.15,-1.3 0.3,-1.2 4.9,2.8 2.65,2.3 6.2,5.35 7.95,6.7 1.75,1.4 3.9,3.05 4.75,3.75 5.2,4.25 13.65,9.75 23.95,15.5 2.1,1.2 3.85,2.4 3.85,2.6 0,0.6 -3.1,0.45 -4.25,-0.2 z" id="path14" />
        <path d="m 366.25,765.35 c -3,-2.8 -3,-2.8 -1.2,-2.85 2.35,0 4.6,2.2 4.35,4.3 -0.15,1.4 -0.15,1.4 -3.15,-1.45 z" id="path15" />
        <path d="m 679,759.15 c 0,-2 8.1,-10.15 10.1,-10.15 1.2,0 1.35,-0.2 1.5,-1.85 0.1,-1.4 0.45,-2.05 1.3,-2.4 0.6,-0.25 1.1,-0.85 1.1,-1.3 0,-0.9 1.5,-2.45 2.4,-2.45 0.35,0 0.6,-0.45 0.6,-0.95 0,-0.55 0.4,-1.3 0.9,-1.65 0.5,-0.35 1.05,-1.05 1.25,-1.5 0.15,-0.5 0.65,-0.9 1.1,-0.9 0.4,0 0.75,-0.45 0.75,-1 0,-0.55 0.35,-1.15 0.75,-1.3 0.4,-0.2 0.75,-0.65 0.75,-1 0,-0.4 0.35,-0.85 0.75,-1 0.4,-0.2 0.75,-0.6 0.75,-1 0,-0.4 0.35,-0.7 0.75,-0.7 0.4,0 0.75,-0.45 0.75,-1 0,-0.55 0.25,-1 0.5,-1 0.3,0 0.5,-0.3 0.5,-0.7 0,-0.35 0.55,-1.25 1.25,-2 0.7,-0.75 1.25,-1.55 1.25,-1.85 0,-0.25 0.2,-0.45 0.45,-0.45 0.25,0 0.6,-0.55 0.75,-1.25 0.2,-0.7 0.55,-1.25 0.8,-1.25 0.3,0 0.5,-0.35 0.5,-0.75 0,-0.4 0.25,-0.75 0.5,-0.75 0.3,0 0.5,-0.35 0.5,-0.75 0,-0.4 0.25,-0.75 0.5,-0.75 0.3,0 0.5,-0.35 0.5,-0.75 0,-0.4 0.35,-0.75 0.75,-0.75 0.45,0 0.75,-0.45 0.75,-1.25 0,-0.7 0.25,-1.25 0.5,-1.25 0.3,0 0.5,-0.35 0.5,-0.75 0,-0.4 0.25,-0.75 0.5,-0.75 0.3,0 0.5,-0.3 0.5,-0.7 0,-0.4 0.3,-1.05 0.7,-1.4 0.35,-0.4 0.85,-1.2 1,-1.8 0.2,-0.6 0.55,-1.1 0.8,-1.1 0.2,0 0.55,-0.55 0.7,-1.25 0.2,-0.7 0.65,-1.25 1.05,-1.25 0.4,0 0.75,-0.45 0.75,-1.05 0,-0.95 0.8,-2.95 1.45,-3.45 0.55,-0.45 7.4,-15.1 9.85,-21 1.3,-3.15 2.55,-5.8 2.8,-5.9 0.2,-0.1 0.4,-0.5 0.4,-0.85 0,-0.4 1.35,-4.7 2.95,-9.6 3.6,-10.75 7.15,-24.7 8.7,-33.75 1.1,-6.65 1.1,-6.65 1.1,-96.95 0,-90.3 0,-90.3 -1.25,-93 -0.7,-1.5 -1.4,-2.75 -1.6,-2.85 -0.25,-0.1 -0.4,-1 -0.4,-1.95 0,-1.8 0,-1.8 1,-0.9 0.55,0.5 1.75,2.4 2.65,4.2 1.6,3.3 1.6,3.3 1.75,90.3 0.1,76.1 0.05,87.95 -0.65,94.75 -2.6,25.55 -13.7,58.5 -28.15,83.25 -8.8,15.1 -18.05,28.5 -26.85,38.75 -5.35,6.3 -12.45,13.75 -14.35,15.1 -1.4,0.95 -1.4,0.95 -1.4,-0.45 z" id="path16" />
        <path d="M 352.95,751.95 C 342.7,740.5 333.1,728.4 327.35,719.5 324,714.25 316.5,701.45 316.5,700.9 c 0,-0.2 0.55,-0.4 1.15,-0.4 1.25,0 2.35,1.65 2.35,3.5 0,0.55 0.35,1 0.75,1 0.4,0 0.85,0.55 1.05,1.25 0.15,0.7 0.5,1.25 0.7,1.25 0.25,0 0.6,0.5 0.8,1.1 0.15,0.6 0.65,1.4 1,1.8 0.4,0.35 0.7,1.2 0.7,1.9 0,0.75 0.3,1.2 0.75,1.2 0.4,0 0.75,0.35 0.75,0.75 0,0.4 0.2,0.75 0.5,0.75 0.25,0 0.6,0.55 0.8,1.25 0.15,0.7 0.5,1.25 0.75,1.25 0.25,0 0.45,0.35 0.45,0.75 0,0.4 0.25,0.75 0.5,0.75 0.3,0 0.5,0.35 0.5,0.75 0,0.4 0.25,0.75 0.5,0.75 0.3,0 0.5,0.3 0.5,0.7 0,0.4 0.35,0.8 0.75,1 0.4,0.15 0.75,0.6 0.75,1.05 0,0.4 0.25,0.75 0.5,0.75 0.3,0 0.5,0.3 0.5,0.7 0,0.4 0.35,0.8 0.75,1 0.4,0.15 0.75,0.6 0.75,1.05 0,0.4 0.25,0.75 0.5,0.75 0.3,0 0.5,0.4 0.5,0.95 0,0.5 0.45,1.05 1,1.2 0.55,0.15 1,0.6 1,1 0,0.4 0.35,0.85 0.75,1.05 0.4,0.15 0.75,0.75 0.75,1.3 0,0.55 0.35,1 0.75,1 0.4,0 0.75,0.4 0.75,0.95 0,0.5 0.45,1.05 1,1.2 0.65,0.15 1,0.7 1,1.5 0,0.95 0.3,1.3 1.15,1.45 0.85,0.1 1.15,0.55 1.25,1.8 0.15,1.3 0.4,1.6 1.3,1.6 1.4,0 2.3,0.9 2.3,2.35 0,0.75 0.3,1.15 0.9,1.15 1.3,0 2.1,1 2.1,2.6 0,1.15 0.2,1.4 1.15,1.4 1.85,0 3.95,2.55 3.75,4.55 -0.15,1.65 -0.15,1.65 -3.95,-2.6 z" id="path17" />
        <path d="m 380.55,734.8 c -1.75,-1.8 -2.1,-2.45 -1.95,-3.75 0.15,-1.6 0.15,-1.6 3.9,2.2 3.7,3.75 3.7,3.75 1.95,3.75 -1.4,0 -2.15,-0.45 -3.9,-2.2 z" id="path18" />
        <path d="m 373.85,727.6 c -0.5,-0.5 -0.85,-1.4 -0.85,-2 0,-0.75 -0.3,-1.1 -0.9,-1.1 -1.3,0 -2.1,-1 -2.1,-2.55 0,-1.15 -0.25,-1.4 -1.35,-1.55 -0.95,-0.1 -1.45,-0.5 -1.55,-1.15 -0.1,-0.55 -0.65,-1.25 -1.25,-1.5 -0.6,-0.3 -1.15,-1 -1.25,-1.55 -0.1,-0.6 -0.6,-1.2 -1.15,-1.35 -0.55,-0.15 -0.95,-0.7 -0.95,-1.3 0,-0.6 -0.3,-1.05 -0.75,-1.05 -0.4,0 -0.75,-0.45 -0.75,-1 0,-0.55 -0.35,-1 -0.75,-1 -0.4,0 -0.75,-0.35 -0.75,-0.75 0,-0.4 -0.2,-0.75 -0.5,-0.75 -0.25,0 -0.5,-0.35 -0.5,-0.75 0,-0.4 -0.2,-0.75 -0.5,-0.75 -0.25,0 -0.5,-0.45 -0.5,-1 0,-0.55 -0.35,-1 -0.75,-1 -0.4,0 -0.75,-0.35 -0.75,-0.75 0,-0.4 -0.2,-0.75 -0.5,-0.75 -0.25,0 -0.5,-0.35 -0.5,-0.75 0,-0.4 -0.2,-0.75 -0.5,-0.75 -0.25,0 -0.5,-0.35 -0.5,-0.75 0,-0.4 -0.2,-0.75 -0.5,-0.75 -0.25,0 -0.5,-0.35 -0.5,-0.75 0,-0.4 -0.2,-0.75 -0.5,-0.75 -0.25,0 -0.5,-0.35 -0.5,-0.75 0,-0.4 -0.2,-0.75 -0.4,-0.75 -0.25,0 -0.85,-0.85 -1.4,-1.85 -0.5,-1.05 -1.25,-2.2 -1.55,-2.55 -0.35,-0.35 -0.8,-1.2 -0.95,-1.9 -0.15,-0.65 -0.45,-1.2 -0.65,-1.2 -0.55,0 -1.55,-2.35 -1.55,-3.5 0,-0.55 -0.3,-1 -0.65,-1 -0.9,0 -4.85,-8.2 -4.85,-10 0,-0.95 -0.25,-1.5 -0.7,-1.5 -0.75,0 -6.6,-14.25 -9.5,-23.25 -3.5,-10.85 -5.8,-20.45 -5.8,-24.1 0,-1.55 0.1,-1.65 1.75,-1.65 0.95,0 1.75,0.25 1.75,0.5 0,0.3 -0.4,0.5 -0.95,0.5 -0.85,0 -0.85,0.2 -0.25,3.65 2.05,11.95 10.35,35.65 17.25,49.5 7.55,15.05 17.8,30.15 29.4,43.35 5.05,5.75 4.95,5.5 3.2,5.5 -0.85,0 -1.85,-0.4 -2.3,-0.9 z" id="path19" />
        <path d="m 313.05,694.1 c -2.9,-5.75 -9.1,-20.45 -11.75,-27.75 -4.05,-11.3 -8.7,-29.95 -9.8,-39.6 -0.7,-6.35 -0.7,-6.75 0.5,-6.75 0.8,0 1,0.35 1,1.9 0,3.35 2,14.2 4.25,23.1 2.75,10.9 4,15.1 7,23 1.25,3.45 2.45,6.8 2.6,7.5 0.15,0.7 0.45,1.35 0.65,1.5 0.55,0.4 4,8.6 4,9.55 0,0.5 0.2,0.95 0.45,1.05 0.8,0.3 4.05,7.4 4.05,8.9 0,2.45 -0.85,1.75 -2.95,-2.4 z" id="path20" />
        <path d="m 480.5,691.8 c 0,-2.4 0.9,-8.9 1.75,-12.9 1.65,-7.4 5.05,-16.4 6.25,-16.4 0.9,0 0.5,2.8 -0.75,5.65 -2.55,5.8 -5.25,17.55 -5.25,22.9 0,2.1 -0.15,2.45 -1,2.45 -0.8,0 -1,-0.35 -1,-1.7 z" id="path21" />
        <path d="m 557.3,686.55 c -0.6,-6.55 -2.8,-14.35 -5.95,-21.3 -1.15,-2.45 -2.35,-4.8 -2.7,-5.15 -0.35,-0.35 -0.65,-1 -0.65,-1.4 0,-0.4 -0.2,-0.7 -0.5,-0.7 -0.25,0 -0.5,-0.4 -0.5,-0.95 0,-0.5 -0.45,-1.05 -1,-1.2 -0.75,-0.2 -1,-0.7 -1,-2.05 0,-1.65 -0.15,-1.8 -1.4,-1.8 -1.6,0 -4.6,-2.75 -4.6,-4.15 0,-0.6 -0.4,-0.85 -1.25,-0.85 -0.7,0 -1.4,-0.35 -1.55,-0.75 -0.2,-0.4 -0.6,-0.75 -1,-0.75 -0.4,0 -0.7,-0.35 -0.7,-0.75 0,-0.45 -0.45,-0.75 -1.25,-0.75 -0.7,0 -1.25,-0.2 -1.25,-0.5 0,-0.25 -0.4,-0.5 -0.9,-0.5 -0.55,0 -2.25,-0.45 -3.85,-1 -4.65,-1.6 -8.85,-1.75 -13.25,-0.5 -2.05,0.6 -4.5,1.2 -5.35,1.35 -0.95,0.15 -1.65,0.55 -1.65,0.95 0,0.4 -0.35,0.7 -0.75,0.7 -0.4,0 -0.75,0.25 -0.75,0.5 0,0.3 -0.35,0.5 -0.75,0.5 -0.4,0 -0.75,0.25 -0.75,0.5 0,0.3 -0.55,0.5 -1.25,0.5 -0.85,0 -1.25,0.25 -1.25,0.9 0,1.2 -0.95,2.1 -2.3,2.1 -0.85,0 -1.15,0.35 -1.3,1.4 -0.1,0.95 -0.45,1.4 -1.25,1.5 -0.85,0.15 -1.15,0.5 -1.15,1.4 0,0.65 -0.2,1.2 -0.5,1.2 -0.25,0 -0.5,0.35 -0.5,0.75 0,0.4 -0.35,0.75 -0.75,0.75 -0.4,0 -0.75,0.45 -0.75,0.95 0,0.55 -0.3,1.3 -0.7,1.65 -0.35,0.4 -0.85,1.2 -1,1.8 -0.25,0.75 -0.75,1.1 -1.6,1.1 -0.65,0 -1.2,-0.15 -1.2,-0.35 0,-0.65 2.75,-5 5.4,-8.55 7.75,-10.35 19.25,-15.8 29.55,-14.05 4.5,0.8 9.75,2.7 13,4.8 3.5,2.25 10,8.9 12.85,13.25 5.15,7.7 8.85,18.75 9.95,29.55 0.35,3.1 0.3,3.35 -0.6,3.35 -0.9,0 -1.05,-0.45 -1.35,-3.45 z" id="path22" />
        <path d="m 412.35,680.9 c -6.5,-1.4 -10.9,-7.1 -10.8,-13.85 0.05,-4.6 2.75,-8.95 7,-11.3 2.35,-1.3 3.2,-1.5 6.45,-1.5 4.45,0.05 6.75,1.05 9.8,4.35 2.85,3.05 3.9,6.1 3.6,10.05 -0.3,3.75 -1.25,5.7 -4.05,8.5 -2.1,2.1 -2.1,2.1 -2.25,0.7 -0.2,-1.45 1.05,-3.35 2.1,-3.35 0.75,0 1.85,-3.25 2.15,-6.35 0.2,-2.2 0,-3.05 -1.05,-4.95 -0.7,-1.3 -1.3,-2.85 -1.3,-3.5 0,-0.95 -0.25,-1.2 -1.2,-1.2 -0.65,0 -2.2,-0.6 -3.5,-1.3 -1.9,-1.05 -2.75,-1.25 -4.7,-1 -5.85,0.65 -6.6,0.9 -6.6,1.8 0,0.5 -0.55,1.35 -1.25,1.9 -0.7,0.55 -1.25,1.25 -1.25,1.55 0,0.3 -0.2,0.55 -0.4,0.55 -0.6,0 -1.6,3.55 -1.6,5.65 0,2.1 1.35,5.9 2.35,6.5 0.35,0.2 0.65,0.85 0.65,1.35 0,0.7 0.35,1 1.05,1 0.6,0 1.15,0.4 1.3,0.95 0.4,1.45 4.8,2.05 9.8,1.3 2.7,-0.45 3.2,0.3 1,1.4 -1.85,0.95 -5,1.25 -7.3,0.75 z" id="path23" />
        <path d="m 353,625.55 c 0,-0.85 0.3,-1.05 1.45,-1.05 2.55,0 7.35,-2.45 10.05,-5.15 1.35,-1.35 2.5,-2.7 2.5,-2.9 0,-0.25 0.2,-0.45 0.4,-0.45 0.25,0 0.95,-1.5 1.55,-3.3 0.9,-2.4 1.1,-3.9 0.9,-5.65 -0.3,-2.35 -1.75,-6.15 -2.45,-6.45 -0.25,-0.1 -0.4,-0.5 -0.4,-0.9 0,-0.4 -0.2,-0.7 -0.5,-0.7 -0.25,0 -0.5,-0.8 -0.5,-1.75 0,-1.65 -0.1,-1.75 -1.75,-1.75 -0.95,0 -1.75,-0.2 -1.75,-0.5 0,-0.25 -0.35,-0.5 -0.75,-0.5 -0.4,0 -0.75,-0.35 -0.75,-0.75 0,-0.45 -0.45,-0.75 -1.05,-0.75 -2.35,0 -4.95,-1.15 -4.95,-2.15 0,-0.85 0.25,-0.95 1.65,-0.65 7.25,1.4 14.2,8.8 15.15,16.1 1.15,9.05 -6.85,18.9 -16.25,20.05 -2.35,0.25 -2.55,0.2 -2.55,-0.8 z" id="path24" />
        <path d="m 290.8,618.4 c -0.4,-1.5 -0.4,-161.3 0,-162.75 0.2,-0.65 0.65,-1.15 1,-1.15 0.6,0 0.7,12.6 0.7,82.5 0,69.9 -0.1,82.5 -0.7,82.5 -0.35,0 -0.8,-0.5 -1,-1.1 z" id="path25" />
        <path d="M 433.25,613.15 C 429.7,612.7 424,611.3 421,610.1 c -5.85,-2.35 -13.55,-7.2 -16.7,-10.55 -1.5,-1.55 -1.5,-1.55 0.25,-1.55 1.8,0 3.95,1.6 3.95,2.9 0,0.35 0.45,0.6 1,0.6 0.55,0 1,0.25 1,0.5 0,0.3 0.35,0.5 0.75,0.5 0.4,0 0.75,0.25 0.75,0.5 0,0.3 0.35,0.5 0.75,0.5 0.4,0 0.75,0.2 0.75,0.45 0,0.25 0.55,0.6 1.25,0.75 0.8,0.2 1.25,0.65 1.25,1.3 0,0.75 0.35,1 1.45,1 0.8,0 3,0.6 4.85,1.3 4.25,1.6 11.2,3.15 14.1,3.2 1.75,0 2.1,0.15 2.1,1 0,1.05 -1.15,1.2 -5.25,0.65 z" id="path26" />
        <path d="m 443,612.55 c 0,-0.75 0.55,-0.95 3.4,-1.2 1.85,-0.2 4.7,-0.7 6.35,-1.1 3.7,-1 11.8,-4.2 12.65,-5.1 0.35,-0.35 0.9,-0.65 1.15,-0.65 0.25,0 0.95,-0.45 1.55,-1 0.6,-0.55 1.4,-1 1.75,-1 0.35,0 0.65,-0.2 0.65,-0.5 0,-0.25 0.3,-0.5 0.65,-0.5 0.35,0 0.9,-0.45 1.25,-1 0.4,-0.65 1.15,-1 2.1,-1 1.25,0 1.5,-0.2 1.5,-1.15 0,-1.2 2.35,-3.85 3.4,-3.85 0.35,0 0.6,-0.45 0.6,-1.05 0,-0.6 0.4,-1.15 1,-1.3 0.55,-0.15 1,-0.65 1,-1.15 0,-0.5 0.35,-1.25 0.75,-1.7 0.4,-0.4 0.75,-0.95 0.75,-1.25 0,-0.25 0.3,-0.8 0.65,-1.15 0.3,-0.35 1.15,-1.85 1.8,-3.25 0.7,-1.45 1.4,-2.65 1.65,-2.65 0.2,0 0.4,-0.4 0.4,-0.85 0,-0.5 0.45,-2.15 1.05,-3.65 4.05,-10.7 3.75,-24 -0.8,-34.3 -0.7,-1.55 -1.25,-3.25 -1.25,-3.75 0,-0.55 -0.2,-0.95 -0.4,-0.95 -0.55,0 -1.6,-2.3 -1.6,-3.5 0,-0.55 -0.35,-1 -0.75,-1 -0.4,0 -0.75,-0.35 -0.75,-0.75 0,-0.4 -0.2,-0.75 -0.5,-0.75 -0.25,0 -0.5,-0.3 -0.5,-0.7 0,-0.4 -0.35,-0.8 -0.75,-1 -0.4,-0.15 -0.75,-0.65 -0.75,-1.15 0,-0.5 -0.5,-1.15 -1.1,-1.4 -0.9,-0.4 -1.2,-1 -1.3,-2.5 -0.1,-2 -0.1,-2 1.95,0.25 6.9,7.45 12.35,20.55 13.2,31.75 1.1,14.1 -5.25,31.35 -15.2,41.15 -7.7,7.65 -16.7,12.5 -26.9,14.55 -6.5,1.35 -8.65,1.35 -8.65,0.1 z" id="path27" />
        <path d="m 589.3,612.5 c -14.05,-3.25 -25,-10.75 -32.85,-22.4 -1.35,-2.05 -2.45,-3.9 -2.45,-4.15 0,-0.25 0.55,-0.45 1.25,-0.45 0.9,0 1.3,0.35 1.55,1.25 0.15,0.7 0.5,1.25 0.75,1.25 0.25,0 0.45,0.35 0.45,0.75 0,0.4 0.25,0.75 0.5,0.75 0.3,0 0.5,0.4 0.5,0.95 0,0.5 0.45,1.05 1,1.2 0.6,0.15 1,0.7 1,1.3 0,0.6 0.3,1.05 0.65,1.05 0.95,0 5.85,5.15 5.85,6.15 0,0.55 0.4,0.85 1.25,0.85 0.8,0 1.25,0.3 1.25,0.75 0,0.4 0.45,0.75 1,0.75 0.55,0 1,0.25 1,0.5 0,0.3 0.35,0.5 0.75,0.5 0.4,0 0.75,0.2 0.75,0.45 0,0.25 0.55,0.6 1.25,0.75 0.7,0.2 1.25,0.65 1.25,1.05 0,0.45 0.45,0.75 1.15,0.75 0.6,0 3,0.8 5.35,1.75 2.35,0.95 6.45,2.1 9.1,2.6 4,0.7 4.9,1.05 4.9,1.75 0,1.15 -1.9,1.15 -7.2,-0.1 z" id="path28" />
        <path d="m 605.5,612.55 c 0,-0.85 0.3,-1.05 1.7,-1.05 2.1,0 10.7,-2.15 12.7,-3.2 1.7,-0.9 4.6,-1.1 4.6,-0.3 0,1.3 -9.8,4.55 -16.1,5.3 -2.75,0.3 -2.9,0.25 -2.9,-0.75 z" id="path29" />
        <path d="m 626,606.25 c 0,-0.9 0.35,-1.3 1.25,-1.55 0.7,-0.15 1.25,-0.5 1.25,-0.75 0,-0.25 0.3,-0.45 0.7,-0.45 0.4,0 0.8,-0.35 1,-0.75 0.15,-0.4 0.6,-0.75 1,-0.75 0.35,0 0.8,-0.35 1,-0.75 0.15,-0.4 0.85,-0.75 1.55,-0.75 0.9,0 1.25,-0.25 1.25,-0.9 0,-1.15 1.5,-2.6 2.65,-2.6 0.5,0 0.85,-0.4 0.85,-0.9 0,-1.15 1.5,-2.6 2.65,-2.6 0.55,0 0.85,-0.4 0.85,-1.25 0,-0.7 0.25,-1.25 0.5,-1.25 0.3,0 0.5,-0.35 0.5,-0.75 0,-0.4 0.25,-0.75 0.5,-0.75 0.3,0 0.5,-0.35 0.5,-0.75 0,-0.4 0.2,-0.75 0.45,-0.75 0.25,0 0.6,-0.55 0.75,-1.25 0.25,-0.9 0.65,-1.25 1.55,-1.25 0.7,0 1.25,0.2 1.25,0.45 0,1.25 -5.65,8.85 -9.25,12.35 -3.7,3.65 -11.15,9.2 -12.3,9.2 -0.25,0 -0.45,-0.55 -0.45,-1.25 z" id="path30" />
        <path d="m 400.35,595.5 c -5.8,-6.75 -10.3,-15.9 -12.15,-24.4 -0.95,-4.65 -0.9,-6.1 0.2,-6.1 0.7,0 1,0.7 1.5,3.9 0.35,2.1 1.05,5.05 1.6,6.5 0.55,1.45 1,3.05 1,3.6 0,0.55 0.2,1 0.4,1 0.25,0 1.1,1.4 1.9,3.15 0.8,1.7 1.6,3.2 1.85,3.25 0.2,0.1 0.35,0.4 0.35,0.65 0,0.3 0.45,0.95 1,1.55 0.55,0.6 1,1.4 1,1.75 0,0.35 0.25,0.65 0.5,0.65 0.3,0 0.5,0.45 0.5,1 0,0.55 0.3,1 0.7,1 1.15,0 1.9,1.35 1.7,3.05 -0.15,1.65 -0.15,1.65 -2.05,-0.55 z" id="path31" />
        <path d="m 324.9,591.15 c -1.4,-0.2 -1.4,-0.2 -1.4,-15.95 0,-13.1 0.1,-15.7 0.7,-15.7 1.15,0 1.35,2.05 1.3,15.9 0,7.35 0,13.6 0,13.95 0,0.45 0.95,0.55 3.4,0.35 4.1,-0.3 6.6,0.1 6.6,1.05 0,0.6 -0.9,0.75 -4.6,0.7 -2.55,-0.05 -5.25,-0.2 -6,-0.3 z" id="path32" />
        <path d="m 647.5,583.3 c 0,-0.95 0.3,-2.05 0.65,-2.4 0.35,-0.35 0.9,-1.65 1.25,-2.9 1.95,-7.05 2.6,-9.85 2.6,-11.35 0,-1.35 0.2,-1.65 1.05,-1.65 1,0 1.05,0.15 0.7,3.15 -0.65,5.7 -4.45,16.85 -5.7,16.85 -0.3,0 -0.55,-0.75 -0.55,-1.7 z" id="path33" />
        <path d="m 432.25,583.1 c -9.3,-3.3 -14.2,-9.4 -15.35,-19.2 -0.75,-6.15 -0.1,-11.15 2,-15.65 0.85,-1.8 1.8,-3.25 2.05,-3.25 0.3,0 0.55,-0.3 0.55,-0.65 0,-0.8 3.1,-3.85 3.9,-3.85 0.35,0 0.6,-0.25 0.6,-0.55 0,-0.8 5.15,-2.95 7.95,-3.3 2.1,-0.25 2.55,-0.15 2.55,0.45 0,0.5 -0.85,1 -2.35,1.4 -5.5,1.35 -11.1,6.05 -13.35,11.1 -1.35,3 -2.05,6.1 -1.3,5.65 0.3,-0.2 0.5,0.4 0.5,1.3 0,4 3.9,8.6 8.85,10.45 4.6,1.7 9.4,1.2 13.7,-1.55 4.6,-2.9 6.95,-8.65 5.85,-14.4 -0.65,-3.6 -1.85,-5.85 -4.35,-8.3 -1.15,-1.05 -2.05,-2.1 -2.05,-2.3 0,-0.15 0.95,-0.5 2.15,-0.65 1.75,-0.3 1.95,-0.45 1.2,-0.85 -0.5,-0.3 -2.6,-0.65 -4.65,-0.8 -3.25,-0.25 -3.7,-0.4 -3.7,-1.3 0,-0.9 0.25,-0.95 4.6,-0.6 7.1,0.55 13.3,3.1 16.75,6.8 1.85,2 4.6,6.95 5.35,9.65 3.5,12.6 -1.2,24 -12.05,29.2 -3.8,1.8 -4.05,1.85 -10.4,2 -5.2,0.1 -7,-0.05 -9,-0.8 z" id="path34" />
        <path d="m 625.65,559.85 c 0,13.55 -11,24.5 -24.5,24.5 -13.55,0 -24.5,-10.95 -24.5,-24.5 0,-13.5 10.95,-24.5 24.5,-24.5 13.5,0 24.5,11 24.5,24.5 z m -29.9,23.65 m 14.75,-31.15 c 0,-8.2 -6.65,-14.9 -14.9,-14.9 -8.25,0 -14.9,6.7 -14.9,14.9 0,8.25 6.65,14.95 14.9,14.95 8.25,0 14.9,-6.7 14.9,-14.95 z m -10.45,14.1" id="path35" />
        <path d="m 551.2,580.2 c -1.3,-2.95 -3.2,-10.1 -3.2,-12.05 0,-0.8 0.3,-1.15 0.95,-1.15 0.7,0 0.95,0.5 1.2,2.4 0.15,1.3 0.9,4.05 1.65,6.1 1.55,4.4 2.05,7.5 1.25,7.5 -0.35,0 -1.15,-1.25 -1.85,-2.8 z" id="path36" />
        <path d="m 547.8,565.4 c -0.45,-1.8 -0.35,-8.5 0.25,-12.7 1.75,-12.55 8.65,-25.7 17.35,-32.95 3.65,-3.05 8.95,-6.75 9.65,-6.75 0.25,0 0.45,0.55 0.45,1.25 0,0.9 -0.35,1.3 -1.25,1.55 -0.7,0.15 -1.25,0.5 -1.25,0.75 0,0.25 -0.45,0.45 -1,0.45 -0.55,0 -1,0.35 -1,0.75 0,0.4 -0.4,0.75 -0.95,0.75 -0.5,0 -1.05,0.45 -1.2,1 -0.15,0.7 -0.7,1 -1.55,1 -0.9,0 -1.3,0.25 -1.3,0.9 0,1 -2.95,4.1 -3.9,4.1 -0.35,0 -0.6,0.45 -0.6,1.05 0,0.6 -0.4,1.15 -1,1.3 -0.55,0.15 -1,0.7 -1,1.2 0,0.55 -0.2,0.95 -0.5,0.95 -0.25,0 -0.5,0.35 -0.5,0.75 0,0.4 -0.2,0.75 -0.5,0.75 -0.25,0 -0.5,0.35 -0.5,0.75 0,0.4 -0.35,0.75 -0.75,0.75 -0.4,0 -0.75,0.4 -0.75,0.85 0,0.5 -0.9,2.9 -1.95,5.4 -3.2,7.3 -4.15,11.5 -4.4,19.9 -0.2,5.45 -0.45,7.35 -0.9,7.35 -0.35,0 -0.75,-0.5 -0.95,-1.1 z" id="path37" />
        <path d="m 387.3,562.9 c -0.7,-2.7 -0.1,-6.4 1,-6.4 0.55,0 0.7,0.9 0.7,3.75 0,2.85 -0.15,3.75 -0.7,3.75 -0.35,0 -0.8,-0.5 -1,-1.1 z" id="path38" />
        <path d="m 652.5,561 c 0,-1.8 0.2,-2.5 0.7,-2.5 0.85,0 1.4,2.1 1,3.75 -0.55,2.3 -1.7,1.5 -1.7,-1.25 z" id="path39" />
        <path d="m 651.65,551.8 c -0.35,-2.05 -1.4,-5.85 -2.4,-8.45 -1.75,-4.75 -2.2,-7.35 -1.2,-7.35 1.2,0 5.15,11.45 5.75,16.8 0.3,2.45 0.25,2.7 -0.6,2.7 -0.8,0 -1.05,-0.6 -1.55,-3.7 z" id="path40" />
        <path d="m 387.5,553.3 c 0,-1.95 2.3,-10.35 3.65,-13.4 2.6,-5.8 3.15,-2.3 0.7,4.35 -0.7,1.95 -1.6,5 -1.95,6.9 -0.5,2.65 -0.8,3.35 -1.5,3.35 -0.6,0 -0.9,-0.4 -0.9,-1.2 z" id="path41" />
        <path d="m 323.5,546.05 c 0,-3 0,-3 16.4,-3.15 16.1,-0.15 16.4,-0.15 19.1,-1.35 1.5,-0.7 2.95,-1.55 3.15,-1.9 0.2,-0.35 0.95,-0.65 1.6,-0.65 1,0 1.25,-0.25 1.25,-1.3 0,-0.8 0.35,-1.4 0.9,-1.55 0.85,-0.2 1.1,-0.7 2.95,-6 0.65,-1.9 1.15,-2.65 1.85,-2.65 0.8,0 0.9,0.25 0.65,1.75 -0.8,4.85 -5.2,10.95 -9.75,13.4 -3.55,1.95 -8.05,2.4 -23.1,2.3 -14.75,-0.05 -13.25,-0.4 -13.45,3.2 -0.05,0.45 -0.4,0.85 -0.8,0.85 -0.6,0 -0.75,-0.65 -0.75,-2.95 z" id="path42" />
        <path d="m 393,536.25 c 0,-0.85 2.8,-5.6 5.35,-9 6.85,-9.25 15.4,-15 27.3,-18.45 16.75,-4.85 34.05,-1.55 47.35,9.05 4,3.2 4.15,3.4 2.85,3.55 -2,0.25 -2.85,-0.2 -2.85,-1.4 0,-0.75 -0.35,-1 -1.25,-1 -0.7,0 -1.25,-0.2 -1.25,-0.5 0,-0.25 -0.35,-0.5 -0.75,-0.5 -0.45,0 -0.9,-0.35 -1.05,-0.75 -0.2,-0.4 -0.6,-0.75 -0.95,-0.75 -0.4,0 -1,-0.3 -1.35,-0.65 -1.2,-1.15 -9.9,-4.9 -13.8,-5.9 -8.7,-2.35 -19.75,-1.7 -28.75,1.6 -2.25,0.85 -4.65,1.65 -5.35,1.8 -0.65,0.2 -1.55,0.6 -1.9,1 -0.35,0.35 -1.2,0.65 -1.9,0.65 -0.75,0 -1.2,0.3 -1.2,0.75 0,0.4 -0.35,0.75 -0.75,0.75 -0.4,0 -0.75,0.25 -0.75,0.5 0,0.3 -0.3,0.5 -0.7,0.5 -0.4,0 -0.8,0.35 -1,0.75 -0.15,0.4 -0.65,0.75 -1.15,0.75 -0.5,0 -1.15,0.5 -1.4,1.15 -0.35,0.8 -1,1.15 -2.35,1.25 -1.8,0.15 -1.9,0.25 -1.9,1.85 0,1.15 -0.35,1.95 -1.15,2.6 -0.65,0.5 -1.3,1.3 -1.5,1.8 -0.15,0.45 -0.65,0.85 -1.1,0.85 -0.4,0 -0.75,0.45 -0.75,1 0,0.55 -0.2,1 -0.5,1 -0.25,0 -0.5,0.35 -0.5,0.75 0,0.4 -0.15,0.75 -0.35,0.75 -0.25,0 -0.8,1 -1.3,2.25 -0.75,1.8 -1.2,2.25 -2.15,2.25 -0.65,0 -1.2,-0.1 -1.2,-0.25 z" id="path43" />
        <path d="m 644.5,532.75 c 0,-0.4 -0.2,-0.75 -0.5,-0.75 -0.25,0 -0.5,-0.35 -0.5,-0.75 0,-0.4 -0.2,-0.75 -0.5,-0.75 -0.25,0 -0.5,-0.35 -0.5,-0.75 0,-0.4 -0.2,-0.75 -0.5,-0.75 -0.25,0 -0.5,-0.55 -0.5,-1.25 0,-0.85 -0.25,-1.25 -0.9,-1.25 -1.4,0 -2.1,-1.05 -2.1,-2.95 0.05,-1.8 0.05,-1.8 2.1,0.45 2.05,2.3 5.7,7.4 6.2,8.75 0.25,0.55 -0.05,0.75 -1,0.75 -0.8,0 -1.3,-0.3 -1.3,-0.75 z" id="path44" />
        <path d="m 369.5,524.7 c 0,-1.2 -2.6,-6.9 -3.35,-7.35 -0.35,-0.2 -0.65,-1.2 -0.65,-2.2 0,-1.8 0,-1.8 1.25,-0.65 1.6,1.5 4.2,6.65 4.6,9.15 0.25,1.65 0.15,1.85 -0.8,1.85 -0.65,0 -1.05,-0.3 -1.05,-0.8 z" id="path45" />
        <path d="M 634.35,521.15 C 634.15,521 634,520.4 634,519.9 c 0,-0.65 -0.35,-0.9 -1.25,-0.9 -0.7,0 -1.4,-0.35 -1.55,-0.75 -0.2,-0.4 -0.6,-0.75 -1,-0.75 -0.4,0 -0.7,-0.2 -0.7,-0.5 0,-0.25 -0.35,-0.5 -0.75,-0.5 -0.4,0 -0.75,-0.35 -0.75,-0.75 0,-0.4 -0.45,-0.75 -1,-0.75 -0.55,0 -2.55,-0.75 -4.4,-1.7 -4.1,-2.05 -10.7,-4.2 -14.35,-4.6 -2.3,-0.3 -2.75,-0.5 -2.75,-1.35 0,-0.9 0.2,-0.95 2.85,-0.6 9.25,1.15 20.7,6.4 27.65,12.7 2.25,2 2.25,2 0.45,2.05 -1,0 -1.95,-0.15 -2.1,-0.35 z" id="path46" />
        <path d="m 361.4,512.6 c -0.25,-0.65 -5.25,-2.6 -6.6,-2.6 -1,0 -1.3,-0.25 -1.3,-1.05 0,-1 0.2,-1.05 2.4,-0.75 2.7,0.35 7,2.3 8.35,3.8 0.9,1 0.85,1 -0.9,1 -0.95,0 -1.85,-0.2 -1.95,-0.4 z" id="path47" />
        <path d="m 578,511.95 c 0,-1.25 9.6,-4.4 15.9,-5.25 2.45,-0.3 2.6,-0.25 2.6,0.75 0,0.8 -0.3,1.05 -1.35,1.05 -2.15,0 -12.3,2.6 -13.05,3.35 -0.8,0.8 -4.1,0.85 -4.1,0.1 z" id="path48" />
        <path d="m 323.5,500.25 c 0,-7.55 0.15,-9.25 0.7,-9.25 1.05,0 1.3,1.65 1.3,9.65 0,6.2 0.1,7.35 0.75,7.35 0.4,0 0.75,0.35 0.75,0.75 0,0.5 -0.55,0.75 -1.75,0.75 -1.75,0 -1.75,0 -1.75,-9.25 z" id="path49" />
        <path d="m 598.5,507.3 c 0,-0.4 0.7,-0.85 1.5,-1.05 2,-0.45 4.5,0.15 4.5,1.05 0,0.5 -0.75,0.7 -3,0.7 -2.25,0 -3,-0.2 -3,-0.7 z" id="path50" />
        <path d="m 323.5,461.25 c 0,-1.75 0,-1.75 19.5,-1.75 19.15,0 19.5,0 19.5,1 0,1 -0.35,1 -18.75,1 -16.35,0 -18.75,0.1 -18.75,0.75 0,0.4 -0.35,0.75 -0.75,0.75 -0.5,0 -0.75,-0.55 -0.75,-1.75 z" id="path51" />
        <path d="m 716,462.25 c 0,-0.5 -0.5,-0.75 -1.5,-0.75 -1.15,0 -1.5,-0.2 -1.5,-1 0,-0.85 0.35,-1 2.25,-1 2.25,0 2.25,0 2.25,1.75 0,1.2 -0.25,1.75 -0.75,1.75 -0.4,0 -0.75,-0.35 -0.75,-0.75 z" id="path52" />
        <path d="m 379.5,460.5 c 0,-0.95 0.35,-1 10.5,-1 10.15,0 10.5,0.05 10.5,1 0,0.95 -0.35,1 -10.5,1 -10.15,0 -10.5,-0.05 -10.5,-1 z" id="path53" />
        <path d="m 405,460.5 c 0,-0.9 0.35,-1 3.25,-1 2.9,0 3.25,0.1 3.25,1 0,0.9 -0.35,1 -3.25,1 -2.9,0 -3.25,-0.1 -3.25,-1 z" id="path54" />
        <path d="m 430.5,460.5 c 0,-0.9 0.35,-1 3.25,-1 2.9,0 3.25,0.1 3.25,1 0,0.9 -0.35,1 -3.25,1 -2.9,0 -3.25,-0.1 -3.25,-1 z" id="path55" />
        <path d="m 461.5,460.5 c 0,-0.95 0.35,-1 11.25,-1 10.9,0 11.25,0.05 11.25,1 0,0.95 -0.35,1 -11.25,1 -10.9,0 -11.25,-0.05 -11.25,-1 z" id="path56" />
        <path d="m 528,460.5 c 0,-1 0.35,-1 27.75,-1 27.4,0 27.75,0 27.75,1 0,1 -0.35,1 -27.75,1 -27.4,0 -27.75,0 -27.75,-1 z" id="path57" />
        <path d="m 616.5,460.5 c 0,-1 0.35,-1 35,-1 34.65,0 35,0 35,1 0,1 -0.35,1 -35,1 -34.65,0 -35,0 -35,-1 z" id="path58" />
        <path d="m 291.2,441.95 c 0.45,-2.9 2.15,-6.65 3.6,-8 1.2,-1.1 1.2,-1.1 1.2,0.35 0,0.8 -0.7,2.8 -1.5,4.4 -0.85,1.6 -1.5,3.45 -1.5,4.1 0,0.9 -0.3,1.2 -1.05,1.2 -1,0 -1.05,-0.2 -0.75,-2.05 z" id="path59" />
        <path d="m 298,430.95 c 0.95,-0.8 3.2,-1.95 5,-2.5 3.05,-0.9 4.5,-0.95 23.35,-0.85 20.05,0.15 20.05,0.15 20.3,-30.6 0.1,-16.9 0.35,-31.25 0.6,-31.85 0.2,-0.65 0.7,-1.15 1.15,-1.15 0.65,0 0.7,0.75 0.45,5.35 -0.2,2.9 -0.35,17.65 -0.35,32.75 0,27.4 0,27.4 -21.1,27.4 -20.5,0 -21.25,0 -24.25,1.1 -1.75,0.6 -3.15,1.25 -3.15,1.5 0,0.2 -0.85,0.4 -1.85,0.4 -1.9,-0.05 -1.9,-0.05 -0.15,-1.55 z" id="path60" />
        <path d="m 741,431.6 c 0,-0.45 -4.85,-2.1 -6.15,-2.1 -0.55,0 -0.85,-0.4 -0.85,-1.05 0,-1 0.2,-1.05 2.35,-0.7 2.8,0.4 6.2,1.9 7.45,3.3 0.85,0.9 0.8,0.95 -0.95,0.95 -1.05,0 -1.85,-0.2 -1.85,-0.4 z" id="path61" />
        <path d="m 444,427.75 c 0,-0.95 0.25,-1.75 0.5,-1.75 0.3,0 0.5,0.35 0.5,0.75 0,0.65 6.4,0.75 54.75,0.75 54.4,0 54.75,0 54.75,1 0,1 -0.35,1 -55.25,1 -55.25,0 -55.25,0 -55.25,-1.75 z" id="path62" />
        <path d="m 593,428.55 c 0,-0.8 0.3,-1.05 1.25,-1.05 1.15,0 1.25,-0.2 1.25,-2.25 0,-1.95 0.15,-2.25 1,-2.25 0.95,0 1.05,0.25 0.9,3.15 -0.15,3.1 -0.15,3.1 -2.25,3.25 -1.9,0.15 -2.15,0.05 -2.15,-0.85 z" id="path63" />
        <path d="m 379,423.75 c 0,-4.15 0.15,-5.25 0.7,-5.25 0.9,0 1.3,1.6 1.3,5.65 0,2.65 0.15,3.35 0.75,3.35 0.4,0 0.75,0.35 0.75,0.75 0,0.5 -0.55,0.75 -1.75,0.75 -1.75,0 -1.75,0 -1.75,-5.25 z" id="path64" />
        <path d="m 400,428.25 c 0,-0.4 0.3,-0.75 0.65,-0.75 0.45,0 0.65,-5.9 0.75,-27.4 0.15,-30.05 0.45,-34.5 3.15,-45.35 5.2,-20.8 11.8,-33.85 24.95,-49.25 11.8,-13.85 24.85,-23.95 40.75,-31.55 16.75,-7.95 32.75,-11.65 50.5,-11.6 14.8,0.05 25.1,1.9 39.25,7.05 12.2,4.5 17.7,7.5 32.2,17.55 3,2.1 5.2,2.85 2.6,0.9 -0.85,-0.6 -3.75,-3.15 -6.5,-5.6 -7.45,-6.65 -25.6,-22.25 -28.05,-24.1 -3.1,-2.3 -3.1,-2.55 -0.15,-2.9 3.4,-0.4 10.35,0.45 16.4,2.05 8.55,2.25 23.45,10.3 33.9,18.35 7.2,5.55 7.15,5.5 6.85,4.75 -0.65,-1.7 -13.2,-11.85 -21.1,-17 -13.45,-8.85 -25.7,-14.25 -42.15,-18.6 -5.7,-1.5 -14.05,-3.1 -18.5,-3.55 -4.85,-0.45 -6,-0.75 -6,-1.55 0,-0.5 0.6,-0.7 2.15,-0.7 2.65,0 14,1.65 18.6,2.75 11.75,2.7 28.75,8.65 28.75,10.05 0,0.45 0.55,0.7 1.45,0.7 2.1,0 3.05,0.5 3.05,1.55 0,0.7 0.35,0.95 1.5,0.95 1.5,0 4,0.9 4,1.5 0,0.15 0.8,0.6 1.75,0.95 0.95,0.35 1.75,0.85 1.75,1.1 0,0.25 0.35,0.45 0.75,0.45 0.4,0 0.75,0.25 0.75,0.5 0,0.3 0.35,0.5 0.75,0.5 0.4,0 0.75,0.2 0.75,0.45 0,0.25 0.55,0.6 1.25,0.75 0.7,0.2 1.25,0.55 1.25,0.8 0,0.3 0.35,0.5 0.75,0.5 0.4,0 0.75,0.25 0.75,0.5 0,0.3 0.35,0.5 0.75,0.5 0.45,0 0.9,0.35 1.05,0.75 0.2,0.4 0.6,0.75 1,0.75 0.4,0 0.7,0.35 0.7,0.75 0,0.4 0.45,0.75 1,0.75 0.55,0 1,0.35 1,0.75 0,0.4 0.45,0.75 1,0.75 0.55,0 1,0.35 1,0.75 0,0.45 0.45,0.75 1.05,0.75 0.6,0 1.15,0.4 1.3,0.95 0.15,0.55 0.75,1.05 1.35,1.15 0.65,0.1 1.1,0.55 1.2,1.3 0.1,0.75 0.5,1.1 1.3,1.1 1.3,0 3.1,1.75 3.4,3.25 0.1,0.55 0.6,1.05 1.15,1.15 0.55,0.1 1.95,1.1 3.15,2.25 1.65,1.6 2.1,2.4 2.1,3.7 0,1.55 -0.1,1.65 -1.7,1.65 -1.35,0 -2.7,-0.8 -6.8,-4 -4.8,-3.75 -5.2,-3.95 -5.7,-3.05 -0.3,0.55 -1.65,2.4 -3,4.15 -2.35,2.95 -3.75,5.7 -3.8,7.35 0,0.4 1.5,2.3 3.4,4.25 10.75,11.35 19.35,24.15 25.05,37.5 3.75,8.7 5.9,16.45 7.65,27.4 0.95,6.05 1.05,9.4 1.25,38.05 0.25,31.35 0.25,31.35 -5.5,31.35 -5.8,0 -5.8,0 -5.95,-30.6 -0.2,-30.65 -0.2,-30.65 -1.5,-37.4 -2.5,-12.6 -5.7,-21.45 -11.4,-31.35 -11.9,-20.7 -26.5,-35 -46.5,-45.55 -23.35,-12.35 -46.95,-15.1 -73.25,-8.65 -18.7,4.6 -35.5,14 -49.05,27.35 -16.1,16 -26.2,33.15 -31.1,53.2 -2.85,11.5 -3.1,15.2 -3.1,45.55 0,27.45 0,27.45 -6,27.45 -5,0 -6,-0.1 -6,-0.75 z" id="path65" />
        <path d="m 443,413 c 0,-8.2 0.15,-10 0.7,-10 1.1,0 1.3,1.7 1.3,11.15 0,8.5 -0.05,8.85 -1,8.85 -0.95,0 -1,-0.35 -1,-10 z" id="path66" />
        <path d="m 692,390.5 c 0,-17.95 0.1,-21.5 0.7,-21.5 0.35,0 0.8,0.5 1,1.15 0.15,0.6 0.3,10.25 0.3,21.5 0,20 0,20.35 -1,20.35 -1,0 -1,-0.35 -1,-21.5 z" id="path67" />
        <path d="m 443.1,382.9 c 0.25,-17.1 0.65,-20.3 3.45,-28.3 1.9,-5.4 5.45,-13.1 6,-13.1 0.25,0 0.45,-0.3 0.45,-0.7 0,-0.4 0.3,-1.05 0.65,-1.4 0.3,-0.35 1.05,-1.5 1.55,-2.55 0.55,-1.05 1.5,-2.45 2.15,-3.15 0.65,-0.7 1.15,-1.45 1.15,-1.75 0,-0.25 0.35,-0.45 0.75,-0.45 0.4,0 0.75,-0.4 0.75,-0.9 0,-1.15 0.95,-2.1 2.1,-2.1 0.6,0 0.9,-0.4 0.9,-1.15 0,-1.65 4.4,-5.85 6.1,-5.85 1.1,0 1.35,-0.25 1.5,-1.35 0.1,-1 0.45,-1.45 1.2,-1.55 0.6,-0.1 1.2,-0.6 1.35,-1.15 0.15,-0.55 0.75,-1.15 1.3,-1.3 0.6,-0.15 1.05,-0.45 1.05,-0.7 0,-0.25 0.35,-0.45 0.75,-0.45 0.4,0 0.75,-0.2 0.75,-0.5 0,-0.25 0.35,-0.5 0.75,-0.5 0.4,0 0.75,-0.2 0.75,-0.4 0,-0.65 4.75,-3.1 5.95,-3.1 0.55,0 1.05,-0.3 1.05,-0.7 0,-0.85 8.1,-4.25 14.25,-6 17.4,-4.9 37.35,-3.15 54.3,4.8 3,1.4 5.45,2.7 5.45,2.9 0,0.2 0.55,0.55 1.25,0.7 0.7,0.2 1.25,0.55 1.25,0.8 0,0.3 0.35,0.5 0.75,0.5 0.4,0 0.75,0.25 0.75,0.5 0,0.3 0.35,0.5 0.8,0.5 0.45,0 0.9,0.45 1.05,1 0.15,0.55 0.7,1 1.2,1 0.55,0 0.95,0.3 0.95,0.7 0,0.4 0.5,0.8 1.15,0.9 0.7,0.1 1.15,0.55 1.25,1.3 0.1,0.75 0.5,1.1 1.3,1.1 0.65,0 2.1,1.05 3.7,2.65 2.05,2.05 2.6,3 2.6,4.2 0,1.4 0.15,1.6 1.65,1.75 1.2,0.1 1.65,0.4 1.75,1.3 0.1,0.6 0.5,1.1 0.9,1.1 0.4,0 0.7,0.3 0.7,0.7 0,0.4 0.35,0.8 0.75,1 0.4,0.15 0.75,0.6 0.75,1.05 0,0.4 0.25,0.75 0.5,0.75 0.3,0 0.5,0.55 0.5,1.25 0,0.75 0.3,1.25 0.7,1.25 0.75,0 1.3,1.05 1.3,2.55 0,0.5 0.3,0.95 0.7,0.95 1.1,0 5.8,11.45 7.5,18.25 1.7,6.9 2.3,15.25 1.1,15.25 -0.8,0 -1.3,-1.5 -1.3,-4.05 -0.05,-8.7 -6.5,-26.2 -13.25,-35.7 -3.6,-5.1 -11.25,-12.8 -16.9,-17.05 -8.15,-6.15 -20.1,-11.45 -30.45,-13.45 -5.8,-1.15 -16.1,-1.5 -22.4,-0.8 -27.65,3.25 -51.75,22.25 -62.5,49.3 -3.7,9.35 -4.45,14.4 -4.55,31.5 -0.05,13 -0.15,14.25 -1.3,14.25 -0.65,0 -0.75,-2 -0.55,-15.6 z" id="path68" />
        <path d="m 379,370.75 c 0,-11.55 3.35,-27.3 8.8,-41.15 2.8,-7.2 7.2,-16.6 7.8,-16.6 0.2,0 0.4,-0.3 0.4,-0.7 0,-0.4 0.3,-1.05 0.65,-1.4 0.3,-0.35 1.15,-1.75 1.8,-3.05 0.65,-1.3 1.4,-2.35 1.6,-2.35 0.25,0 0.45,-0.35 0.45,-0.75 0,-0.4 0.25,-0.75 0.5,-0.75 0.3,0 0.5,-0.25 0.5,-0.6 0,-0.75 5,-8.4 5.5,-8.4 0.2,0 0.5,-0.45 0.65,-1 0.15,-0.55 0.6,-1 1.05,-1 0.5,0 0.8,-0.4 0.8,-1.05 0,-0.6 0.4,-1.15 1,-1.3 0.55,-0.15 1,-0.65 1,-1.1 0,-1.1 0.95,-2.05 2.1,-2.05 0.6,0 0.9,-0.4 0.9,-1.15 0,-1.5 4.4,-5.85 5.9,-5.85 0.8,0 1.1,-0.3 1.1,-1.15 0,-1.45 3.4,-4.85 4.9,-4.85 0.75,0 1.1,-0.3 1.1,-0.9 0,-0.85 1.4,-2.6 2.1,-2.6 0.15,0 1.1,-0.75 2.1,-1.65 1,-0.95 2.45,-2 3.2,-2.4 0.75,-0.4 1.55,-1 1.75,-1.3 0.2,-0.35 0.6,-0.65 0.9,-0.65 0.25,0 0.95,-0.45 1.55,-1 0.6,-0.55 1.4,-1 1.75,-1 0.35,0 0.65,-0.2 0.65,-0.5 0,-0.25 0.25,-0.5 0.5,-0.5 0.3,0 0.95,-0.4 1.5,-0.85 0.5,-0.5 2,-1.45 3.35,-2.15 1.3,-0.7 2.7,-1.55 3.05,-1.9 0.35,-0.3 0.95,-0.6 1.35,-0.6 0.35,0 0.75,-0.2 0.85,-0.45 0.2,-0.6 6.4,-3.65 13.3,-6.6 11.1,-4.75 23.1,-7.95 36.25,-9.7 7.55,-0.95 9.85,-1 9.85,0 0,0.75 -0.55,0.9 -7.75,1.75 -32.65,4 -62.6,19.2 -85.3,43.25 -7.05,7.45 -11.9,14 -18.75,25.3 -10.6,17.5 -18.65,42.6 -18.7,58.45 0,4.4 -0.35,6 -1.3,6 -0.55,0 -0.7,-0.9 -0.7,-3.75 z" id="path69" />
        <path d="m 691.3,363.15 c -1.3,-13.05 -6.25,-32.05 -11.8,-45.4 -1.15,-2.75 -2.25,-5.55 -2.4,-6.25 -0.15,-0.7 -0.4,-1.35 -0.6,-1.5 -0.7,-0.5 -4.5,-8.5 -4.5,-9.5 0,-0.55 -0.3,-1 -0.7,-1 -0.35,0 -1,-0.75 -1.35,-1.6 -0.35,-0.9 -0.95,-1.95 -1.3,-2.3 -0.35,-0.35 -0.65,-1 -0.65,-1.4 0,-0.4 -0.2,-0.7 -0.5,-0.7 -0.25,0 -0.5,-0.35 -0.5,-0.75 0,-0.4 -0.2,-0.75 -0.5,-0.75 -0.25,0 -0.6,-0.55 -0.8,-1.25 -0.15,-0.7 -0.5,-1.25 -0.75,-1.25 -0.25,0 -0.45,-0.35 -0.45,-0.75 0,-0.4 -0.2,-0.75 -0.5,-0.75 -0.25,0 -0.5,-0.35 -0.5,-0.75 0,-0.4 -0.2,-0.75 -0.5,-0.75 -0.25,0 -0.5,-0.25 -0.5,-0.5 0,-0.3 -0.45,-1 -1,-1.6 -0.55,-0.6 -1,-1.4 -1,-1.75 0,-0.35 -0.2,-0.65 -0.5,-0.65 -0.25,0 -0.5,-0.35 -0.5,-0.75 0,-0.4 -0.2,-0.75 -0.5,-0.75 -0.25,0 -0.5,-0.45 -0.5,-1 0,-0.55 -0.35,-1 -0.75,-1 -0.4,0 -0.75,-0.3 -0.75,-0.7 0,-0.4 -0.35,-0.8 -0.75,-1 -0.4,-0.15 -0.75,-0.55 -0.75,-0.9 0,-0.35 -0.45,-0.95 -1,-1.3 -0.55,-0.35 -1,-1.05 -1,-1.55 0,-0.5 -0.45,-1.05 -1,-1.2 -0.55,-0.15 -1,-0.65 -1,-1.2 0,-0.5 -0.5,-1.15 -1.1,-1.4 -0.85,-0.35 -1.2,-1 -1.3,-2.35 -0.15,-1.7 -0.3,-1.9 -1.55,-1.9 -1.85,0 -3.05,-1.4 -3.05,-3.55 0.05,-1.7 0.05,-1.7 2.6,1.05 7.35,8 13,15.5 20,26.5 13.55,21.35 21.8,43.8 25.65,69.95 1,6.85 0.95,7.55 -0.2,7.55 -0.75,0 -0.95,-0.55 -1.25,-3.35 z" id="path70" />
        <path d="m 347.5,361.95 c 0,-4.6 4,-23.2 7,-32.7 7.55,-23.7 21.85,-48.05 39.15,-66.5 3.3,-3.5 3.3,-3.5 3.35,-1.7 0,2.05 -2.1,4.45 -3.9,4.45 -0.9,0 -1.1,0.3 -1.1,1.4 0,1.45 -1.3,3.1 -2.4,3.1 -0.35,0 -0.6,0.45 -0.6,1.05 0,0.6 -0.4,1.15 -1,1.3 -0.55,0.15 -1,0.7 -1,1.25 0,0.55 -0.45,1.1 -1,1.25 -0.55,0.15 -1,0.7 -1,1.25 0,0.55 -0.45,1.1 -1,1.25 -0.55,0.15 -1,0.7 -1,1.2 0,0.55 -0.35,1.1 -0.75,1.25 -0.4,0.2 -0.75,0.6 -0.75,1 0,0.4 -0.2,0.7 -0.5,0.7 -0.25,0 -0.5,0.3 -0.5,0.7 0,0.35 -0.55,1.25 -1.25,2 -0.7,0.75 -1.25,1.55 -1.25,1.85 0,0.25 -0.2,0.45 -0.5,0.45 -0.25,0 -0.5,0.35 -0.5,0.75 0,0.4 -0.2,0.75 -0.45,0.75 -0.25,0 -0.55,0.5 -0.75,1.15 -0.15,0.6 -0.7,1.6 -1.3,2.2 -0.55,0.6 -1,1.3 -1,1.6 0,0.25 -0.15,0.55 -0.35,0.65 -0.25,0.1 -0.95,1.2 -1.65,2.55 -0.65,1.3 -1.5,2.35 -1.85,2.35 -0.35,0 -0.65,0.4 -0.65,0.9 0,0.55 -1.65,4.4 -3.7,8.65 -4.3,9.1 -7.1,16.05 -9.45,23.95 -2.25,7.45 -5.15,20.45 -5.95,26.65 -0.5,4.1 -0.75,4.85 -1.5,4.85 -0.7,0 -0.9,-0.4 -0.9,-1.55 z" id="path71" />
        <path d="m 399.5,256.7 c 3.75,-3.8 11.35,-10 19.2,-15.6 27.6,-19.55 56.05,-30.1 88.7,-32.9 3.85,-0.3 4.1,-0.25 4.1,0.65 0,0.9 -0.45,1.05 -4.35,1.3 -15.85,1.2 -38,6.7 -52.5,13.05 -2.25,1 -4.4,1.8 -4.8,1.8 -0.45,0 -0.85,0.2 -0.95,0.45 -0.3,0.8 -6.35,3.55 -7.9,3.55 -1.1,0 -1.5,0.25 -1.5,0.9 0,1 -2.8,2.6 -4.5,2.6 -0.55,0 -1,0.35 -1,0.75 0,0.4 -0.35,0.75 -0.75,0.75 -0.4,0 -0.75,0.2 -0.75,0.5 0,0.25 -0.55,0.6 -1.25,0.8 -0.7,0.15 -1.25,0.5 -1.25,0.7 0,0.25 -0.45,0.6 -1,0.75 -0.55,0.2 -1.6,0.85 -2.35,1.55 -0.7,0.65 -1.6,1.2 -1.95,1.2 -0.4,0 -0.7,0.25 -0.7,0.5 0,0.3 -0.35,0.5 -0.75,0.5 -0.4,0 -0.75,0.25 -0.75,0.5 0,0.3 -0.3,0.5 -0.7,0.5 -0.4,0 -0.8,0.35 -1,0.75 -0.15,0.4 -0.6,0.75 -1.05,0.75 -0.4,0 -0.75,0.25 -0.75,0.5 0,0.3 -0.3,0.5 -0.7,0.5 -0.4,0 -0.8,0.35 -1,0.75 -0.15,0.4 -0.6,0.75 -1.05,0.75 -0.4,0 -0.75,0.25 -0.75,0.5 0,0.3 -0.3,0.5 -0.7,0.5 -0.4,0 -0.8,0.35 -1,0.75 -0.15,0.4 -0.7,0.75 -1.25,0.75 -0.5,0 -1.05,0.45 -1.2,1 -0.15,0.55 -0.65,1 -1.2,1 -0.5,0 -1.15,0.5 -1.4,1.15 -0.3,0.65 -1.05,1.15 -1.85,1.25 -0.95,0.1 -1.4,0.45 -1.4,1.05 0,0.45 -1.1,1.9 -2.4,3.2 -1.9,1.9 -2.75,2.35 -4.1,2.35 -1.7,0 -1.7,0 0.5,-2.3 z" id="path72" />
        <path d="m 634.85,253.6 c -0.5,-0.5 -0.85,-1.3 -0.85,-1.75 0,-0.6 -0.4,-0.85 -1.3,-0.85 -0.85,0 -1.4,-0.3 -1.55,-1 -0.15,-0.55 -0.7,-1 -1.25,-1 -0.55,0 -1.1,-0.45 -1.25,-1 -0.15,-0.55 -0.7,-1 -1.2,-1 -0.55,0 -0.95,-0.2 -0.95,-0.5 0,-0.25 -0.35,-0.5 -0.75,-0.5 -0.45,0 -0.9,-0.35 -1.05,-0.75 -0.2,-0.4 -0.6,-0.75 -1,-0.75 -0.4,0 -0.95,-0.45 -1.3,-1 -0.35,-0.55 -0.9,-1 -1.25,-1 -0.35,0 -0.65,-0.2 -0.65,-0.5 0,-0.25 -0.35,-0.5 -0.75,-0.5 -0.4,0 -0.75,-0.2 -0.75,-0.5 0,-0.25 -0.35,-0.5 -0.75,-0.5 -0.4,0 -0.75,-0.2 -0.75,-0.5 0,-0.25 -0.35,-0.5 -0.75,-0.5 -0.4,0 -0.75,-0.2 -0.75,-0.5 0,-0.25 -0.35,-0.5 -0.75,-0.5 -0.4,0 -0.75,-0.2 -0.75,-0.5 0,-0.25 -0.35,-0.5 -0.75,-0.5 -0.4,0 -0.75,-0.2 -0.75,-0.5 0,-0.25 -0.35,-0.5 -0.75,-0.5 -0.4,0 -0.75,-0.2 -0.75,-0.5 0,-0.25 -0.3,-0.5 -0.7,-0.5 -0.4,0 -1.05,-0.3 -1.4,-0.65 -0.35,-0.35 -1.4,-0.95 -2.25,-1.3 -0.9,-0.35 -1.65,-0.8 -1.65,-1 0,-0.2 -0.8,-0.65 -1.75,-1 -1.2,-0.4 -1.75,-0.95 -1.75,-1.6 0,-0.75 -0.35,-0.95 -1.5,-0.95 -0.85,0 -3.7,-1.1 -6.4,-2.45 -15.65,-7.8 -37.5,-14.25 -53.7,-15.85 -2.85,-0.3 -3.4,-0.5 -3.4,-1.25 0,-1.15 0.35,-1.15 7.6,-0.2 19.25,2.65 39.55,9.3 57,18.7 12.25,6.6 27.3,16.95 35.15,24.2 2.5,2.3 2.5,2.3 0.7,2.35 -1.1,0 -2.1,-0.35 -2.6,-0.9 z" id="path73" />
        <path d="m 515,239.5 c 0,-0.95 0.35,-1 6,-1 5.65,0 6,0.05 6,1 0,0.95 -0.35,1 -6,1 -5.65,0 -6,-0.05 -6,-1 z" id="path74" />
        <path d="m 530.5,209 c 0,-0.8 0.35,-1 1.9,-1 2.6,0 4.1,0.5 4.1,1.3 0,0.5 -0.8,0.7 -3,0.7 -2.65,0 -3,-0.1 -3,-1 z" id="path75" />
    </g>
    <g fill="#423b78" id="g173" transform="translate(-290.5,-208)">
        <path d="m 508.4,826.15 c -0.5,-0.1 -0.9,-0.55 -0.9,-0.95 0,-0.5 0.7,-0.7 2.75,-0.7 2.4,0 2.75,0.1 2.75,1 0,0.85 -0.3,1 -1.85,0.95 -1.05,-0.05 -2.3,-0.15 -2.75,-0.3 z" id="path76" />
        <path d="m 530,825.55 c 0,-0.85 0.3,-1.05 1.65,-1.05 0.85,0 3.1,-0.15 5,-0.35 2.8,-0.25 3.35,-0.15 3.35,0.45 0,0.95 -1,1.2 -6.1,1.65 -3.75,0.35 -3.9,0.35 -3.9,-0.7 z" id="path77" />
        <path d="m 501.25,825.65 c -3.95,-0.45 -4.75,-0.7 -4.75,-1.5 0,-0.7 0.5,-0.75 3.4,-0.5 1.85,0.2 3.85,0.35 4.5,0.35 0.75,0 1.1,0.3 1.1,1 0,1.05 -0.55,1.1 -4.25,0.65 z" id="path78" />
        <path d="m 540.5,824.55 c 0,-0.75 0.5,-1 2.65,-1.25 9.7,-1.25 30.8,-5.6 38.8,-8.05 2.35,-0.7 4.75,-1.25 5.4,-1.25 0.65,0 1.15,-0.2 1.15,-0.4 0,-0.25 0.95,-0.7 2.15,-1.05 1.15,-0.35 5.75,-2.1 10.2,-3.85 4.45,-1.75 8.35,-3.2 8.65,-3.2 0.3,0 0.9,-0.35 1.3,-0.75 0.85,-0.85 4.2,-1.05 4.2,-0.25 0,0.65 -4.45,2.7 -13.5,6.25 -16.4,6.4 -28.1,9.4 -54,13.75 -7.05,1.2 -7,1.2 -7,0.05 z" id="path79" />
        <path d="m 491,824.4 c -1.5,-0.25 -5.45,-0.9 -8.75,-1.45 -17.35,-2.85 -40.8,-10.3 -58.1,-18.45 -5.25,-2.5 -6.3,-3.5 -3.65,-3.5 1.55,0 6.6,2.25 6.9,3.05 0.1,0.25 0.7,0.45 1.35,0.45 0.65,0 1.5,0.35 1.95,0.75 0.4,0.4 1.2,0.75 1.75,0.75 0.55,0 1.3,0.35 1.75,0.75 0.4,0.4 1.2,0.75 1.75,0.75 0.6,0 1.05,0.25 1.05,0.5 0,0.3 0.55,0.5 1.25,0.5 0.7,0 1.25,0.2 1.25,0.45 0,0.25 0.9,0.55 2,0.75 1.1,0.15 2,0.55 2,0.8 0,0.3 0.4,0.5 0.85,0.5 0.45,0 4.25,1.1 8.45,2.5 12.7,4.15 27.65,7.7 38.35,9 4.2,0.55 4.85,0.75 4.85,1.55 0,1.05 -0.6,1.1 -5,0.35 z" id="path80" />
        <path d="m 616,803.35 c 0,-0.95 0.95,-1.6 5.75,-4 3.15,-1.55 6.2,-2.85 6.75,-2.85 0.55,0 1,-0.3 1,-0.7 0,-0.35 0.75,-1 1.65,-1.35 0.85,-0.35 1.9,-0.95 2.25,-1.3 0.35,-0.35 1,-0.65 1.4,-0.65 0.4,0 0.7,-0.2 0.7,-0.5 0,-0.25 0.35,-0.5 0.75,-0.5 0.4,0 0.75,-0.2 0.75,-0.5 0,-0.25 0.55,-0.6 1.25,-0.8 0.7,-0.15 1.25,-0.5 1.25,-0.75 0,-0.25 0.35,-0.45 0.75,-0.45 0.4,0 0.75,-0.2 0.75,-0.5 0,-0.25 0.35,-0.5 0.75,-0.5 0.4,0 0.75,-0.2 0.75,-0.5 0,-0.25 0.35,-0.5 0.75,-0.5 0.4,0 0.75,-0.2 0.75,-0.5 0,-0.25 0.35,-0.5 0.75,-0.5 0.4,0 0.75,-0.2 0.75,-0.5 0,-0.25 0.35,-0.5 0.75,-0.5 0.4,0 0.75,-0.2 0.75,-0.5 0,-0.25 0.35,-0.5 0.75,-0.5 0.4,0 0.75,-0.2 0.75,-0.5 0,-0.25 0.35,-0.5 0.75,-0.5 0.4,0 0.75,-0.2 0.75,-0.5 0,-0.25 0.45,-0.5 1,-0.5 0.55,0 1,-0.35 1,-0.75 0,-0.4 0.3,-0.75 0.7,-0.75 0.4,0 0.8,-0.35 1,-0.75 0.15,-0.4 0.6,-0.75 1.05,-0.75 0.4,0 0.75,-0.2 0.75,-0.5 0,-0.25 0.4,-0.5 0.95,-0.5 0.5,0 1.05,-0.45 1.2,-1 0.15,-0.6 0.7,-1 1.3,-1 0.6,0 1.05,-0.3 1.05,-0.75 0,-0.45 0.45,-0.75 1.25,-0.75 0.85,0 1.25,-0.25 1.25,-0.9 0,-1.3 1,-2.1 2.6,-2.1 1.15,0 1.4,-0.2 1.4,-1.15 0,-1.65 0.9,-2.35 3,-2.35 1.75,0.05 1.75,0.05 -1.25,2.75 -6.8,6.2 -18.25,14.6 -30.4,22.2 -4.85,3.1 -16.4,9.3 -19.95,10.8 -1.85,0.75 -1.9,0.75 -1.9,-0.4 z" id="path81" />
        <path d="m 409,796.7 c -12.3,-7.15 -23.1,-14.7 -34.5,-24.25 -6.2,-5.15 -6.25,-5.2 -4.6,-5.35 1.85,-0.2 3.1,0.6 3.1,1.95 0,0.6 0.45,0.95 1.4,1.05 0.95,0.1 1.4,0.45 1.5,1.3 0.15,0.8 0.5,1.1 1.45,1.1 0.8,0 1.35,0.35 1.5,0.95 0.15,0.55 0.75,1.05 1.35,1.15 0.65,0.1 1.1,0.55 1.2,1.3 0.15,0.8 0.5,1.1 1.4,1.1 0.75,0 1.2,0.3 1.2,0.75 0,0.4 0.45,0.75 1,0.75 0.55,0 1,0.35 1,0.75 0,0.4 0.45,0.75 1,0.75 0.55,0 1,0.35 1,0.75 0,0.4 0.45,0.75 1,0.75 0.55,0 1,0.25 1,0.5 0,0.3 0.35,0.5 0.75,0.5 0.4,0 0.75,0.35 0.75,0.75 0,0.4 0.45,0.75 1,0.75 0.55,0 1,0.25 1,0.5 0,0.3 0.35,0.5 0.75,0.5 0.4,0 0.75,0.25 0.75,0.5 0,0.3 0.35,0.5 0.75,0.5 0.4,0 0.75,0.25 0.75,0.5 0,0.3 0.35,0.5 0.75,0.5 0.4,0 0.75,0.25 0.75,0.5 0,0.3 0.35,0.5 0.75,0.5 0.4,0 0.75,0.25 0.75,0.5 0,0.3 0.35,0.5 0.75,0.5 0.4,0 0.75,0.35 0.75,0.75 0,0.45 0.45,0.75 1.25,0.75 0.7,0 1.25,0.25 1.25,0.5 0,0.3 0.35,0.5 0.75,0.5 0.4,0 0.75,0.35 0.75,0.75 0,0.45 0.45,0.75 1.25,0.75 0.8,0 1.25,0.3 1.25,0.75 0,0.4 0.45,0.75 0.95,0.75 1.5,0 2.55,0.55 2.55,1.3 0,0.4 0.45,0.7 1,0.7 1.85,0 3.5,1.1 3.5,2.35 0,0.6 -0.15,1.15 -0.4,1.15 -0.2,0 -2.95,-1.5 -6.1,-3.3 z" id="path82" />
        <path d="M 502.75,793.2 C 491.6,792.25 464,786.75 464,785.45 c 0,-0.25 -0.8,-0.45 -1.75,-0.45 -1.5,0 -1.75,-0.15 -1.75,-1.15 0,-1.2 0,-1.2 5.9,0.5 9.95,2.9 24.15,5.65 32.75,6.4 4.45,0.4 5.15,-0.25 1.5,-1.4 -9.55,-2.95 -14.55,-5.1 -18.65,-8 -11.3,-8.1 -20.8,-16.5 -31.5,-27.95 -6.9,-7.4 -10.95,-11.9 -10.7,-11.9 0.05,0 2.2,1.05 4.8,2.35 9.5,4.75 24.7,11.05 32.55,13.6 12.75,4.05 37.05,7.2 49.35,6.3 18.55,-1.3 34.45,-4.85 51.25,-11.5 20.65,-8.15 42.9,-22.9 61.15,-40.5 12.45,-12 21.3,-23.45 31.3,-40.5 5.2,-8.85 12.55,-25.35 15,-33.75 3.1,-10.55 3.15,-11 2.05,-11 -0.4,0 -0.75,-0.35 -0.75,-0.75 0,-0.65 1.85,-0.75 14.9,-0.65 14.85,0.15 14.85,0.15 15,1.55 0.2,1.55 -1.05,7.1 -3.6,16.55 -3.4,12.25 -4.75,16.15 -8.45,24.3 -0.7,1.5 -2.2,4.9 -3.35,7.5 -4.05,9.2 -13.3,25.35 -19.15,33.5 -8.55,11.95 -26.5,31.15 -36.75,39.35 -9.55,7.6 -11.4,9 -15.6,11.75 -29.25,19 -55,29 -84.5,32.7 -5.55,0.7 -36.55,1.35 -42.25,0.9 z" id="path83" />
        <path d="m 453.25,782.15 c -1.9,-0.7 -3.55,-1.45 -3.65,-1.7 -0.1,-0.25 -0.75,-0.45 -1.4,-0.45 -0.75,0 -1.2,-0.3 -1.2,-0.75 0,-0.5 -0.5,-0.75 -1.45,-0.75 -1.95,0 -3.05,-0.45 -3.05,-1.3 0,-0.45 -0.55,-0.7 -1.5,-0.7 -1.6,0 -4,-0.95 -4,-1.6 0,-0.2 -0.45,-0.4 -1,-0.4 -0.55,0 -1,-0.2 -1,-0.5 0,-0.25 -0.35,-0.5 -0.75,-0.5 -1.25,0 -5.25,-2.15 -5.25,-2.85 0,-0.35 -0.45,-0.65 -0.95,-0.65 -1.5,0 -2.55,-0.55 -2.55,-1.3 0,-0.4 -0.5,-0.7 -1.25,-0.7 -0.8,0 -1.25,-0.3 -1.25,-0.75 0,-0.4 -0.45,-0.75 -0.95,-0.75 -1.5,0 -2.55,-0.55 -2.55,-1.3 0,-0.4 -0.5,-0.7 -1.25,-0.7 -0.7,0 -1.25,-0.2 -1.25,-0.5 0,-0.25 -0.35,-0.5 -0.75,-0.5 -0.4,0 -0.75,-0.2 -0.75,-0.45 0,-0.25 -0.55,-0.6 -1.25,-0.75 -0.7,-0.2 -1.25,-0.65 -1.25,-1.05 0,-0.4 -0.45,-0.75 -1,-0.75 -0.55,0 -1,-0.2 -1,-0.5 0,-0.25 -0.35,-0.5 -0.75,-0.5 -0.4,0 -0.75,-0.35 -0.75,-0.75 0,-0.4 -0.45,-0.75 -1,-0.75 -0.55,0 -1,-0.2 -1,-0.5 0,-0.25 -0.35,-0.5 -0.75,-0.5 -0.4,0 -0.75,-0.35 -0.75,-0.75 0,-0.45 -0.45,-0.75 -1.05,-0.75 -0.6,0 -1.15,-0.4 -1.3,-1 -0.15,-0.55 -0.7,-1 -1.2,-1 -0.55,0 -0.95,-0.35 -0.95,-0.75 0,-0.4 -0.45,-0.75 -1,-0.75 -0.65,0 -1,-0.35 -1,-0.95 0,-0.7 -0.4,-1.05 -1.35,-1.15 -1,-0.1 -1.45,-0.45 -1.55,-1.25 -0.1,-0.8 -0.5,-1.15 -1.3,-1.15 -1.4,0 -2.3,-0.9 -2.3,-2.35 0,-0.95 -0.25,-1.15 -1.5,-1.15 -1.6,0 -2.2,-0.75 -1.9,-2.5 0.15,-0.9 0.95,-0.4 5.9,3.85 13.35,11.35 25.3,19.3 40.5,26.9 7.6,3.85 8.5,4.25 16.95,7.45 3.7,1.45 6.8,2.85 6.95,3.2 0.3,1 -2.85,0.65 -6.65,-0.75 z" id="path84" />
        <path d="m 672.5,765.15 c 0,-1.05 0.7,-2.1 2.65,-4.05 2.15,-2.1 2.95,-2.6 4.35,-2.6 1.7,0 1.7,0 -1.25,3.05 -1.65,1.65 -3.6,3.45 -4.35,4 -1.4,1 -1.4,1 -1.4,-0.4 z" id="path85" />
        <path d="m 360.25,759.25 c -5.7,-5.7 -5.95,-6 -4.6,-6.15 1.9,-0.25 2.85,0.7 2.85,2.7 0,1.6 0.1,1.7 1.65,1.7 2.35,0 6.5,4.2 6.25,6.3 -0.15,1.4 -0.4,1.25 -6.15,-4.55 z" id="path86" />
        <path d="m 512.25,751.3 c -5.75,-1.85 -9.65,-4.2 -13.75,-8.3 -9.2,-9.2 -15.6,-23.4 -17.25,-38.35 -0.3,-2.9 -0.25,-3.15 0.6,-3.15 0.85,0 1.05,0.6 1.55,4.45 0.7,5.3 2.85,12.95 5,17.9 0.9,1.95 1.6,4.05 1.6,4.6 0,0.6 0.3,1.05 0.7,1.05 0.4,0 0.9,0.5 1.1,1.1 0.15,0.6 0.65,1.4 1,1.8 0.4,0.35 0.7,0.95 0.7,1.35 0,0.35 0.35,0.75 0.75,0.95 0.4,0.15 0.75,0.6 0.75,1 0,0.35 0.35,0.8 0.75,1 0.4,0.15 0.75,0.75 0.75,1.3 0,0.55 0.3,1 0.7,1 0.35,0 1.8,1.2 3.15,2.65 1.4,1.4 3.15,3 3.95,3.5 3.15,2 9.05,4.5 11.8,5.05 2.25,0.4 2.9,0.75 2.9,1.4 0,1.25 -2.35,1.15 -6.75,-0.3 z" id="path87" />
        <path d="m 521,751.5 c 0,-0.8 0.35,-1 1.9,-1 2.35,0 8.1,-2.05 11.05,-3.9 1.25,-0.8 2.8,-1.75 3.45,-2.15 1.1,-0.65 7.6,-6.9 7.6,-7.3 0,-0.05 0.8,-1.25 1.75,-2.6 3.4,-4.75 7.85,-15.75 9.45,-23.55 0.45,-2.05 1.05,-6.3 1.4,-9.35 0.4,-3.75 0.8,-5.65 1.2,-5.65 0.95,0 1.1,1.6 0.65,6.35 -1.45,14.4 -6.65,28.9 -13.15,36.75 -5.25,6.3 -10.05,9.65 -17.5,12.15 -4.7,1.6 -7.8,1.7 -7.8,0.25 z" id="path88" />
        <path d="M 347.2,745.2 C 340.95,737.9 336.3,732 331.15,724.75 326.1,717.7 316,700.7 314.55,696.9 c -0.5,-1.3 -0.4,-1.4 0.6,-1.4 0.85,0 1.4,0.55 2.25,2.25 0.6,1.25 1.1,2.7 1.1,3.25 0,0.55 0.3,1 0.65,1 0.8,0 1.85,2.05 1.85,3.5 0,0.55 0.35,1 0.75,1 0.45,0 0.75,0.45 0.75,1.25 0,0.8 0.3,1.25 0.75,1.25 0.45,0 0.75,0.45 0.75,1.25 0,0.75 0.3,1.25 0.75,1.25 0.4,0 0.85,0.55 1.05,1.25 0.15,0.7 0.5,1.25 0.75,1.25 0.25,0 0.45,0.55 0.45,1.25 0,0.8 0.3,1.25 0.75,1.25 0.4,0 0.75,0.35 0.75,0.75 0,0.4 0.25,0.75 0.5,0.75 0.3,0 0.5,0.35 0.5,0.75 0,0.4 0.25,0.75 0.5,0.75 0.3,0 0.5,0.35 0.5,0.75 0,0.4 0.25,0.75 0.5,0.75 0.3,0 0.5,0.45 0.5,1 0,0.55 0.35,1 0.75,1 0.4,0 0.75,0.35 0.75,0.75 0,0.4 0.25,0.75 0.5,0.75 0.3,0 0.5,0.75 0.5,1.7 0,1.5 0.15,1.75 1.4,1.9 0.95,0.1 1.4,0.45 1.5,1.3 0.1,0.6 0.5,1.1 0.9,1.1 0.4,0 0.7,0.45 0.7,1 0,0.55 0.35,1 0.75,1 0.4,0 0.75,0.4 0.75,0.95 0,0.5 0.45,1.05 1,1.2 0.55,0.15 1,0.7 1,1.25 0,0.55 0.45,1.1 1,1.25 0.7,0.15 1,0.7 1,1.55 0,0.9 0.25,1.3 0.9,1.3 1.3,0 2.1,1 2.1,2.55 0,1.15 0.25,1.4 1.4,1.55 1.1,0.1 1.4,0.4 1.5,1.8 0.15,1.35 0.35,1.6 1.4,1.6 1.4,0 1.85,0.8 1.6,2.75 -0.15,1.25 -0.65,0.8 -5.7,-5.05 z" id="path89" />
        <path d="m 688.5,749.4 c 0,-1.85 1.2,-3.4 2.65,-3.4 0.5,0 0.85,-0.5 0.95,-1.35 0.1,-1.1 0.45,-1.45 1.5,-1.55 1.1,-0.15 1.35,-0.45 1.5,-1.75 0.1,-1.2 0.4,-1.65 1.3,-1.75 0.8,-0.15 1.1,-0.5 1.1,-1.4 0,-0.75 0.3,-1.2 0.75,-1.2 0.45,0 0.75,-0.45 0.75,-1.05 0,-0.6 0.4,-1.15 1,-1.3 0.55,-0.15 1,-0.7 1,-1.2 0,-0.55 0.35,-0.95 0.75,-0.95 0.4,0 0.75,-0.45 0.75,-1 0,-0.55 0.35,-1 0.75,-1 0.4,0 0.75,-0.45 0.75,-1 0,-0.55 0.25,-1 0.5,-1 0.3,0 0.5,-0.35 0.5,-0.75 0,-0.45 0.45,-0.75 1.25,-0.75 1.1,0 1.25,-0.2 1.25,-1.75 0,-0.95 0.2,-1.75 0.45,-1.75 0.25,0 0.6,-0.55 0.75,-1.25 0.2,-0.7 0.55,-1.25 0.8,-1.25 0.3,0 0.5,-0.35 0.5,-0.75 0,-0.4 0.25,-0.75 0.5,-0.75 0.3,0 0.5,-0.35 0.5,-0.75 0,-0.4 0.25,-0.75 0.5,-0.75 0.3,0 0.5,-0.35 0.5,-0.75 0,-0.4 0.2,-0.75 0.45,-0.75 0.25,0 0.6,-0.55 0.75,-1.25 0.2,-0.7 0.55,-1.25 0.8,-1.25 0.3,0 0.5,-0.35 0.5,-0.75 0,-0.4 0.2,-0.75 0.45,-0.75 0.25,0 0.6,-0.55 0.75,-1.25 0.2,-0.7 0.55,-1.25 0.8,-1.25 0.3,0 0.5,-0.35 0.5,-0.75 0,-0.4 0.35,-0.75 0.75,-0.75 0.45,0 0.75,-0.45 0.75,-1.2 0,-0.7 0.3,-1.55 0.7,-1.9 0.35,-0.4 0.85,-1.2 1,-1.8 0.2,-0.65 0.8,-1.1 1.35,-1.1 0.7,0 0.95,-0.35 0.95,-1.5 0,-2.35 1.5,-5 2.85,-5 0.65,0 1.15,0.15 1.15,0.3 0,0.6 -4.5,8.7 -8.15,14.7 -8.25,13.55 -14.75,22.7 -23.7,33.35 -6.05,7.15 -6.15,7.25 -6.15,5.05 z" id="path90" />
        <path d="m 384.3,738.55 c -1,-1 -1.35,-1.85 -1.2,-2.85 0.15,-1.4 0.15,-1.4 3.15,1.45 3,2.8 3,2.8 1.2,2.85 -1.3,0 -2.1,-0.35 -3.15,-1.45 z" id="path91" />
        <path d="m 377.1,731.35 c -0.7,-0.7 -1.1,-1.8 -1.1,-2.85 0,-1.7 0,-1.7 1.55,-0.2 0.85,0.8 2,2.05 2.55,2.85 0.95,1.35 0.95,1.35 -0.5,1.35 -0.85,0 -1.85,-0.45 -2.5,-1.15 z" id="path92" />
        <path d="M 372.35,726.15 C 372.15,726 372,725.2 372,724.4 c 0,-1.15 -0.2,-1.4 -1.15,-1.4 -1.45,0 -2.35,-0.9 -2.35,-2.3 0,-0.8 -0.35,-1.2 -1.1,-1.3 -0.8,-0.1 -1.2,-0.55 -1.3,-1.5 -0.1,-0.95 -0.5,-1.4 -1.25,-1.5 -0.7,-0.1 -1.15,-0.55 -1.25,-1.25 -0.1,-0.65 -0.5,-1.15 -0.9,-1.15 -0.4,0 -0.7,-0.4 -0.7,-0.95 0,-0.5 -0.45,-1.05 -1,-1.2 -0.55,-0.15 -1,-0.6 -1,-1.05 0,-0.45 -0.2,-0.8 -0.5,-0.8 -0.25,0 -0.5,-0.35 -0.5,-0.75 0,-0.4 -0.2,-0.75 -0.5,-0.75 -0.25,0 -0.5,-0.3 -0.5,-0.7 0,-0.4 -0.35,-0.8 -0.75,-1 -0.4,-0.15 -0.75,-0.6 -0.75,-1.05 0,-0.4 -0.2,-0.75 -0.5,-0.75 -0.25,0 -0.5,-0.35 -0.5,-0.75 0,-0.4 -0.2,-0.75 -0.5,-0.75 -0.25,0 -0.5,-0.35 -0.5,-0.75 0,-0.4 -0.2,-0.75 -0.5,-0.75 -0.25,0 -0.5,-0.35 -0.5,-0.75 0,-0.4 -0.2,-0.75 -0.5,-0.75 -0.25,0 -0.5,-0.35 -0.5,-0.75 0,-0.4 -0.2,-0.75 -0.5,-0.75 -0.25,0 -0.5,-0.35 -0.5,-0.75 0,-0.4 -0.2,-0.75 -0.5,-0.75 -0.25,0 -0.5,-0.55 -0.5,-1.25 0,-0.8 -0.3,-1.25 -0.75,-1.25 -0.45,0 -0.75,-0.45 -0.75,-1.25 0,-0.75 -0.3,-1.25 -0.7,-1.25 -0.75,0 -1.3,-1.05 -1.3,-2.55 0,-0.5 -0.3,-0.95 -0.65,-0.95 -0.8,0 -1.85,-2.05 -1.85,-3.5 0,-0.55 -0.35,-1 -0.75,-1 -0.45,0 -0.9,-0.6 -1.05,-1.5 -0.2,-0.8 -0.5,-1.5 -0.75,-1.5 -0.25,0 -0.45,-0.8 -0.45,-1.75 0,-0.95 0.2,-1.75 0.45,-1.75 0.2,0 2.15,3.2 4.3,7.15 6.25,11.55 15.05,24.4 23.55,34.4 6.5,7.6 6.1,6.95 4.35,6.95 -0.8,0 -1.65,-0.15 -1.8,-0.35 z" id="path93" />
        <path d="m 480.95,699.4 c -0.6,-6 -0.35,-8.9 0.8,-8.9 0.6,0 0.75,0.95 0.75,4.75 0,3.9 -0.15,4.75 -0.75,4.75 -0.4,0 -0.8,-0.3 -0.8,-0.6 z" id="path94" />
        <path d="m 727,692 c 0,-1.85 1.45,-5 2.35,-5 0.4,0 0.65,-0.65 0.65,-1.75 0,-0.95 0.25,-1.75 0.5,-1.75 0.3,0 0.5,-0.4 0.5,-0.9 0,-0.5 1.3,-4.15 2.95,-8.1 6.15,-15.2 12.05,-36.7 13.35,-48.85 0.25,-2.6 0.5,-3.15 1.25,-3.15 1.2,0 1.2,0.2 -0.05,8.15 -1.25,8.1 -4.8,22.2 -8.25,32.65 -2.4,7.3 -8.9,23.55 -11.3,28.25 -1.15,2.35 -1.95,2.5 -1.95,0.45 z" id="path95" />
        <path d="m 311.3,690.15 c -1.5,-3 -7.8,-18.2 -9.45,-22.9 -3.6,-10.2 -7.5,-24.9 -9.45,-35.75 -1.1,-6.2 -1.1,-6.8 -1.3,-60.6 -0.15,-54.1 -0.15,-54.4 0.85,-54.4 1,0 1,0.4 1.15,54.9 0.2,54.3 0.2,54.9 1.3,60.45 1.6,8.05 5.35,22.35 7.9,30.2 1.2,3.75 2.2,7.15 2.2,7.6 0,0.45 0.2,0.85 0.4,0.85 0.4,0 1.6,2.9 1.6,3.95 0,0.35 0.35,0.95 0.75,1.35 0.4,0.45 0.75,1.2 0.75,1.75 0,0.55 0.35,1.35 0.75,1.75 0.4,0.45 0.75,1.2 0.75,1.75 0,0.55 0.35,1.35 0.75,1.75 0.4,0.45 0.75,1.3 0.75,2 0,0.65 0.2,1.2 0.4,1.2 0.65,0 1.6,2.4 1.6,4 0,1.9 -0.75,1.9 -1.7,0.15 z" id="path96" />
        <path d="m 557.25,687.4 c -0.3,-3.6 -1.55,-9.2 -3.85,-17.4 -0.35,-1.25 -0.9,-2.55 -1.25,-2.9 -0.85,-0.9 -0.85,-4.25 0,-4 0.8,0.25 3.5,7 4.85,12.15 0.95,3.55 2.45,13 2.5,15.4 0,0.5 -0.35,0.85 -0.95,0.85 -0.8,0 -0.95,-0.55 -1.3,-4.1 z" id="path97" />
        <path d="m 481.2,686.15 c 1.15,-8.3 3.45,-16.35 6.55,-22.85 1.9,-4.05 2.75,-4.75 2.75,-2.3 0,1.85 -0.95,4 -1.85,4 -0.4,0 -0.65,0.6 -0.65,1.5 0,0.8 -0.45,2.65 -1,4.1 -1.4,3.55 -3.4,11.55 -3.8,15.05 -0.3,2.4 -0.5,2.85 -1.35,2.85 -0.85,0 -0.95,-0.25 -0.65,-2.35 z" id="path98" />
        <path d="m 410.15,680.2 c -2.7,-1 -5.95,-4.15 -7.25,-7.1 -1.5,-3.3 -1.45,-8.15 0.05,-11.25 0.6,-1.3 1.35,-2.35 1.65,-2.35 0.6,0 0.3,2.8 -0.65,5.9 -0.5,1.6 -0.55,2.55 -0.1,4 1.3,4.3 1.95,5.55 2.8,5.8 0.5,0.1 1.05,0.65 1.15,1.15 0.3,1.05 4.65,2.65 7.25,2.65 0.95,0 2.7,-0.45 3.9,-1 1.2,-0.55 2.85,-1 3.7,-1 1.45,0 1.5,0 0.6,1 -1.3,1.4 -5.9,3 -8.65,2.95 -1.3,0 -3.3,-0.35 -4.45,-0.75 z" id="path99" />
        <path d="m 624.75,679.75 c -9.05,-3.65 -11.4,-14.35 -4.8,-21.9 1.9,-2.15 6.05,-3.85 9.45,-3.85 4.95,0 10.15,3.65 12.6,8.85 1.3,2.8 1.3,4.15 0,4.15 -0.55,0 -1,-0.25 -1,-0.5 0,-1.5 -2.45,-5.45 -4.3,-7 -1.2,-0.95 -2.15,-2 -2.15,-2.3 -0.05,-0.55 -3.35,-1.2 -6.05,-1.2 -0.75,0 -2.45,0.55 -3.8,1.25 -1.35,0.7 -2.75,1.25 -3.05,1.25 -0.35,0 -0.65,0.45 -0.65,0.95 0,0.55 -0.15,1.05 -0.35,1.15 -0.7,0.3 -2.2,4 -2.5,6.15 -0.7,5.35 6,12.25 11.95,12.25 2.45,0 8.9,-4 8.9,-5.5 0,-0.3 0.2,-0.5 0.45,-0.5 0.25,0 0.75,-1.1 1.1,-2.5 0.5,-1.9 0.85,-2.5 1.6,-2.5 0.85,0 0.95,0.25 0.7,2 -0.35,2.65 -2.9,6.55 -5.35,8.25 -4.3,2.95 -8.05,3.4 -12.75,1.5 z" id="path100" />
        <path d="M 337.35,671.65 C 333.9,663.5 333,661.05 333,660 c 0,-0.5 -0.2,-1 -0.45,-1.1 -0.6,-0.25 -4.8,-13.15 -6.8,-21.1 -1.1,-4.35 -1.75,-8.1 -1.75,-10.1 0,-3.2 0,-3.2 15.65,-3.2 15.6,0 15.6,0 18.6,-1.35 1.65,-0.7 3.9,-1.4 5,-1.55 1.85,-0.2 1.95,-0.15 1.25,0.65 -0.4,0.5 -2.2,1.6 -4,2.45 -3.25,1.55 -3.25,1.55 -19.1,1.7 -8.75,0.1 -15.9,0.35 -15.9,0.5 0,1.3 1.8,9.15 3.2,14.25 3.05,10.65 6.75,20.7 12.5,34 0.8,1.85 0.8,1.85 -0.4,1.85 -1.05,0 -1.5,-0.65 -3.45,-5.35 z" id="path101" />
        <path d="m 424.5,674.8 c 0,-1.2 0.25,-1.8 0.7,-1.8 0.9,0 1.45,-4.3 1,-7.8 -0.2,-1.8 -0.55,-2.7 -1,-2.7 -0.4,0 -0.7,-0.35 -0.7,-0.75 0,-0.4 -0.2,-0.75 -0.5,-0.75 -0.25,0 -0.5,-0.35 -0.5,-0.75 0,-0.4 -0.35,-0.75 -0.75,-0.75 -0.45,0 -0.9,-0.3 -1.05,-0.65 -0.1,-0.35 -1.35,-1.05 -2.7,-1.6 -1.7,-0.65 -2.5,-1.25 -2.5,-1.85 0,-2.55 6.8,0.9 9.35,4.75 0.9,1.35 1.85,3.3 2.15,4.4 0.95,3.5 -0.5,9.55 -2.7,11.4 -0.7,0.6 -0.8,0.45 -0.8,-1.15 z" id="path102" />
        <path d="m 549.3,661.7 c -0.15,-0.45 -0.3,-1.2 -0.3,-1.75 0,-0.5 -0.35,-0.95 -0.75,-0.95 -0.4,0 -0.75,-0.35 -0.75,-0.75 0,-0.4 -0.2,-0.75 -0.5,-0.75 -0.25,0 -0.5,-0.55 -0.5,-1.2 0,-0.9 -0.3,-1.25 -1.1,-1.4 -0.95,-0.1 -1.15,-0.5 -1.3,-2.15 -0.1,-2 -0.1,-2 1.95,0.25 1.85,2.1 5.95,8.35 5.95,9.15 0,0.7 -2.4,0.3 -2.7,-0.45 z" id="path103" />
        <path d="m 406.55,657.2 c 0.8,-1 4.65,-2.7 6,-2.7 0.6,0 0.95,0.35 0.95,1 0,0.75 -0.35,1 -1.3,1 -0.7,0 -1.6,0.35 -2,0.75 -0.45,0.4 -1.55,0.75 -2.55,0.75 -1.6,0 -1.7,-0.1 -1.1,-0.8 z" id="path104" />
        <path d="m 491,657.6 c 0,-1.5 7.6,-10.15 11.15,-12.7 1.35,-0.95 1.35,-0.95 1.35,0.55 0,1.45 -0.15,1.55 -1.75,1.55 -1.6,0 -1.75,0.15 -1.75,1.4 0,1.65 -1.35,3.1 -2.9,3.1 -0.9,0 -1.1,0.3 -1.1,1.5 0,1.25 -0.2,1.5 -1.25,1.5 -1.1,0 -1.25,0.2 -1.25,1.75 0,1.55 -0.15,1.75 -1.25,1.75 -0.7,0 -1.25,-0.2 -1.25,-0.4 z" id="path105" />
        <path d="m 537,646.75 c 0,-0.4 -0.45,-0.75 -1,-0.75 -0.55,0 -1,-0.15 -1,-0.35 0,-0.25 -1.35,-0.95 -3,-1.65 -1.65,-0.7 -3,-1.4 -3,-1.55 0,-0.15 -1.8,-0.6 -4,-0.95 -3.4,-0.55 -4,-0.8 -4,-1.65 0,-0.85 0.25,-0.95 2.4,-0.65 5.65,0.8 14.25,4.7 16.6,7.55 0.55,0.65 0.35,0.75 -1.2,0.75 -1.25,0 -1.8,-0.2 -1.8,-0.75 z" id="path106" />
        <path d="m 504.5,643.55 c 0,-0.75 5.05,-2.95 8.6,-3.8 4.35,-1 5.4,-1 5.4,0.25 0,0.75 -0.35,1 -1.3,1 -1.9,0 -7.85,1.65 -8.6,2.35 -0.75,0.75 -4.1,0.9 -4.1,0.2 z" id="path107" />
        <path d="m 680.05,625.7 c -4.85,-1.7 -8.75,-5.3 -10.95,-10.1 -1,-2.25 -1.25,-3.5 -1.2,-6.9 0,-3.6 0.2,-4.6 1.6,-7.65 0.9,-1.9 2.15,-4 2.8,-4.6 1.2,-1.1 1.2,-1.1 1.2,0.6 -0.05,1.8 -0.95,3.45 -1.95,3.45 -0.3,0 -0.55,0.5 -0.55,1.15 0,0.6 -0.35,2.2 -0.75,3.55 -1.05,3.4 -0.95,4.9 0.55,8.6 0.9,2.3 2,3.9 3.75,5.6 2.65,2.45 7.4,5.1 9.35,5.1 0.75,0 1.1,0.3 1.1,1 0,1.25 -1.75,1.3 -4.95,0.2 z" id="path108" />
        <path d="m 748,619 c 0,-2.65 0.1,-3 1,-3 0.8,0 1,0.35 1,1.9 0,2.6 -0.5,4.1 -1.3,4.1 -0.5,0 -0.7,-0.8 -0.7,-3 z" id="path109" />
        <path d="m 366.5,618.4 c 0,-1 0.2,-1.9 0.4,-2 0.5,-0.2 2.6,-5.1 2.6,-6.1 0,-0.45 0.45,-0.8 1,-0.8 0.65,0 1,0.35 1,1 0,1.75 -1.95,6.2 -3.45,8 -1.5,1.75 -1.5,1.75 -1.55,-0.1 z" id="path110" />
        <path d="m 434,613 c -8.3,-1 -15.65,-3.6 -22.25,-7.9 -4.45,-2.9 -10.95,-8.8 -13.2,-12 -1.15,-1.65 -1.15,-1.65 0.5,-1.5 1.45,0.1 1.75,0.35 1.85,1.55 0.1,0.9 0.45,1.35 1.05,1.35 1.35,0 4.05,3.1 4.05,4.65 0,1.2 0.2,1.35 1.75,1.35 1.1,0 1.9,0.3 2.05,0.75 0.2,0.4 0.6,0.75 1,0.75 0.4,0 0.7,0.25 0.7,0.5 0,0.3 0.35,0.5 0.75,0.5 0.4,0 0.75,0.25 0.75,0.5 0,0.3 0.35,0.5 0.75,0.5 0.4,0 0.75,0.35 0.75,0.75 0,0.4 0.45,0.75 1,0.75 1.2,0 4.5,1.55 4.5,2.1 0,0.2 0.4,0.4 0.9,0.4 0.45,0 2.55,0.55 4.6,1.2 8.15,2.6 19.05,2.95 27.1,0.85 4.15,-1.1 12.25,-4.35 13.3,-5.4 0.35,-0.35 1,-0.65 1.4,-0.65 0.4,0 0.7,-0.2 0.7,-0.5 0,-0.25 0.35,-0.5 0.75,-0.5 0.4,0 0.75,-0.2 0.75,-0.5 0,-0.25 0.35,-0.5 0.75,-0.5 0.4,0 0.75,-0.2 0.75,-0.5 0,-0.25 0.55,-0.5 1.25,-0.5 0.85,0 1.25,-0.25 1.25,-0.9 0,-1.4 1.05,-2.1 2.95,-2.1 1.8,0.05 1.8,0.05 -0.45,2.1 -1.25,1.15 -4.15,3.3 -6.45,4.8 -10.3,6.75 -22.8,9.6 -35.55,8.1 z" id="path111" />
        <path d="m 589.75,612.3 c -3,-0.65 -7.5,-2 -10,-3 -4.5,-1.9 -11.65,-6.25 -13.45,-8.25 -0.95,-1.05 -0.95,-1.05 0.9,-1.05 1.45,0 1.95,0.2 2.15,1 0.15,0.55 0.7,1 1.2,1 0.55,0 0.95,0.25 0.95,0.5 0,0.3 0.35,0.5 0.75,0.5 0.4,0 0.75,0.25 0.75,0.5 0,0.3 0.35,0.5 0.75,0.5 0.4,0 0.75,0.35 0.75,0.75 0,0.45 0.45,0.75 1.2,0.75 0.7,0 1.55,0.35 2,0.75 0.4,0.4 1.2,0.75 1.75,0.75 0.55,0 1.3,0.35 1.75,0.75 0.4,0.4 1.05,0.75 1.4,0.75 0.35,0 2,0.45 3.65,0.95 1.65,0.5 4.95,1.2 7.4,1.55 3.65,0.55 4.35,0.8 4.35,1.6 0,1.2 -1.25,1.15 -8.25,-0.3 z" id="path112" />
        <path d="m 603,612.55 c 0,-0.9 0.3,-1.05 1.95,-1.05 2.65,0 8.65,-1.2 12.4,-2.45 1.7,-0.6 3.45,-1.05 3.9,-1.05 0.4,0 0.75,-0.2 0.75,-0.4 0,-0.55 3.3,-2.1 4.5,-2.1 0.55,0 1,-0.35 1,-0.75 0,-0.4 0.35,-0.75 0.75,-0.75 0.4,0 0.75,-0.2 0.75,-0.5 0,-0.25 0.45,-0.5 1,-0.5 0.55,0 1,-0.35 1,-0.75 0,-0.4 0.4,-0.75 0.95,-0.75 0.5,0 1.05,-0.45 1.2,-1 0.2,-0.75 0.7,-1 2.05,-1 1.65,0 1.8,-0.15 1.8,-1.4 0,-1.75 0.8,-2.6 2.55,-2.6 1.25,0 1.4,-0.2 1.55,-1.85 0.15,-1.75 0.3,-1.9 1.85,-2.05 1.65,-0.15 1.65,-0.15 0.65,1.25 -1.85,2.6 -7.3,7.8 -11.3,10.75 -7.2,5.35 -16.3,8.8 -25.4,9.65 -3.75,0.35 -3.9,0.35 -3.9,-0.7 z" id="path113" />
        <path d="m 369,604 c -0.35,-1.35 -0.85,-2.5 -1.1,-2.5 -0.2,0 -0.4,-0.65 -0.4,-1.5 0,-1.1 -0.25,-1.5 -0.9,-1.5 -0.5,0 -1.6,-0.8 -2.45,-1.75 -0.85,-0.95 -1.8,-1.75 -2.1,-1.75 -0.3,0 -0.55,-0.2 -0.55,-0.4 0,-0.25 -0.9,-0.75 -2,-1.1 -1.1,-0.35 -2,-0.85 -2,-1.1 0,-0.2 -0.8,-0.4 -1.75,-0.4 -1.4,0 -1.75,-0.2 -1.75,-1 0,-1.25 1.05,-1.3 4.65,-0.05 6.35,2.2 11.5,7.8 12.6,13.7 0.3,1.6 0.25,1.85 -0.6,1.85 -0.75,0 -1.15,-0.6 -1.65,-2.5 z" id="path114" />
        <path d="m 479.5,594.9 c 0,-1.35 0.2,-1.9 0.75,-1.9 0.4,0 0.75,-0.4 0.75,-0.9 0,-0.5 0.45,-1.4 1,-2 0.55,-0.6 1,-1.3 1,-1.6 0,-0.25 0.35,-0.5 0.75,-0.5 0.4,0 0.75,-0.4 0.75,-0.95 0,-0.5 1,-3.1 2.3,-5.7 2.2,-4.75 4.7,-13.1 4.7,-15.9 0,-1.1 0.25,-1.45 1,-1.45 0.7,0 1,0.35 1,1.15 0,2.25 -2,10.35 -3.45,14.15 -1.85,4.75 -6.1,12.25 -8.65,15.25 -1.85,2.2 -1.85,2.2 -1.9,0.35 z" id="path115" />
        <path d="m 559.25,593.7 c -5.65,-6.95 -9.95,-16.75 -11,-25.05 -0.3,-2.45 -0.25,-2.65 0.7,-2.65 0.75,0 1.05,0.3 1.05,1.15 0,1.6 2.15,10.55 2.6,10.75 0.25,0.1 0.4,0.75 0.4,1.4 0,0.65 0.2,1.2 0.4,1.2 0.55,0 2.6,4.3 2.6,5.5 0,0.55 0.35,1 0.75,1 0.4,0 0.75,0.35 0.75,0.75 0,0.4 0.25,0.75 0.5,0.75 0.3,0 0.5,0.3 0.5,0.7 0,0.4 0.35,0.8 0.75,1 0.4,0.15 0.75,0.7 0.75,1.25 0,0.5 0.45,1.05 1,1.2 0.75,0.2 1,0.7 1,2.05 0,1 -0.1,1.8 -0.2,1.8 -0.15,0 -1.3,-1.25 -2.55,-2.8 z" id="path116" />
        <path d="m 674.75,594 c 1.85,-2 6.75,-4 10.85,-4.3 2.95,-0.25 3.95,-0.55 4.1,-1.15 1.35,-4.55 3.1,-18.95 3.55,-28.8 0.15,-3.3 0.4,-7.95 0.55,-10.35 0.2,-3.75 0.1,-4.4 -0.55,-4.4 -0.4,0 -0.75,-0.35 -0.75,-0.75 0,-0.65 1.7,-0.75 12.45,-0.75 6.9,0 12.6,0.15 12.7,0.4 0.3,0.5 -0.7,46.8 -1,47.1 -0.1,0.15 -7.8,0.35 -17.05,0.5 -16.7,0.25 -16.85,0.25 -19.35,1.5 -1.35,0.7 -2.55,1.4 -2.65,1.65 -0.1,0.2 -1,0.35 -1.95,0.35 -1.8,0 -1.8,0 -0.9,-1 z" id="path117" />
        <path d="m 323.5,589.75 c 0,-1.95 1.2,-2.5 1.65,-0.75 0.15,0.55 0.6,1 1.05,1 0.45,0 0.8,0.35 0.8,0.75 0,0.5 -0.55,0.75 -1.75,0.75 -1.65,0 -1.75,-0.1 -1.75,-1.75 z" id="path118" />
        <path d="m 644.5,588.75 c 0,-1.2 0.25,-1.75 0.75,-1.75 0.4,0 0.75,-0.45 0.75,-1 0,-1.2 1.05,-3.5 1.6,-3.5 0.2,0 0.4,-0.4 0.4,-0.85 0,-0.5 0.45,-2.1 1,-3.6 1.4,-3.65 3,-10.4 3,-12.65 0,-1.6 0.15,-1.9 1.05,-1.9 0.95,0 1,0.2 0.7,3.4 -0.45,4.2 -1.8,9.55 -3.55,13.95 -1.45,3.8 -4.7,9.65 -5.3,9.65 -0.2,0 -0.4,-0.8 -0.4,-1.75 z" id="path119" />
        <path d="m 394.85,587.55 c -1.1,-1.9 -1.1,-2.05 0.4,-2.05 1.1,0 1.25,0.2 1.25,1.75 0,2.15 -0.5,2.2 -1.65,0.3 z" id="path120" />
        <path d="m 433.5,583.8 c -2.65,-0.75 -7.15,-3 -8.45,-4.2 -0.5,-0.45 -1.3,-1.1 -1.85,-1.4 -1.3,-0.7 -4.3,-5.25 -5.4,-8.1 -0.5,-1.3 -1,-4.1 -1.15,-6.2 -0.25,-3.35 -0.2,-3.9 0.5,-3.9 0.8,0 1,0.75 1.6,5.1 0.45,3.55 3.4,9 6.1,11.4 1.3,1.1 4,2.85 6.1,3.9 3.65,1.8 3.85,1.85 9.5,1.85 5.5,0 6,-0.1 9.15,-1.6 1.9,-0.9 4.2,-2.2 5.15,-2.95 1.75,-1.3 1.75,-1.3 1.75,0.3 0,1.15 -0.25,1.65 -1,1.85 -0.55,0.15 -1,0.45 -1,0.65 0,0.55 -5.35,2.85 -8,3.45 -3.05,0.7 -10.2,0.6 -13,-0.15 z" id="path121" />
        <path d="m 592.5,582.85 c -3.35,-1.2 -7.5,-3.65 -7.5,-4.4 0,-0.25 -0.3,-0.45 -0.65,-0.45 -0.8,0 -2.85,-2.1 -2.85,-2.9 0,-0.35 -0.2,-0.6 -0.45,-0.6 -0.75,0 -3,-5.65 -3.5,-9 -0.75,-4.45 -0.65,-9.75 0.15,-12.75 0.75,-2.8 2.15,-6.35 2.7,-6.75 0.2,-0.15 0.7,-0.9 1.1,-1.75 0.45,-0.8 1.25,-1.7 1.85,-2 0.6,-0.25 1.2,-0.85 1.3,-1.35 0.15,-0.5 0.6,-0.9 1.05,-0.9 0.45,0 0.8,-0.2 0.8,-0.5 0,-0.25 0.35,-0.5 0.75,-0.5 0.4,0 0.75,-0.2 0.75,-0.45 0,-0.7 5.9,-2.55 8.1,-2.55 3.15,0 2.35,1.25 -1.45,2.2 -7.4,1.8 -12.05,6.35 -14.6,14.25 -1.8,5.6 -1.15,13.45 1.65,18.95 2.6,5.15 9.6,9.6 16.95,10.85 1.15,0.2 1.85,0.55 1.85,1 0,1.15 -4.2,0.9 -8,-0.4 z" id="path122" />
        <path d="m 603,583.3 c 0,-0.5 0.95,-0.95 2.65,-1.3 3.8,-0.75 8.45,-3.1 11.15,-5.6 8.5,-7.75 9.45,-18.35 2.65,-28.9 -1.95,-3.05 -1.95,-3.05 -0.35,-2.9 1.5,0.15 1.8,0.5 3.8,4.4 3.15,6.35 3.8,12.35 2.05,19.35 -0.35,1.25 -0.85,2.15 -1.25,2.15 -0.4,0 -0.7,0.5 -0.7,1.25 0,0.7 -0.45,1.7 -1,2.25 -0.55,0.55 -1,1.2 -1,1.4 0,0.65 -3.2,3.6 -3.9,3.6 -0.35,0 -0.6,0.2 -0.6,0.5 0,0.25 -1.2,1.1 -2.6,1.8 -4.75,2.4 -10.9,3.55 -10.9,2 z" id="path123" />
        <path d="m 392,581.95 c -0.3,-0.55 -0.9,-1.9 -1.25,-3 -0.7,-1.9 -0.7,-1.95 0.4,-1.95 0.85,0 1.3,0.45 1.75,1.65 1.15,3.2 0.45,5.85 -0.9,3.3 z" id="path124" />
        <path d="m 389.55,575.65 c -0.45,-0.9 -2.05,-9.6 -2.05,-11.25 0,-0.55 0.35,-0.9 0.9,-0.9 0.7,0 1,0.75 1.55,4.4 1.1,7.1 1.2,8.6 0.6,8.6 -0.3,0 -0.7,-0.4 -1,-0.85 z" id="path125" />
        <path d="m 459.2,573 c 5.05,-7.35 5.25,-16.4 0.5,-24.3 -3.1,-5.15 -6,-7.5 -11.85,-9.5 -6.95,-2.4 -15.05,-1.55 -20.3,2.05 C 425,543 425,543 425,541.5 c 0,-1.15 0.2,-1.5 1,-1.5 0.55,0 1,-0.3 1,-0.7 0,-0.4 1.25,-1.2 2.9,-1.85 5.55,-2.2 21.6,-1.25 21.6,1.3 0,0.45 0.5,0.75 1.3,0.75 1.65,0 3.2,0.85 3.2,1.75 0,0.35 0.5,0.75 1.05,0.85 0.6,0.1 1.35,0.6 1.65,1.1 0.3,0.55 0.95,1.4 1.45,1.9 1.4,1.5 3.75,6.75 4.4,9.85 0.95,4.55 0.35,11.7 -1.3,15.45 -0.75,1.7 -1.55,3.1 -1.75,3.1 -0.2,0 -0.5,0.45 -0.65,1 -0.2,0.75 -0.7,1 -1.8,1 -1.55,0 -1.55,0 0.15,-2.5 z" id="path126" />
        <path d="m 416.65,555.5 c 0.3,-3.3 2.45,-9.5 3.35,-9.5 0.2,0 0.5,-0.45 0.65,-1 0.2,-0.75 0.7,-1 1.8,-1 1.55,0 1.55,0 -0.15,2.5 -1.85,2.7 -3.8,7.35 -3.8,9.15 0,1.95 -0.6,3.35 -1.4,3.35 -0.6,0 -0.7,-0.55 -0.45,-3.5 z" id="path127" />
        <path d="m 651.85,553.85 c -0.15,-1.7 -0.85,-4.9 -1.55,-7.1 -0.7,-2.2 -1.3,-4.4 -1.3,-4.85 0,-0.5 -0.2,-0.9 -0.5,-0.9 -0.25,0 -0.5,-0.55 -0.5,-1.25 0,-0.7 -0.2,-1.25 -0.4,-1.25 -0.7,0 -2.6,-4.45 -2.6,-6 0,-2.25 0.7,-1.85 2.4,1.4 2.4,4.55 5,12.1 5.85,16.85 0.95,5.65 0.95,6.25 -0.2,6.25 -0.75,0 -0.95,-0.5 -1.2,-3.15 z" id="path128" />
        <path d="m 387.7,553.65 c 1.55,-13.2 9.3,-27.25 19.55,-35.5 6.1,-4.9 14.7,-8.75 23.45,-10.4 5.15,-1 5.8,-0.95 5.8,0.25 0,0.8 -0.35,1 -1.6,1 -1.85,0 -9.85,2.05 -12.7,3.25 -1,0.4 -2.25,0.75 -2.75,0.75 -0.55,0 -0.95,0.2 -0.95,0.4 0,0.25 -1.2,0.95 -2.6,1.65 -1.45,0.65 -2.7,1.35 -2.8,1.6 -0.1,0.2 -0.5,0.35 -0.9,0.35 -0.4,0 -0.7,0.25 -0.7,0.5 0,0.3 -0.45,0.5 -1,0.5 -0.55,0 -1,0.35 -1,0.75 0,0.5 -0.5,0.75 -1.5,0.75 -1.2,0 -1.5,0.2 -1.5,1.1 0,1.45 -2.4,3.9 -3.85,3.9 -0.95,0 -1.15,0.25 -1.15,1.5 0,1 -0.25,1.5 -0.75,1.5 -0.4,0 -0.75,0.45 -0.75,1 0,0.55 -0.35,1.15 -0.75,1.3 -0.4,0.2 -0.75,0.6 -0.75,1 0,0.4 -0.2,0.7 -0.45,0.7 -0.25,0 -0.6,0.55 -0.75,1.25 -0.2,0.8 -0.65,1.25 -1.3,1.25 -0.75,0 -1,0.35 -1,1.3 0,0.75 -0.8,3.25 -1.75,5.65 -1.8,4.55 -3.75,11.85 -3.75,14.2 0,1.05 -0.25,1.35 -1.05,1.35 -1.05,0 -1.05,-0.15 -0.75,-2.85 z" id="path129" />
        <path d="m 491.5,555.15 c 0,-1.85 -2.6,-12.35 -3.1,-12.55 -0.2,-0.1 -0.4,-0.95 -0.4,-1.9 0,-1.2 -0.25,-1.7 -0.75,-1.7 -0.45,0 -0.9,-0.6 -1.05,-1.5 -0.2,-0.8 -0.5,-1.5 -0.75,-1.5 -0.2,0 -0.65,-0.8 -1,-1.75 -0.35,-0.95 -0.85,-1.75 -1.05,-1.75 -0.2,0 -0.4,-0.35 -0.4,-0.75 0,-0.4 -0.2,-0.75 -0.5,-0.75 -0.25,0 -0.5,-0.45 -0.5,-1 0,-0.55 -0.35,-1 -0.75,-1 -0.5,0 -0.75,-0.5 -0.75,-1.5 0,-1.25 -0.2,-1.5 -1.15,-1.5 -1.35,0 -5.35,-3.85 -5.35,-5.15 0,-0.6 -0.4,-0.85 -1.25,-0.85 -0.7,0 -1.4,-0.35 -1.55,-0.75 -0.2,-0.4 -0.6,-0.75 -1,-0.75 -0.4,0 -0.7,-0.35 -0.7,-0.75 0,-0.4 -0.45,-0.75 -0.95,-0.75 -0.55,0 -1.3,-0.3 -1.65,-0.7 -0.4,-0.35 -1.2,-0.85 -1.8,-1 -0.75,-0.25 -1.1,-0.75 -1.1,-1.6 0,-1.5 0.15,-1.5 2.95,0.15 6.25,3.65 12.5,9.35 16.75,15.35 4.4,6.1 8.6,16.95 9.55,24.45 0.35,2.7 0.3,2.85 -0.7,2.85 -0.8,0 -1.05,-0.3 -1.05,-1.35 z" id="path130" />
        <path d="m 548.25,552.4 c 1.3,-9.5 6.25,-20.7 12.15,-27.4 1.55,-1.75 1.55,-1.75 1.6,0.15 0,1.5 -0.15,1.85 -1,1.85 -0.75,0 -1,0.35 -1,1.25 0,0.7 -0.2,1.25 -0.5,1.25 -0.25,0 -0.5,0.35 -0.5,0.75 0,0.4 -0.2,0.75 -0.5,0.75 -0.25,0 -0.5,0.35 -0.5,0.75 0,0.4 -0.2,0.75 -0.4,0.75 -0.2,0 -0.7,0.8 -1.05,1.75 -0.35,0.95 -0.85,1.75 -1.1,1.75 -0.25,0 -0.45,0.45 -0.45,0.95 0,0.55 -0.3,1.3 -0.65,1.65 -0.4,0.35 -0.8,1.25 -1,1.9 -0.15,0.7 -0.85,3.15 -1.55,5.45 -0.7,2.3 -1.45,5.3 -1.6,6.6 -0.25,2 -0.5,2.45 -1.3,2.45 -0.9,0 -0.95,-0.25 -0.65,-2.6 z" id="path131" />
        <path d="m 681.2,544.25 c -8.65,-2.75 -13.8,-10.35 -13.05,-19.35 0.3,-3.75 2,-8 3.85,-9.65 1,-0.9 1,-0.85 1,0.9 0,0.95 -0.15,1.85 -0.35,1.95 -0.9,0.35 -2.3,4.4 -2.5,7.2 -0.3,3.45 0.65,7 2.65,9.95 0.65,1 1.2,2.25 1.2,2.75 0,0.65 0.35,1 0.95,1 0.55,0 2.05,0.65 3.4,1.5 1.3,0.8 3.6,1.75 5.05,2.1 1.9,0.45 2.6,0.85 2.6,1.5 0,1.1 -1.7,1.15 -4.8,0.15 z" id="path132" />
        <path d="m 353.5,543.65 c 0,-0.75 0.6,-1.05 3.05,-1.6 1.7,-0.35 3.4,-0.95 3.8,-1.35 0.4,-0.4 1.1,-0.7 1.55,-0.7 0.5,0 1.1,-0.5 1.35,-1.1 0.3,-0.65 1,-1.35 1.65,-1.65 0.6,-0.25 1.1,-0.85 1.1,-1.25 0,-0.45 0.4,-1.25 0.9,-1.8 1.55,-1.7 2.75,-6 2.4,-8.6 -0.7,-5.2 -0.9,-6.1 -1.6,-6.1 -0.4,0 -0.85,-0.65 -1,-1.5 -0.2,-0.8 -0.6,-1.5 -0.95,-1.5 -0.35,0 -1.45,-0.9 -2.45,-2 -1,-1.1 -2,-2 -2.3,-2 -0.25,0 -0.5,-0.2 -0.5,-0.4 0,-0.65 -5.7,-2.1 -8.4,-2.1 -2.35,0 -2.6,-0.1 -2.6,-1.05 0,-1.05 0.15,-1.1 4.15,-0.8 7.45,0.6 12.65,4.25 16.05,11.35 1.3,2.75 1.55,3.85 1.55,7 0,3.15 -0.25,4.25 -1.55,7 -2.8,5.9 -8.1,10 -13.85,10.8 -2.1,0.3 -2.35,0.25 -2.35,-0.65 z" id="path133" />
        <path d="m 613.7,541.75 c -3.05,-2.1 -6.15,-3.35 -9.8,-4 -2.65,-0.4 -2.6,-1.75 0.05,-1.75 2.35,0 8.25,1.75 9.25,2.75 0.4,0.4 0.95,0.75 1.25,0.75 0.3,0 0.55,0.2 0.55,0.45 0,0.25 0.45,0.55 1,0.7 0.75,0.2 1,0.7 1,1.8 0,0.85 -0.05,1.55 -0.1,1.5 -0.1,0 -1.55,-1 -3.2,-2.2 z" id="path134" />
        <path d="m 641,526.75 c 0,-1.6 -0.15,-1.75 -1.4,-1.75 -1.6,0 -4.6,-2.75 -4.6,-4.15 0,-0.6 -0.4,-0.85 -1.3,-0.85 -0.85,0 -1.4,-0.3 -1.55,-1 -0.15,-0.55 -0.7,-1 -1.2,-1 -0.55,0 -0.95,-0.2 -0.95,-0.5 0,-0.25 -0.35,-0.5 -0.75,-0.5 -0.4,0 -0.75,-0.2 -0.75,-0.45 0,-0.25 -0.55,-0.6 -1.25,-0.75 -0.9,-0.25 -1.25,-0.65 -1.25,-1.55 0,-0.7 0.2,-1.25 0.45,-1.25 0.25,0 2.2,1.15 4.35,2.6 3.85,2.6 10,8.3 12.15,11.3 1.1,1.6 1.1,1.6 -0.4,1.6 -1.45,0 -1.55,-0.15 -1.55,-1.75 z" id="path135" />
        <path d="m 564.75,520.55 c 0.15,-0.3 2.1,-1.85 4.3,-3.55 7.25,-5.45 17.05,-9.3 26.1,-10.25 3.2,-0.35 3.35,-0.3 3.35,0.7 0,0.9 -0.3,1.05 -1.85,1.05 -2.35,0 -9.9,1.65 -12.4,2.7 -1,0.45 -2.3,0.8 -2.8,0.8 -0.55,0 -0.95,0.2 -0.95,0.4 0,0.55 -4.3,2.6 -5.5,2.6 -0.55,0 -1,0.35 -1,0.75 0,0.4 -0.35,0.75 -0.75,0.75 -0.4,0 -0.75,0.25 -0.75,0.5 0,0.3 -0.45,0.5 -1,0.5 -0.55,0 -1,0.35 -1,0.75 0,0.45 -0.45,0.75 -1.25,0.75 -0.9,0 -1.25,0.25 -1.25,1 0,0.8 -0.35,1 -1.8,1 -0.95,0 -1.65,-0.2 -1.45,-0.45 z" id="path136" />
        <path d="m 674.5,512.75 c 1.9,-2.05 6.85,-4.2 10.4,-4.55 2.85,-0.3 3.1,-0.25 3.1,0.65 0,0.85 -0.4,1.05 -2.65,1.3 -2.7,0.25 -7.3,2.1 -8,3.25 -0.2,0.3 -1.2,0.6 -2.2,0.6 -1.8,0 -1.8,0 -0.65,-1.25 z" id="path137" />
        <path d="m 459.4,512.35 c -0.75,-0.7 -10.65,-3.35 -12.6,-3.35 -1,0 -1.3,-0.25 -1.3,-1.05 0,-0.95 0.2,-1 2.65,-0.7 6.05,0.85 15.35,4 15.35,5.2 0,0.75 -3.3,0.7 -4.1,-0.1 z" id="path138" />
        <path d="m 618.5,511.65 c -2.55,-1.1 -10.85,-3.15 -12.8,-3.15 -1.4,0 -1.7,-0.2 -1.7,-1.05 0,-1 0.15,-1.05 3.15,-0.7 6.1,0.7 15.8,3.75 16.25,5.15 0.25,0.85 -2.7,0.7 -4.9,-0.25 z" id="path139" />
        <path d="m 324,508.25 c 0,-0.95 0.25,-1.75 0.5,-1.75 0.3,0 0.5,0.35 0.5,0.75 0,0.65 1.35,0.75 9.25,0.75 8.9,0 9.25,0.05 9.25,1 0,0.95 -0.35,1 -9.75,1 -9.75,0 -9.75,0 -9.75,-1.75 z" id="path140" />
        <path d="m 692,508.75 c 0,-0.4 0.35,-0.75 0.75,-0.75 0.95,0 0.95,-0.4 0,-10.85 -0.9,-10.05 -1.45,-13.95 -3.05,-21.9 -0.65,-3.3 -1.2,-6.15 -1.2,-6.35 0,-0.25 6.2,-0.4 13.75,-0.4 13.75,0 13.75,0 13.75,-3.6 0,-3.65 0,-3.65 -14.6,-3.5 -15.55,0.15 -17.9,0 -17.9,-1.2 0,-0.65 2.15,-0.75 16.95,-0.6 9.35,0.1 17.05,0.25 17.2,0.4 0.1,0.15 0.1,11.35 -0.05,24.9 -0.25,24.6 -0.25,24.6 -12.9,24.6 -10.95,0 -12.7,-0.1 -12.7,-0.75 z" id="path141" />
        <path d="m 323,477.05 c 0,-17.4 0,-17.4 1.9,-17.75 1,-0.15 3.15,-0.3 4.75,-0.3 2.5,0 2.85,0.1 2.85,1 0,0.9 -0.35,1 -3.75,1 -3.75,0 -3.75,0 -3.75,16.75 0,16.4 0,16.75 -1,16.75 -1,0 -1,-0.35 -1,-17.45 z" id="path142" />
        <path d="m 291.1,464.85 c 0.15,-24.1 0.15,-24.1 1.8,-27.45 1.95,-4 5.1,-6.95 8.9,-8.4 2.55,-0.95 3.85,-1 20.65,-1 19.8,0 18.55,-0.2 18.55,3.2 0,2.15 -1.95,3.3 -5.7,3.3 -2.4,0 -2.8,0.15 -2.8,0.95 0,1.15 -0.95,1.55 -3.55,1.55 -1.5,0 -2.25,0.3 -3.2,1.45 -1.2,1.3 -2.5,2 -6.6,3.55 -0.9,0.35 -1.65,0.8 -1.65,1 0,0.25 -1.1,1.1 -2.45,1.95 -1.9,1.15 -2.5,1.85 -2.65,2.9 -0.15,1.25 -0.35,1.4 -2.3,1.55 -1.2,0.1 -2.45,-0.05 -2.8,-0.35 -0.35,-0.3 -0.85,-0.3 -1.3,-0.05 -1.95,1.25 -6.5,0 -6.5,-1.8 0,-0.4 -0.45,-0.7 -1,-0.7 -0.55,0 -1,-0.35 -1,-0.75 0,-0.85 -0.8,-1 -1.25,-0.25 -0.15,0.3 -0.95,0.5 -1.8,0.5 -1.3,0 -1.45,0.15 -1.45,1.7 0,1.5 0.15,1.75 1.4,1.9 1.3,0.15 1.35,0.25 1.5,3.65 0.1,1.95 0.05,5.8 -0.15,8.65 -0.35,4.95 -0.4,5.1 -1.55,5.1 -1.2,0 -1.2,0 -1.2,11 0,10.75 0,11 -1,11 -1.05,0 -1.05,-0.1 -0.9,-24.15 z" id="path143" />
        <path d="m 338.9,461.15 c -0.5,-0.1 -0.9,-0.55 -0.9,-0.95 0,-0.5 0.65,-0.7 2.5,-0.7 1.8,0 2.5,0.2 2.5,0.7 0,1 -2.05,1.5 -4.1,0.95 z" id="path144" />
        <path d="m 360.4,461.15 c -0.5,-0.1 -0.9,-0.55 -0.9,-0.95 0,-0.6 1.85,-0.7 11.5,-0.7 9.45,0 11.5,0.1 11.5,0.7 0,0.35 -0.5,0.8 -1.1,1 -1.3,0.35 -19.7,0.3 -21,-0.05 z" id="path145" />
        <path d="m 398.4,461.15 c -0.5,-0.1 -0.9,-0.55 -0.9,-0.95 0,-0.55 1.05,-0.7 5.25,-0.7 4.15,0 5.25,0.15 5.25,0.7 0,0.35 -0.5,0.8 -1.1,1 -1.3,0.3 -7.2,0.3 -8.5,-0.05 z" id="path146" />
        <path d="m 409.4,461.15 c -0.5,-0.1 -0.9,-0.55 -0.9,-0.95 0,-0.6 2,-0.7 12.5,-0.7 10.3,0 12.5,0.1 12.5,0.7 0,0.35 -0.5,0.8 -1.1,1 -1.3,0.35 -21.7,0.3 -23,-0.05 z" id="path147" />
        <path d="m 434.9,461.15 c -0.5,-0.1 -0.9,-0.55 -0.9,-0.95 0,-0.6 2.4,-0.7 15.25,-0.7 12.65,0 15.25,0.1 15.25,0.7 0,0.35 -0.5,0.8 -1.1,1 -1.3,0.35 -27.2,0.3 -28.5,-0.05 z" id="path148" />
        <path d="m 481.9,461.15 c -0.5,-0.1 -0.9,-0.55 -0.9,-0.95 0,-0.6 3.7,-0.7 25,-0.7 20.95,0 25,0.1 25,0.7 0,0.35 -0.5,0.8 -1.1,1 -1.3,0.35 -46.7,0.3 -48,-0.05 z" id="path149" />
        <path d="m 581.4,461.15 c -0.5,-0.1 -0.9,-0.55 -0.9,-0.95 0,-0.6 2.95,-0.7 19.5,-0.7 16.25,0 19.5,0.1 19.5,0.7 0,0.35 -0.5,0.8 -1.1,1 -1.3,0.35 -35.7,0.3 -37,-0.05 z" id="path150" />
        <path d="m 747.8,441.9 c -0.2,-0.9 -0.45,-2.4 -0.65,-3.25 C 747,437.7 746.6,437 746.2,437 c -0.4,0 -0.7,-0.3 -0.7,-0.7 0,-0.4 -0.35,-0.8 -0.75,-1 -0.4,-0.15 -0.75,-0.75 -0.75,-1.3 0,-0.65 -0.35,-1 -1,-1 -0.55,0 -1.15,-0.35 -1.3,-0.75 -0.2,-0.4 -0.6,-0.75 -0.95,-0.75 -0.4,0 -1.05,-0.4 -1.55,-0.85 -0.8,-0.85 -2.85,-0.9 -23.9,-1.15 -23.05,-0.25 -23.05,-0.25 -23.2,-2.1 -0.15,-1.65 0,-1.9 0.85,-1.9 0.7,0 1.05,0.3 1.05,1 0,0.9 0.55,0.95 21.65,1.1 24.25,0.2 24.3,0.2 28.5,3.9 2.5,2.2 5.15,6.85 5.65,9.9 0.3,1.9 0.2,2.1 -0.7,2.1 -0.7,0 -1.1,-0.45 -1.3,-1.6 z" id="path151" />
        <path d="m 344.5,429 c 0,-0.75 0.35,-1 1.25,-1 0.8,0 1.25,-0.3 1.25,-0.75 0,-0.4 0.35,-0.75 0.75,-0.75 0.5,0 0.75,0.55 0.75,1.75 0,1.7 -0.05,1.75 -2,1.75 -1.65,0 -2,-0.15 -2,-1 z" id="path152" />
        <path d="m 379,427.75 c 0,-1.2 0.25,-1.75 0.75,-1.75 0.4,0 0.75,0.35 0.75,0.75 0,0.6 0.85,0.75 4.5,0.75 4.15,0 4.5,0.05 4.5,1 0,0.95 -0.35,1 -5.25,1 -5.25,0 -5.25,0 -5.25,-1.75 z" id="path153" />
        <path d="m 400.5,428.5 c 0,-0.95 0.3,-1 5,-1 5,0 5,0 5,-1.25 0,-0.95 0.25,-1.25 1.05,-1.25 0.9,0 1,0.25 0.85,2.15 -0.15,2.1 -0.15,2.1 -6,2.25 -5.65,0.15 -5.9,0.1 -5.9,-0.9 z" id="path154" />
        <path d="m 443.3,428.4 c -0.15,-0.65 -0.3,-2.8 -0.3,-4.75 0,-2.8 0.15,-3.65 0.7,-3.65 0.85,0 1.3,1.55 1.3,4.9 0,2.25 0.15,2.75 1,2.95 1.7,0.45 1.2,1.65 -0.7,1.65 -1.3,0 -1.75,-0.25 -2,-1.1 z" id="path155" />
        <path d="m 551.5,428.8 c 0,-0.4 0.55,-0.85 1.25,-1 0.7,-0.2 10.65,-0.3 22.1,-0.3 20.8,0.05 20.8,0.05 20.7,-23.2 -0.1,-23.25 -0.1,-23.3 0.9,-23.3 1.05,0 1.05,0.1 1.05,24.25 0,24.25 0,24.25 -23,24.25 -19.3,0 -23,-0.1 -23,-0.7 z" id="path156" />
        <path d="m 627.8,429.15 c -0.15,-0.15 -0.3,-9.95 -0.3,-21.75 0,-21.05 0,-21.4 1,-21.4 1,0 1,0.35 1,20.75 0,20.75 0,20.75 4.3,20.75 4.3,0 4.3,0 4.05,-29.6 -0.15,-16.3 -0.4,-30.65 -0.6,-31.9 -1.1,-7.55 -1.85,-12.15 -2.55,-15 -4.85,-20.1 -14.7,-37.5 -31.35,-55.4 -2.85,-3.05 -3.8,-4.35 -3.4,-4.75 0.3,-0.3 0.55,-1 0.55,-1.55 0.1,-2.6 2.05,-6.05 5.9,-10.35 0.6,-0.7 1.1,-1.6 1,-2 -0.1,-0.4 0.1,-0.65 0.45,-0.6 0.65,0.15 0.6,-0.7 -0.1,-1.85 -0.5,-0.9 -1.05,-1.3 6.75,4.85 3.15,2.45 6.1,4.65 6.5,4.85 0.4,0.2 -1.6,-1.95 -4.5,-4.8 -10.25,-10.05 -25.9,-20.75 -38.95,-26.6 -11.85,-5.35 -26.55,-9.65 -38.3,-11.25 -6.85,-0.95 -7.25,-1.05 -7.25,-1.8 0,-1.2 4.7,-0.85 14.75,1.05 12.7,2.45 34.75,10.05 34.75,12 0,0.4 0.55,0.7 1.25,0.7 1.25,0 5.25,1.75 5.75,2.5 0.15,0.2 0.75,0.5 1.4,0.7 0.6,0.2 1.1,0.7 1.1,1.1 0,0.4 0.5,0.7 1.25,0.7 0.7,0 1.25,0.25 1.25,0.5 0,0.3 0.35,0.5 0.75,0.5 0.4,0 0.75,0.2 0.75,0.45 0,0.25 0.55,0.6 1.25,0.75 0.7,0.2 1.25,0.55 1.25,0.8 0,0.3 0.35,0.5 0.75,0.5 0.4,0 0.75,0.25 0.75,0.5 0,0.3 0.35,0.5 0.75,0.5 0.4,0 0.75,0.35 0.75,0.75 0,0.4 0.45,0.75 1,0.75 0.55,0 1,0.25 1,0.5 0,0.3 0.35,0.5 0.75,0.5 0.35,0 0.9,0.3 1.1,0.65 0.2,0.4 0.8,0.8 1.3,1 0.45,0.15 0.85,0.65 0.85,1.1 0,0.4 0.45,0.75 1,0.75 0.55,0 1,0.3 1,0.7 0,0.4 0.5,0.8 1.15,0.9 0.7,0.1 1.15,0.55 1.25,1.25 0.1,0.75 0.55,1.15 1.5,1.25 0.95,0.1 1.4,0.5 1.5,1.3 0.1,0.7 0.5,1.1 1.2,1.1 1.3,0 10.4,8.6 14.6,13.8 10.95,13.55 18.45,26.75 23.7,41.75 5.25,14.8 7,23.4 7.6,37.6 0.45,10.7 0.85,59.7 0.45,60.05 -0.4,0.3 -33.3,0.8 -33.65,0.45 z" id="path157" />
        <path d="m 692,415.75 c 0,-5.4 0.15,-6.75 0.7,-6.75 1,0 1.3,1.65 1.3,7.9 0,5.25 -0.05,5.6 -1,5.6 -0.95,0 -1,-0.35 -1,-6.75 z" id="path158" />
        <path d="m 347.25,395.65 c -0.65,-9.05 0.05,-31.5 1.2,-38.9 5.35,-35.4 19.95,-65.9 44.65,-93.1 7.65,-8.5 15.65,-15.35 26.9,-23.2 19.7,-13.75 37.65,-22 59.75,-27.5 13.7,-3.4 27,-4.95 42,-4.95 10.05,0 11.75,0.2 11.75,1.3 0,0.55 -1,0.7 -4.65,0.7 -4.65,0 -4.65,0 -4.45,1.95 0.15,1.75 0.05,2.05 -1.35,2.85 -0.85,0.5 -1.55,1.15 -1.55,1.5 0,0.3 -0.95,0.85 -2.1,1.2 -2.9,0.95 -6.4,3.65 -7.7,5.9 -0.8,1.3 -2,2.3 -4.25,3.45 -3.6,1.8 -4.85,2.8 -5.05,4.3 -0.1,0.65 -1.2,1.55 -3.25,2.65 -1.7,0.9 -3.9,2.2 -4.9,2.85 -1.65,1.1 -1.75,1.3 -1.05,2 0.45,0.45 0.8,1 0.8,1.3 0,0.3 0.35,0.55 0.75,0.55 0.45,0 0.75,-0.45 0.75,-1.25 0,-1.1 0.2,-1.25 2,-1.25 1.45,0 2,0.2 2,0.75 0,0.65 0.7,0.7 4.75,0.45 4.15,-0.3 4.75,-0.25 4.75,0.45 0,0.85 -0.25,0.9 -7.5,1.85 -18.4,2.4 -36.75,8.9 -52.9,18.8 -19.4,11.9 -33.5,25.35 -44.7,42.7 -13.85,21.4 -20.35,39.3 -23.35,64.2 -0.3,2.55 -0.8,4.65 -1.15,4.9 -0.5,0.25 -0.4,0.4 0.25,0.4 0.75,0 0.85,0.75 0.85,8.25 0,7.9 -0.05,8.25 -1,8.25 -0.95,0 -1,-0.35 -1,-8.25 0,-8.25 0,-8.25 -1.25,-8.25 -0.7,0 -1.75,-0.3 -2.3,-0.6 -0.9,-0.55 -1.15,-0.5 -1.35,0.05 -0.1,0.4 -0.95,1.5 -1.85,2.5 -0.9,1 -2,2.8 -2.4,4.05 -1.7,4.9 -2.85,6.9 -4.35,7.6 -0.85,0.35 -1.5,0.85 -1.5,1.05 0,0.2 -1.05,0.85 -2.35,1.4 -1.35,0.55 -3.2,1.35 -4.2,1.8 -1.4,0.55 -2.1,1.35 -3,3.3 -0.65,1.45 -1.4,2.75 -1.6,2.9 -0.25,0.15 -0.55,1.25 -0.7,2.4 -0.25,2 -0.35,2.05 -2.15,2.05 -1.9,0 -1.9,0 -2.25,-5.35 z" id="path159" />
        <path d="m 410.5,375.3 c 0,-4.45 1.45,-14.1 3.1,-20.8 4.9,-20.05 15,-37.2 31.1,-53.2 10.6,-10.4 25.1,-19.55 38.55,-24.3 5.7,-2 15.1,-4.3 21.35,-5.25 6.55,-1 7.4,-0.95 7.4,0.2 0,0.8 -0.55,0.95 -3.6,1.25 -5.3,0.5 -5.4,0.55 -5.4,2.85 0,1.05 -0.2,1.95 -0.5,1.95 -0.25,0 -0.5,0.25 -0.5,0.55 0,0.3 -0.35,0.85 -0.75,1.25 -0.4,0.45 -0.75,1.2 -0.75,1.7 0,1.9 -4.4,5.05 -9.9,7.05 -0.9,0.35 -3.3,2.15 -5.25,4.1 -2,1.9 -4.85,4.25 -6.35,5.2 -1.5,1 -4.3,3.1 -6.15,4.7 -1.9,1.65 -3.7,2.95 -4.05,2.95 -0.3,0 -1.9,1.1 -3.55,2.5 -1.65,1.4 -3.2,2.5 -3.55,2.5 -1.25,0 -5.85,4.35 -7.3,7 -0.85,1.5 -2.55,3.9 -3.8,5.25 -1.25,1.4 -2.85,3.2 -3.6,4 -1.15,1.35 -2.55,3.6 -5.55,9.2 -0.5,0.95 -1.4,2.2 -1.95,2.8 -0.55,0.6 -1.6,2.85 -2.3,5.05 -1.9,5.8 -3.85,9.5 -7.05,13.55 -3.2,3.9 -7.75,7.65 -9.45,7.65 -0.6,0 -1.35,0.35 -1.7,0.75 -0.35,0.4 -1.1,0.75 -1.7,0.75 -1.85,0.05 -2.8,1.2 -2.8,3.5 0,1.65 -0.2,2.15 -1,2.35 -0.85,0.25 -1,0.7 -1,2.95 0,2.35 -0.1,2.7 -1,2.7 -0.9,0 -1,-0.35 -1,-2.7 z" id="path160" />
        <path d="m 627.35,371.65 c -0.45,-7.05 -2.6,-17.95 -4.9,-24.9 -1.9,-5.75 -7.4,-17.6 -8.95,-19.35 -0.4,-0.45 -1.3,-1.9 -2,-3.2 -0.7,-1.3 -1.65,-2.8 -2.1,-3.3 -0.5,-0.5 -0.9,-1.2 -0.9,-1.6 0,-0.4 -0.35,-0.8 -0.75,-1 -0.4,-0.15 -0.75,-0.6 -0.75,-1 0,-0.35 -0.35,-0.8 -0.75,-1 -0.4,-0.15 -0.75,-0.6 -0.75,-1 0,-0.35 -0.35,-0.8 -0.75,-1 -0.4,-0.15 -0.75,-0.65 -0.75,-1.15 0,-0.5 -0.5,-1.15 -1.1,-1.4 -0.7,-0.3 -1.2,-1.05 -1.3,-1.85 -0.1,-0.95 -0.45,-1.4 -1.05,-1.4 -0.45,0 -3.05,-2.25 -5.8,-5 -2.7,-2.75 -5.05,-5 -5.3,-5 -0.2,0 -0.8,-0.55 -1.35,-1.25 -0.55,-0.7 -1.25,-1.25 -1.55,-1.25 -0.35,0 -0.7,-0.35 -0.85,-0.75 -0.2,-0.4 -0.5,-0.75 -0.7,-0.75 -0.2,0 -3.2,-1.9 -6.6,-4.15 -10,-6.75 -21.85,-12.15 -33.25,-15.1 -5.65,-1.5 -14.55,-2.75 -19.15,-2.75 -3.15,0 -3.5,-0.1 -3.5,-1 0,-0.9 0.35,-1 2.75,-1 13.6,0 30.45,4.55 44.75,12.1 20,10.55 34.6,24.85 46.5,45.55 7.35,12.85 11.9,28.2 12.85,43.2 0.3,4.9 0.25,5.15 -0.7,5.15 -0.9,0 -1.05,-0.45 -1.3,-4.85 z" id="path161" />
        <path d="m 443,371.9 c 0,-3.8 1.5,-11.55 3.25,-16.8 1.7,-5 4.95,-12.55 5.65,-13.1 0.2,-0.15 0.9,-1.3 1.55,-2.6 0.65,-1.35 1.4,-2.4 1.6,-2.4 0.25,0 0.45,-0.35 0.45,-0.75 0,-0.4 0.25,-0.75 0.5,-0.75 0.3,0 0.5,-0.35 0.5,-0.75 0,-0.4 0.25,-0.75 0.5,-0.75 0.3,0 0.5,-0.35 0.5,-0.75 0,-0.35 0.3,-0.9 0.65,-1.1 0.4,-0.2 0.8,-0.8 1,-1.25 0.15,-0.5 0.8,-0.9 1.35,-0.9 0.7,0 1,-0.35 1,-1.2 0,-1.5 1.1,-2.4 2.75,-2.2 1.3,0.15 1.3,0.15 -1.25,3.15 -8.6,10.05 -16,25.6 -17.5,36.75 -0.3,2.35 -0.7,5 -0.8,5.9 -0.4,2.5 -1.7,2.1 -1.7,-0.5 z" id="path162" />
        <path d="m 595.25,369.65 c -1.3,-8.55 -2.55,-13.15 -5.7,-21 C 588.5,346 588.5,346 589.7,346 c 0.95,0 1.4,0.6 2.75,4.1 2.2,5.65 3.95,12.65 4.35,17.4 0.3,3.45 0.25,4 -0.45,4 -0.55,0 -0.9,-0.6 -1.1,-1.85 z" id="path163" />
        <path d="m 691.3,364.65 c -0.8,-8.65 -3.6,-22.2 -6.65,-32 -1,-3.25 -1.9,-6.5 -2.05,-7.25 -0.1,-0.8 -0.4,-1.4 -0.65,-1.4 -0.2,0 -0.55,-0.85 -0.75,-1.85 -0.2,-1.05 -0.5,-2 -0.65,-2.15 -0.5,-0.4 -1.55,-2.95 -1.55,-3.8 0,-0.45 -0.35,-1.1 -0.75,-1.5 -0.4,-0.45 -0.75,-1.2 -0.75,-1.75 0,-0.55 -0.35,-1.35 -0.75,-1.75 -0.85,-0.85 -1.05,-4.2 -0.2,-4.2 0.55,0 1.95,3 5.05,10.75 5.45,13.55 9.1,27.85 11.15,43.25 0.95,7.25 0.95,7.5 -0.2,7.5 -0.8,0 -0.95,-0.55 -1.25,-3.85 z" id="path164" />
        <path d="m 584.65,339.15 c -1.4,-2.45 -3.65,-5.7 -5,-7.35 -1.3,-1.6 -2.95,-3.55 -3.6,-4.35 -1.2,-1.45 -1.2,-1.45 0.3,-1.45 1.8,0 2.65,0.8 2.65,2.6 0,1.15 0.2,1.4 1.3,1.4 0.85,0 1.4,0.3 1.55,1 0.15,0.55 0.45,1 0.7,1 0.25,0 0.45,0.45 0.45,1 0,0.55 0.35,1 0.75,1 0.4,0 0.75,0.35 0.75,0.75 0,0.4 0.2,0.75 0.5,0.75 0.25,0 0.6,0.55 0.8,1.25 0.15,0.7 0.45,1.25 0.65,1.25 0.6,0 1.55,2.45 1.55,4 0,0.85 -0.15,1.5 -0.4,1.5 -0.2,0 -1.5,-1.95 -2.95,-4.35 z" id="path165" />
        <path d="m 468,322.65 c 0,-1.4 1.7,-3.65 2.8,-3.65 0.25,0 0.75,-0.45 1.1,-1 0.35,-0.55 1.05,-1 1.6,-1 0.55,0 1,-0.35 1,-0.75 0,-0.4 0.35,-0.75 0.75,-0.75 0.4,0 0.75,-0.2 0.75,-0.5 0,-0.25 0.35,-0.5 0.75,-0.5 0.4,0 0.75,-0.2 0.75,-0.5 0,-0.25 0.35,-0.5 0.75,-0.5 0.4,0 0.75,-0.2 0.75,-0.5 0,-0.25 0.3,-0.5 0.7,-0.5 0.4,0 0.8,-0.2 0.9,-0.4 0.35,-0.85 4.95,-3.1 6.35,-3.1 1,0 1.55,-0.25 1.55,-0.7 0,-1.9 15.15,-6.4 24.15,-7.15 3.35,-0.25 3.85,-0.2 3.85,0.5 0,0.5 -0.55,0.9 -1.6,1.05 -0.9,0.15 -3.85,0.6 -6.55,1.05 -12.1,1.95 -26.2,8.45 -35.6,16.45 -5,4.25 -4.75,4.15 -4.75,2.45 z" id="path166" />
        <path d="m 568,319.95 c -10.8,-8.8 -23.95,-14.6 -37,-16.4 -7.35,-1.05 -7.5,-1.05 -7.5,-1.8 0,-0.55 0.65,-0.75 2.65,-0.75 4.75,0.05 21.85,4 21.85,5.05 0,0.25 0.55,0.45 1.2,0.45 0.7,0 1.55,0.35 2,0.75 0.4,0.4 1.1,0.75 1.5,0.75 1.3,0 5.3,2.15 5.3,2.85 0,0.35 0.55,0.65 1.2,0.65 0.7,0 1.55,0.35 2,0.75 0.4,0.4 0.95,0.75 1.25,0.75 0.3,0 0.55,0.25 0.55,0.5 0,0.3 0.35,0.5 0.75,0.5 0.4,0 0.75,0.35 0.75,0.75 0,0.45 0.45,0.75 1.05,0.75 0.6,0 1.15,0.4 1.3,1 0.15,0.55 0.7,1 1.2,1 0.55,0 0.95,0.35 0.95,0.75 0,0.4 0.4,0.75 0.95,0.75 1.3,0 2.15,1.2 1.95,2.7 -0.15,1.25 -0.25,1.2 -3.9,-1.75 z" id="path167" />
        <path d="m 671.6,301.25 c -0.35,-0.7 -0.6,-1.95 -0.6,-2.75 0,-1.15 -0.25,-1.5 -1,-1.5 -0.75,0 -1,-0.35 -1,-1.25 0,-0.8 -0.3,-1.25 -0.75,-1.25 -0.4,0 -0.75,-0.35 -0.75,-0.75 0,-0.4 -0.2,-0.75 -0.5,-0.75 -0.25,0 -0.5,-0.55 -0.5,-1.25 0,-0.8 -0.3,-1.25 -0.75,-1.25 -0.4,0 -0.75,-0.35 -0.75,-0.75 0,-0.4 -0.2,-0.75 -0.5,-0.75 -0.25,0 -0.5,-0.35 -0.5,-0.75 0,-0.4 -0.2,-0.75 -0.5,-0.75 -0.25,0 -0.5,-0.35 -0.5,-0.75 0,-0.4 -0.2,-0.75 -0.5,-0.75 -0.25,0 -0.5,-0.65 -0.5,-1.5 0,-1.15 -0.2,-1.5 -1,-1.5 -0.55,0 -1,-0.35 -1,-0.75 0,-0.4 -0.2,-0.75 -0.5,-0.75 -0.25,0 -0.5,-0.3 -0.5,-0.7 0,-0.4 -0.35,-0.8 -0.75,-1 -0.4,-0.15 -0.75,-0.6 -0.75,-1.05 0,-0.4 -0.2,-0.75 -0.5,-0.75 -0.25,0 -0.5,-0.45 -0.5,-1 0,-0.55 -0.35,-1 -0.75,-1 -0.45,0 -0.75,-0.45 -0.75,-1.25 0,-0.9 -0.25,-1.25 -1,-1.25 -0.75,0 -1,-0.35 -1,-1.2 0,-0.9 -0.3,-1.25 -1.1,-1.4 -0.85,-0.1 -1.2,-0.55 -1.3,-1.5 -0.1,-0.95 -0.45,-1.4 -1.05,-1.4 -1.3,0 -2.05,-1.05 -2.05,-2.9 0,-1.55 0.1,-1.65 0.8,-1.05 2,1.65 11.35,13.85 15.85,20.7 4.65,7.1 10.35,16.65 10.35,17.4 0,0.2 -0.55,0.35 -1.15,0.35 -0.8,0 -1.4,-0.45 -1.75,-1.25 z" id="path168" />
        <path d="m 512.5,271.8 c 0,-0.9 1.55,-1.3 5.4,-1.3 2.75,0 3.1,0.1 3.1,1 0,0.9 -0.35,1 -4.25,1 -3.3,0 -4.25,-0.15 -4.25,-0.7 z" id="path169" />
        <path d="m 640.1,258.85 c -3.1,-3.15 -4.1,-4.45 -4.1,-5.5 0,-1.2 -0.15,-1.35 -1.8,-1.35 -1.35,0 -1.85,-0.25 -2.05,-1 -0.15,-0.55 -0.7,-1 -1.25,-1 -0.55,0 -1.1,-0.45 -1.25,-1 -0.15,-0.55 -0.7,-1 -1.2,-1 -0.55,0 -1.1,-0.35 -1.25,-0.75 -0.2,-0.4 -0.6,-0.75 -1,-0.75 -0.4,0 -0.7,-0.35 -0.7,-0.75 0,-0.4 -0.45,-0.75 -1,-0.75 -0.55,0 -1,-0.35 -1,-0.75 0,-0.4 -0.45,-0.75 -1,-0.75 -0.55,0 -1.15,-0.35 -1.3,-0.75 -0.2,-0.4 -0.6,-0.75 -1,-0.75 -0.4,0 -0.7,-0.2 -0.7,-0.5 0,-0.25 -0.35,-0.5 -0.75,-0.5 -0.4,0 -0.75,-0.2 -0.75,-0.5 0,-0.25 -0.35,-0.5 -0.75,-0.5 -0.4,0 -0.75,-0.2 -0.75,-0.5 0,-0.25 -0.35,-0.5 -0.75,-0.5 -0.4,0 -0.75,-0.2 -0.75,-0.5 0,-0.25 -0.35,-0.5 -0.75,-0.5 -0.4,0 -0.75,-0.2 -0.75,-0.5 0,-0.25 -0.35,-0.5 -0.75,-0.5 -0.4,0 -0.75,-0.2 -0.75,-0.5 0,-0.25 -0.3,-0.5 -0.7,-0.5 -0.4,0 -1.05,-0.3 -1.4,-0.7 -0.4,-0.35 -1.2,-0.85 -1.8,-1 -0.6,-0.2 -1.1,-0.7 -1.1,-1.1 0,-0.4 -0.45,-0.7 -0.95,-0.7 -1.5,0 -2.55,-0.55 -2.55,-1.3 0,-0.4 -0.45,-0.7 -1,-0.7 -0.55,0 -2.45,-0.7 -4.25,-1.6 -2.6,-1.3 -3.25,-1.85 -3.25,-2.75 0,-0.65 0.1,-1.15 0.25,-1.15 0.5,0 6.55,3.15 11.75,6.15 8.8,5.05 19.4,12.45 27,18.8 3.95,3.3 10.95,10.05 12.1,11.65 0.95,1.4 0.95,1.4 -0.45,1.4 -1.1,0 -2.3,-0.9 -5.55,-4.15 z" id="path170" />
        <path d="m 509.5,239.5 c 0,-0.9 0.35,-1 4.25,-1 3.3,0 4.25,0.15 4.25,0.7 0,0.9 -1.55,1.3 -5.35,1.3 -2.8,0 -3.15,-0.1 -3.15,-1 z" id="path171" />
        <path d="m 524.9,240.15 c -0.5,-0.1 -0.9,-0.55 -0.9,-0.95 0,-0.55 0.75,-0.7 3.25,-0.7 2.9,0 3.25,0.1 3.25,1 0,0.85 -0.3,1 -2.35,0.95 -1.35,-0.05 -2.8,-0.15 -3.25,-0.3 z" id="path172" />
        <path d="m 590.15,224.9 c -0.65,-0.3 -1.15,-0.75 -1.15,-1 0,-0.2 -0.4,-0.4 -0.85,-0.4 -1.25,0 -5.15,-1.55 -5.15,-2.05 0,-0.25 -0.35,-0.45 -0.75,-0.45 -0.4,0 -3.8,-1.05 -7.6,-2.3 -11.95,-3.95 -25.75,-7 -36,-8 -3.1,-0.3 -3.65,-0.45 -3.65,-1.25 0,-1.15 0.25,-1.15 7.5,-0.2 11.75,1.55 21.7,3.85 32.95,7.55 8.05,2.7 18.65,7.2 18.95,8.1 0.25,0.75 -2.65,0.75 -4.25,0 z" id="path173" />
    </g>
    <g fill="#1c1933" id="g187" transform="translate(-290.5,-208)">
        <path d="m 509.5,826.15 c -30.5,-2.1 -58.1,-9.2 -86.05,-22.15 -27,-12.5 -53.9,-33.15 -74.75,-57.25 -19.25,-22.3 -29.9,-39.25 -41.1,-65.5 -5.1,-11.9 -8,-20.55 -11.3,-33.45 -4.8,-18.6 -4.35,-10.85 -4.75,-85.3 -0.2,-36.15 -0.25,-78.55 -0.1,-94.25 0.3,-28.5 0.3,-28.5 1.7,-31.1 1.8,-3.45 4.4,-6 7.8,-7.6 2.8,-1.3 2.8,-1.3 24.35,-1.3 21.55,0 21.55,0 21.9,-29.15 0.45,-36.6 0.8,-41.1 4,-55.35 1.95,-8.6 3.3,-13.45 3.65,-13.05 0.15,0.1 -0.3,2.2 -1,4.65 -1.65,5.75 -3.6,15.15 -4.4,21.15 -0.75,5.85 -0.85,11.85 -0.55,29.4 0.25,12.85 0.6,16.25 1.25,11.55 0.15,-1.15 0.45,-2.25 0.7,-2.4 0.2,-0.15 0.95,-1.45 1.6,-2.9 0.9,-1.95 1.6,-2.75 3,-3.3 1,-0.45 2.85,-1.25 4.2,-1.8 1.3,-0.55 2.35,-1.2 2.35,-1.4 0,-0.2 0.65,-0.7 1.5,-1.05 1.5,-0.7 2.65,-2.7 4.35,-7.6 0.4,-1.25 1.45,-3.05 2.35,-4.1 0.85,-1 1.9,-2.35 2.35,-2.95 0.7,-1.05 0.95,-1.1 1.65,-0.5 0.45,0.4 0.95,0.55 1.15,0.35 0.15,-0.15 0.75,0.05 1.25,0.55 0.6,0.5 0.9,0.6 0.9,0.2 0,-0.35 0.2,-0.5 0.45,-0.3 0.3,0.15 0.6,-0.8 0.75,-2.1 0.2,-1.35 0.55,-3.35 0.8,-4.55 0.3,-1.15 0.5,-2.9 0.5,-3.85 0,-3.75 3.65,-17.1 7,-25.5 2.3,-5.8 2.85,-5.8 0.8,0 -2.25,6.6 -4.55,14.6 -5.5,19.25 -1.9,9.8 -2.15,16.4 -1.9,54 0.1,20.25 0.1,20.25 15.1,20.25 14.95,0 14.95,0 15.15,-28.75 0.25,-31.25 0.3,-32.25 3.35,-44.85 2.55,-10.55 7.05,-21.1 13.15,-30.95 3.25,-5.25 10.2,-14 13.65,-17.2 3.1,-2.9 1.85,-1.2 -2.15,2.95 -1.75,1.8 -3.15,3.45 -3.15,3.65 0,0.2 -0.8,1.25 -1.75,2.25 -0.95,1 -1.75,2.1 -1.75,2.45 0,0.3 -0.35,0.9 -0.8,1.25 -2.2,1.8 -10.85,17.4 -11.4,20.45 -0.05,0.15 -0.65,1.6 -1.4,3.3 -0.75,1.65 -1.45,3.45 -1.55,4 -0.05,0.5 -0.25,1.2 -0.45,1.45 -0.35,0.6 -1.25,3.9 -1.65,6.1 -0.15,0.9 -0.45,2.1 -0.7,2.75 -0.25,0.65 -0.45,1.3 -0.45,1.55 0,0.2 -0.15,1 -0.3,1.75 -0.6,2.6 -1.75,10.85 -1.55,11 0.6,0.6 1.25,-0.75 1.15,-2.45 -0.1,-2.15 0.95,-3.4 2.9,-3.45 0.6,0 1.35,-0.35 1.7,-0.75 0.35,-0.4 1.1,-0.75 1.7,-0.75 1.7,0 6.25,-3.75 9.45,-7.65 3.2,-4.05 5.15,-7.75 7.05,-13.55 0.7,-2.2 1.75,-4.45 2.3,-5.05 0.55,-0.6 1.45,-1.85 1.95,-2.8 3,-5.6 4.4,-7.85 5.55,-9.2 0.75,-0.8 2.35,-2.6 3.6,-4 1.25,-1.35 2.95,-3.75 3.8,-5.25 1.45,-2.65 6.05,-7 7.3,-7 0.35,0 1.9,-1.1 3.55,-2.5 1.65,-1.35 3.25,-2.5 3.55,-2.5 0.35,0 2.15,-1.3 4.05,-2.95 1.85,-1.6 4.65,-3.7 6.15,-4.7 1.5,-0.95 4.35,-3.3 6.35,-5.2 1.95,-1.95 4.35,-3.75 5.25,-4.1 5.35,-1.95 10.25,-5.4 9.7,-6.8 -0.1,-0.35 0.2,-1.1 0.75,-1.65 0.5,-0.6 0.95,-1.25 0.95,-1.55 0,-0.25 0.3,-0.55 0.65,-0.7 0.45,-0.15 0.4,-0.45 -0.25,-1.1 -0.5,-0.55 -1.05,-0.7 -1.45,-0.45 -0.4,0.2 -1.9,0.45 -3.45,0.45 -1.5,0.05 -3.1,0.2 -3.5,0.35 -0.4,0.15 -2.1,0.6 -3.75,0.95 -1.65,0.35 -3.2,0.8 -3.5,1.05 -0.25,0.2 -0.85,0.4 -1.35,0.4 -0.5,0 -1.3,0.2 -1.8,0.45 -0.45,0.25 -1.4,0.65 -2.1,0.95 -4.45,1.8 -8.3,3.5 -12,5.45 -2.35,1.2 -3.7,1.75 -3,1.15 2.2,-1.8 13.1,-6.9 19,-8.9 10.8,-3.65 19.25,-5.35 31,-6.1 24.4,-1.55 46.55,4.9 68,19.9 9.85,6.9 20.65,17.85 27.25,27.6 9.4,14 14.4,25.6 16.95,39.55 1.95,10.5 2.2,16.7 1.9,44 -0.15,14.6 -0.05,25.4 0.2,25.6 0.25,0.15 7.25,0.1 15.6,-0.05 15.15,-0.35 15.15,-0.35 15.1,-23.6 -0.05,-38.6 -0.75,-47.35 -4.75,-61.25 -5.8,-20.05 -13.95,-35.7 -27.1,-52 -7.45,-9.2 -22.95,-22.2 -36.4,-30.5 -15.65,-9.7 -33.5,-16 -54.5,-19.35 -6.35,-1 -29.15,-0.85 -36.25,0.25 -16.7,2.6 -29.25,6.65 -44.25,14.3 -6.8,3.45 -7.95,3.95 -6.25,2.55 0.7,-0.55 1.55,-1 1.9,-1 0.3,0 0.6,-0.2 0.6,-0.45 0,-0.45 1.25,-1.1 14.25,-7.3 7.25,-3.5 8.5,-3.95 15.5,-5.75 3,-0.8 5.7,-1.8 6,-2.15 0.35,-0.5 1.1,-0.65 2.25,-0.45 1.55,0.2 1.65,0.15 0.95,-0.55 -0.45,-0.4 -1.65,-0.95 -2.65,-1.1 -2.2,-0.45 -2.7,-1.05 -1.2,-1.55 0.6,-0.15 3,-1.5 5.35,-2.95 2.4,-1.45 5,-2.95 5.8,-3.3 0.85,-0.4 1.55,-1.15 1.65,-1.75 0.2,-1.55 1.4,-2.55 5.05,-4.35 2.25,-1.15 3.45,-2.15 4.25,-3.45 1.3,-2.25 4.8,-4.95 7.7,-5.9 1.15,-0.35 2.1,-0.9 2.1,-1.2 0,-0.35 0.7,-1 1.55,-1.5 1.2,-0.7 1.4,-1.05 0.9,-1.35 -0.4,-0.25 -0.45,-0.45 -0.2,-0.45 0.3,0 0.1,-0.25 -0.35,-0.55 -0.5,-0.25 -0.9,-0.85 -0.9,-1.3 0,-0.7 -0.7,-0.75 -5.85,-0.45 -8.9,0.5 -16.5,1.15 -20.4,1.85 -1.9,0.3 -3.95,0.6 -4.5,0.6 -1.55,0 -16.95,3.7 -22.4,5.4 -2.7,0.85 -5,1.45 -5.15,1.35 -0.5,-0.55 16.1,-5.25 24.05,-6.8 39.15,-7.8 79.9,-2 114,16.3 15.95,8.5 28.7,17.65 39.7,28.35 10.65,10.4 17.8,19.35 26.6,33.25 11.9,18.75 19.75,38.9 23.9,61.25 2.25,12.05 2.5,17.1 2.65,47.75 0.15,29.25 0.15,29.25 22.65,29.5 22.25,0.25 22.5,0.25 24.65,1.4 2.95,1.55 5.8,4.65 7.45,8 1.4,2.85 1.4,2.85 1.4,93.35 0,95.5 0.1,92 -2.25,104.5 -4.15,22.2 -14.45,50.05 -25.6,69.5 -13.45,23.3 -26.1,39.7 -43.2,56 -14.55,13.85 -19.8,18.15 -32.45,26.6 -22.4,14.95 -48.2,26.3 -72.85,32.1 -4.45,1.05 -23.3,4.55 -29.65,5.5 -9.1,1.35 -24.25,1.9 -34.25,1.2 z m 34,-35.35 c 25.35,-3.15 50.35,-11.95 73,-25.55 13.25,-8 14.85,-9.1 27.1,-18.9 10.25,-8.2 28.2,-27.4 36.75,-39.35 5.85,-8.15 15.1,-24.3 19.15,-33.5 1.15,-2.6 2.65,-6 3.35,-7.5 2.4,-5.25 4.55,-10.8 5.8,-15 3.3,-11.1 6.4,-23.65 5.95,-24.1 -0.2,-0.2 -7.65,-0.4 -16.6,-0.5 -16.25,-0.15 -16.25,-0.15 -19.35,-1.6 -4.1,-1.9 -8.1,-6.05 -9.55,-9.95 -3.15,-8.45 0.9,-18.75 9,-22.9 3.65,-1.85 4.8,-1.95 19.3,-1.95 7.75,0 15,-0.15 16.05,-0.3 1.9,-0.3 1.9,-0.3 2.25,-14.15 0.15,-7.6 0.35,-17.5 0.35,-22.05 0.05,-8.25 0.05,-8.25 -16.65,-8.5 -18.2,-0.3 -18.5,-0.35 -23.45,-3.55 -7.3,-4.65 -9.9,-15.7 -5.6,-23.6 2.65,-4.8 8.15,-8.5 14,-9.35 1.85,-0.25 9.75,-0.5 17.5,-0.5 14.1,0 14.1,0 14.2,-19.35 0.1,-10.7 0.15,-21.2 0.15,-23.4 0.05,-4 0.05,-4 -194.45,-4.25 -107,-0.15 -195.1,-0.15 -195.85,-0.05 -1.4,0.15 -1.4,0.15 -1.35,15 0.05,8.15 0.2,18.75 0.4,23.55 0.3,8.75 0.3,8.75 15.55,8.75 18.2,0 19.3,0.25 24.05,4.6 3.45,3.2 5.2,6.05 6.25,10.1 1.3,5.1 -0.35,10.65 -4.45,15.35 -4.9,5.6 -7.45,6.2 -26.7,6.2 -14.65,0 -14.65,0 -14.65,22.7 0,22.75 0,22.75 16.1,22.9 16.15,0.15 16.15,0.15 19.45,1.75 3.95,1.95 7.35,5.25 9.25,9.1 1.25,2.4 1.45,3.4 1.45,7.05 0,3.55 -0.2,4.7 -1.35,7.1 -1.85,4 -5.25,7.45 -9.05,9.2 -3.1,1.45 -3.1,1.45 -19.25,1.6 -18.85,0.15 -17.3,-1.05 -14.15,11.2 4.65,17.95 12.25,37 20.95,52.15 10.75,18.75 25.25,36.75 41.35,51.2 24.45,21.95 48.85,35.85 78.1,44.5 8.1,2.4 27.6,6 36.4,6.75 5.4,0.45 33.7,-0.2 39.25,-0.9 z M 294.45,455.65 c 0.05,-2.25 -0.15,-4.25 -0.45,-4.4 -0.35,-0.2 -0.45,2.25 -0.45,7.1 0.1,5.85 0.2,6.75 0.45,4.4 0.2,-1.65 0.4,-4.85 0.45,-7.1 z m 10.75,-8.9 c 1.5,-1.6 2.5,-1.6 3.25,0.05 0.75,1.7 2.25,1.4 2.45,-0.45 0.15,-1.05 0.75,-1.75 2.65,-2.9 1.35,-0.85 2.45,-1.7 2.45,-1.95 0,-0.2 0.75,-0.65 1.65,-1 4.1,-1.55 5.4,-2.25 6.6,-3.55 1,-1.15 1.7,-1.45 3.4,-1.45 3,0 4.15,-0.85 1.85,-1.35 -1.75,-0.35 -1.75,-0.35 -0.25,-0.7 0.85,-0.2 2.8,-0.35 4.4,-0.4 4,-0.05 8.1,-2.45 4.5,-2.6 -1.4,-0.05 -1.4,-0.05 -0.15,-0.4 1.5,-0.45 -12.4,-1.05 -23.55,-1.05 -10.95,0 -15,1.1 -17.6,4.9 -0.75,1.05 -1.5,2.8 -1.6,3.85 -0.15,1.05 -0.35,2.05 -0.5,2.15 -0.1,0.15 0,0.65 0.25,1.1 0.35,0.65 0.3,1 -0.25,1.2 -0.4,0.15 -0.75,0.75 -0.75,1.35 0,1.05 0.05,1.1 1,0.2 0.55,-0.5 1.15,-0.75 1.35,-0.6 0.15,0.2 0.7,0 1.2,-0.45 0.8,-0.7 0.9,-0.65 1.2,0.8 0.25,1.25 0.55,1.5 1.3,1.25 0.7,-0.25 0.95,-0.05 0.95,0.7 0,0.9 1.7,2.55 2.65,2.55 0.2,0 0.9,-0.55 1.55,-1.25 z m 290.65,-48.1 c -0.3,-32.1 -0.45,-33.7 -3.35,-42.7 -2,-6.15 -6.35,-15.1 -9.8,-20.25 -6.45,-9.55 -18.1,-19.8 -28.45,-24.9 -7,-3.5 -12.75,-5.4 -21.25,-7.1 -6.1,-1.2 -7.45,-1.3 -14.7,-1.05 -11.85,0.35 -19.7,2.35 -30.35,7.6 -8.15,4 -13.95,8.2 -20.7,15 -9.25,9.2 -15.45,19.15 -19.45,31.25 -3.1,9.35 -3.3,11.6 -3.3,42 0,15 0.15,27.75 0.3,28.4 0.3,1.1 0.3,1.1 75.85,1.1 75.5,0 75.5,0 75.2,-29.35 z" id="path174" />
        <path d="m 493.5,786.7 c -3.65,-1.45 -4.5,-1.95 -2.25,-1.4 1.75,0.4 6.75,2.6 6,2.6 -0.25,0.05 -1.95,-0.55 -3.75,-1.2 z" id="path175" />
        <path d="m 514.6,751.75 c -19.45,-4.4 -33.6,-28.3 -33.6,-56.8 0,-18.85 6.6,-36.3 17.8,-46.9 4.15,-4 7.6,-6.15 12,-7.5 7.5,-2.35 14.95,-1.7 22.7,2.05 3.65,1.75 4.95,2.75 9.25,7.15 7.2,7.3 11,14.2 14,25.3 4.85,18 3.15,37.2 -4.8,54.35 -6.15,13.35 -17.55,22 -29.95,22.8 -2.8,0.2 -5.3,0.05 -7.4,-0.45 z" id="path176" />
        <path d="m 428.1,667.6 c 0,7.25 -5.9,13.15 -13.15,13.15 -7.25,0 -13.15,-5.9 -13.15,-13.15 0,-7.25 5.9,-13.15 13.15,-13.15 7.25,0 13.15,5.9 13.15,13.15 z m -15.95,12.85" id="path177" />
        <path d="m 642.7,667.4 c 0,7.3 -5.9,13.15 -13.15,13.15 -7.25,0 -13.15,-5.85 -13.15,-13.15 0,-7.25 5.9,-13.1 13.15,-13.1 7.25,0 13.15,5.85 13.15,13.1 z m -17.6,12.45" id="path178" />
        <path d="m 654.25,560.1 c 0,29.45 -23.9,53.3 -53.35,53.3 -29.45,0 -53.3,-23.85 -53.3,-53.3 0,-29.45 23.85,-53.3 53.3,-53.3 29.45,0 53.35,23.85 53.35,53.3 z M 591.6,612.5 M 623.85,560 c 0,-12.55 -10.2,-22.7 -22.7,-22.7 -12.55,0 -22.75,10.15 -22.75,22.7 0,12.55 10.2,22.7 22.75,22.7 12.5,0 22.7,-10.15 22.7,-22.7 z m -16.6,21.8" id="path179" />
        <path d="m 493.55,560.15 c 0,29.3 -23.75,53.05 -53.05,53.05 -29.35,0 -53.1,-23.75 -53.1,-53.05 0,-29.35 23.75,-53.1 53.1,-53.1 29.3,0 53.05,23.75 53.05,53.1 z M 430.4,612.3 m 32.8,-52.1 c 0,-12.55 -10.15,-22.75 -22.7,-22.75 -12.55,0 -22.75,10.2 -22.75,22.75 0,12.55 10.2,22.7 22.75,22.7 12.55,0 22.7,-10.15 22.7,-22.7 z m -17.45,22.05" id="path180" />
        <path d="m 392.5,321.7 c -0.05,-2.1 12.4,-22.45 18,-29.45 3.6,-4.45 19.2,-20.25 20,-20.25 0.3,0 -1.2,1.55 -3.35,3.5 -4.45,3.95 -13.7,13.9 -16.9,18 -4.95,6.5 -12.4,18.4 -16.7,26.75 -0.55,1.1 -1,1.75 -1.05,1.45 z" id="path181" />
        <path d="m 367.5,299.75 c 8.95,-16.9 25.3,-37.5 38.5,-48.4 4.85,-4 6.9,-5.55 3.5,-2.65 -6.7,5.8 -19.7,19.6 -25.2,26.8 -5.25,6.85 -12.8,17.6 -12.8,18.2 0,0.1 -0.9,1.7 -2,3.5 -1.1,1.8 -2,3.45 -2,3.65 0,0.25 -0.5,0.95 -1.05,1.65 -0.6,0.7 -0.1,-0.55 1.05,-2.75 z" id="path182" />
        <path d="m 443.5,303.1 c 0,-1.3 15.35,-13.75 19.5,-15.8 1.1,-0.55 -0.3,0.5 -5.35,4.05 -2.45,1.7 -6.65,5.15 -9.3,7.7 -2.65,2.5 -4.85,4.3 -4.85,4.05 z" id="path183" />
        <path d="m 431.5,271.3 c 0,-0.15 0.75,-0.75 1.65,-1.35 1.15,-0.85 1.4,-0.9 0.9,-0.3 -0.7,0.9 -2.55,2.1 -2.55,1.65 z" id="path184" />
        <path d="m 445.45,261.35 c 0.35,-0.45 1.35,-1.15 2.15,-1.6 1.95,-0.95 1.05,0.15 -1.2,1.45 -1.35,0.8 -1.55,0.85 -0.95,0.15 z" id="path185" />
        <path d="m 412.5,246.3 c 0,-0.3 10.8,-8.05 15.5,-11.1 7.7,-4.95 28.05,-15.3 28.8,-14.6 0.1,0.1 -0.75,0.65 -1.95,1.15 -6.85,3 -17.75,8.5 -23.35,11.9 -2.75,1.6 -12.4,8.1 -15.85,10.65 -1.75,1.25 -3.15,2.15 -3.15,2 z" id="path186" />
        <path d="m 510.25,210.5 c -0.4,-0.65 0.75,-0.65 1.75,0 0.6,0.4 0.55,0.5 -0.35,0.5 -0.6,0 -1.25,-0.2 -1.4,-0.5 z" id="path187" />
    </g>
</svg>
