<?xml version="1.0" encoding="UTF-8" standalone="no"?>
<svg version="1.0" width="878.55334" height="783.9754" viewBox="0 0 878.55334 783.9754" preserveAspectRatio="xMidYMid" id="svg89" sodipodi:docname="DALL·E 2023-11-01 12.49.52 - Vector illustration with a plain ba.svg" inkscape:version="1.3 (0e150ed6c4, 2023-07-21)"
    xmlns:inkscape="http://www.inkscape.org/namespaces/inkscape"
    xmlns:sodipodi="http://sodipodi.sourceforge.net/DTD/sodipodi-0.dtd"
    xmlns="http://www.w3.org/2000/svg"
    xmlns:svg="http://www.w3.org/2000/svg">
    <defs id="defs89" />
    <sodipodi:namedview id="namedview89" pagecolor="#ffffff" bordercolor="#666666" borderopacity="1.0" inkscape:showpageshadow="2" inkscape:pageopacity="0.0" inkscape:pagecheckerboard="0" inkscape:deskcolor="#d1d1d1" inkscape:zoom="0.70535714" inkscape:cx="438.07595" inkscape:cy="388.4557" inkscape:window-width="1920" inkscape:window-height="1052" inkscape:window-x="-8" inkscape:window-y="-8" inkscape:window-maximized="1" inkscape:current-layer="svg89" />
    <g fill="#423b78" id="g28" transform="translate(-457.31645,-123.09792)">
        <path d="m 621,873.8 c -1.9,-2 -2.1,-3.2 -1.8,-9.2 0.3,-6 0.7,-7.1 3.1,-9.2 2.3,-2 3.9,-2.4 8.8,-2.4 5.4,0 6.4,0.3 9,2.9 2.4,2.5 2.9,3.7 2.9,8.1 0,5.5 -1.9,10.4 -4.5,11.4 -0.9,0.3 -4.8,0.6 -8.5,0.6 -5.9,0 -7.2,-0.3 -9,-2.2 z" id="path1" />
        <path d="m 617.3,844.9 c -5.2,-2.5 -7.3,-6.8 -7.3,-14.6 0,-11 5.7,-17.3 15.7,-17.3 6.7,0 11.1,1.8 14.6,5.9 2.4,3 2.7,4 2.7,11.3 0,7.1 -0.3,8.5 -2.5,11.4 -4.3,5.6 -15.4,7.2 -23.2,3.3 z" id="path2" />
        <path d="m 919.5,788.7 c -11.1,-5.3 -16,-14.8 -15.3,-30.1 0.3,-7.7 0.8,-9.9 3.3,-14.4 3.2,-5.8 6.5,-9.1 12.9,-12.5 3.9,-2.1 5.4,-2.2 25.6,-2.2 20.3,0 21.8,0.1 26.5,2.3 6.1,2.8 9.8,6.2 13.3,12.2 2.5,4.2 2.7,5.3 2.7,16 0,10.1 -0.3,12 -2.4,16 -3,5.8 -6.6,9.7 -11.6,12.3 -3.7,2 -5.6,2.2 -27,2.5 -22.4,0.2 -23.1,0.2 -28,-2.1 z m 42.7,-25.4 c 2.4,-2.2 2.3,-4.9 -0.4,-6.7 -1.7,-1.2 -5,-1.6 -14.6,-1.6 -12.7,0 -15.4,0.6 -17.2,4 -0.8,1.5 -0.6,2.4 1,4 1.8,1.8 3.3,2 15.7,2 11.3,0 14,-0.3 15.5,-1.7 z" id="path3" />
        <path d="m 1120,777.3 c -6.1,-3.1 -7,-6.5 -7,-25.6 0,-19.7 0.6,-21.6 7.3,-24.2 3.7,-1.4 7.4,-1.6 21.3,-1.3 24.1,0.4 23.7,0 24.2,24.2 0.7,28 0.7,28 -24.8,28.4 -15.3,0.3 -17.9,0.1 -21,-1.5 z" id="path4" />
        <path d="m 1087.5,771.1 c -1.1,-0.5 -2.9,-1.9 -4,-3.1 -1.8,-2 -2,-3.9 -2.3,-21.7 -0.4,-21.5 0.2,-24.4 4.9,-26.8 6.9,-3.6 18.7,-0.7 20.9,5.1 0.6,1.4 1,11 1,21.4 v 19 l -2.9,3.2 c -2.6,2.9 -3.5,3.2 -9.2,3.5 -3.5,0.1 -7.3,-0.1 -8.4,-0.6 z" id="path5" />
        <path d="m 1012,739.1 c -10.7,-6.9 -16,-15.7 -16.8,-28 l -0.5,-7.3 4.4,0.7 c 2.4,0.4 7.8,0.6 11.9,0.6 l 7.6,-0.2 1.2,3.5 c 0.7,2 2.7,4.9 4.3,6.6 2.9,2.9 3.4,3 11.7,3 6.8,0 9.3,-0.4 11.6,-1.9 9,-6 8.7,-17.5 -0.7,-24.5 -2.3,-1.7 -4,-2 -11,-1.8 -13.4,0.4 -17.7,-3 -17.7,-14 0,-9.1 4.3,-11.8 18.7,-11.8 18.5,0 31,6.6 38.4,20.2 3.2,5.9 3.4,7 3.7,17.8 0.3,9.8 0.1,12.5 -1.8,17.9 -2.8,8.3 -7,14.2 -13.4,18.6 l -5.1,3.5 -7,-1.1 c -7,-1.1 -30.7,-0.8 -33.5,0.5 -0.9,0.4 -3.4,-0.5 -6,-2.3 z" id="path6" />
        <path d="m 577.5,708.8 c -3.1,-1.8 -4.3,-3.9 -5,-8.4 -1,-6 1,-12.1 4.6,-14.3 2.6,-1.6 6.1,-1.9 28.2,-2.3 28,-0.6 33.6,0 36.7,3.9 2.3,2.9 2.8,12.8 0.9,16.6 -2.9,5.6 -3,5.7 -34.4,5.6 -20,0 -29.6,-0.3 -31,-1.1 z" id="path7" />
        <path d="m 511.6,706 c -9.5,-2.9 -13.7,-16.5 -8.3,-27 2.9,-5.7 7.3,-8 15.2,-8 7.3,0 12.1,2.2 15.2,6.9 3,4.4 3.2,15.7 0.5,21.1 -3.2,6.4 -13.6,9.6 -22.6,7 z" id="path8" />
        <path d="m 844.3,673.5 c -4.2,-2.1 -5.4,-3.3 -6.4,-6.3 -1.7,-5.4 -4.8,-11.2 -8.1,-15.5 -2.9,-3.7 -3,-3.9 -1.9,-9.8 1.4,-7.9 5.1,-14.1 10.9,-18.4 6.2,-4.5 11.6,-5.9 20.5,-5.3 12.4,0.8 21.6,6.4 25.3,15.4 0.9,2.2 1.4,7.3 1.4,14.8 0,11.2 0,11.4 -3.3,16.1 -2.1,3.1 -5.2,5.9 -8.7,7.9 -4.8,2.7 -6.5,3.1 -15,3.4 -8.7,0.3 -10,0.1 -14.7,-2.3 z m 17.7,-25 c 1.1,-1.3 1,-1.9 -0.5,-3.5 -2.3,-2.5 -4.7,-2.5 -7,0 -1.8,2 -1.8,2.1 0.5,4.5 2.4,2.6 4.3,2.3 7,-1 z" id="path9" />
        <path d="m 792,623.8 c -6.5,-3.3 -9.2,-9 -8.8,-18 0.4,-7.5 2.1,-10.7 7.8,-14.5 2.6,-1.8 4.7,-2.3 9.7,-2.3 7.9,0 12.6,2 15.9,6.9 2,3 2.4,4.7 2.4,11.5 0,6.6 -0.4,8.5 -2.2,11.3 -4.8,7.1 -16.2,9.4 -24.8,5.1 z" id="path10" />
        <path d="m 1223.9,566.1 c -2.5,-2.5 -2.9,-3.7 -2.9,-8.5 0,-3 0.4,-6.6 1,-8 3,-7.9 19,-9 23.3,-1.7 1.9,3.3 2.3,13.1 0.7,16.2 -1.7,3.1 -6.4,4.9 -13,4.9 -5.5,0 -6.5,-0.3 -9.1,-2.9 z" id="path11" />
        <path d="m 940,538.3 c -4.8,-2.5 -6.1,-5.6 -5.7,-13 0.3,-7.2 2.1,-9.8 7.6,-11.3 2,-0.5 16.2,-1 32.2,-1 h 28.5 l 3.1,-3.2 c 1.7,-1.8 3.6,-4.3 4.2,-5.5 0.9,-1.7 1,-14.5 0.5,-48.8 -0.7,-42.9 -0.6,-46.5 0.9,-46.5 1,0 1.7,0.7 1.7,1.5 0,1.2 1.8,1.5 10,1.5 8.2,0 10,-0.3 10,-1.5 0,-0.8 0.7,-1.5 1.5,-1.5 2.3,0 2.2,65.2 -0.1,73.1 -1.4,4.5 -1.6,8.2 -1,22.5 l 0.6,17 -2.8,4 c -4.4,5.8 -8.1,9 -13.7,11.6 -4.9,2.2 -5.9,2.3 -39.5,2.6 -31.4,0.2 -34.8,0.1 -38,-1.5 z" id="path12" />
        <path d="m 508.4,537 c -4.4,-1.4 -6.6,-4.2 -7.1,-9.4 -0.7,-5.9 0.2,-9.3 3.4,-12.2 2.2,-2 3.6,-2.4 9,-2.4 3.5,0 7.3,0.5 8.4,1 5.5,3 6.6,15.7 1.8,20.6 -2.8,2.8 -10.4,4 -15.5,2.4 z" id="path13" />
        <path d="m 640.2,535.9 c -5.5,-2.7 -10.6,-8.8 -12.2,-14.5 -0.8,-2.6 -1.1,-7.3 -0.8,-11.4 1.1,-14.3 9.7,-22 24.7,-22 16.6,0 26.1,9.3 26.1,25.5 0,11 -5.1,19.1 -14.2,22.9 -5.7,2.4 -18.2,2.1 -23.6,-0.5 z" id="path14" />
        <path d="m 892.2,492.3 c 0.4,-28.9 0.6,-31.1 2.6,-36.4 2.9,-7.2 8.5,-13.7 15.3,-17.4 l 5.4,-3 20.4,-0.3 c 21.9,-0.4 24.6,0.1 28.1,4.6 2.4,3 2.7,11.9 0.6,16.1 -2.3,4.3 -5.4,5.1 -20.7,5.1 -16,0 -19.7,1 -22.9,6.2 -1.9,3.1 -2,5 -2,29.1 0,22.2 -0.2,25.7 -1.5,25.7 -0.8,0 -1.5,-0.7 -1.5,-1.5 0,-1.2 -1.8,-1.5 -10.1,-1.5 -9.2,0 -10.1,0.2 -10.6,2 -0.3,1.1 -1.2,2 -2,2 -1.3,0 -1.4,-4.1 -1.1,-30.7 z" id="path15" />
        <path d="m 941.3,498 c -4.6,-2.8 -6.3,-6.7 -6.3,-14.7 0,-11.2 5,-16.3 16,-16.3 10.6,0 16,5.7 16,17 0,11.1 -5.1,16 -16.7,16 -4,0 -6.8,-0.6 -9,-2 z" id="path16" />
        <path d="m 620.4,477.7 c -3.2,-2.8 -4.4,-10.8 -2.4,-15.8 2.8,-6.6 16.2,-8 20.6,-2.1 1.4,1.8 1.9,12.7 0.8,15.7 -1.9,4.7 -14.3,6.2 -19,2.2 z" id="path17" />
        <path d="m 647.4,474.9 c -2.8,-2.9 -2.9,-3.5 -3.2,-13.5 -0.3,-8.8 -0.1,-10.4 1.1,-10.4 0.9,0 1.8,1.3 2.2,3 l 0.7,3 h 10.9 c 9,0 10.9,-0.3 10.9,-1.5 0,-0.8 0.7,-1.5 1.6,-1.5 1.4,0 1.5,1.3 1.2,8.9 -0.3,8.3 -0.5,9.2 -3.2,12 -2.8,3 -3.3,3.1 -11.1,3.1 -7.8,0 -8.3,-0.1 -11.1,-3.1 z" id="path18" />
        <path d="m 1209.4,435.8 c 0.3,-2.9 0.6,-9.7 0.6,-15 0,-8 0.3,-9.8 1.5,-9.8 0.8,0 1.5,0.7 1.5,1.5 0,1.2 1.8,1.5 10,1.5 h 10 v 11.5 11.5 h -10 c -9.3,0 -10,0.1 -10,2 0,1.4 -0.7,2 -2.1,2 -2,0 -2.1,-0.4 -1.5,-5.2 z" id="path19" />
        <path d="M 946.4,431.1 C 942.7,429.5 941,426 941,420 c 0.1,-8.2 3.1,-11 11.8,-11 3.5,0 5.7,0.6 7.6,2.1 2.3,1.8 2.6,2.7 2.6,8.8 0,5.9 -0.3,7 -2.5,9.1 -2.7,2.5 -10.4,3.7 -14.1,2.1 z" id="path20" />
        <path d="m 863.7,417.9 c -6.2,-3.6 -6.3,-19.3 -0.2,-23.3 1.6,-1.1 4.7,-1.6 9.1,-1.6 6.1,0 6.8,0.2 9.5,3.1 2.7,2.8 2.9,3.7 2.9,10.4 0,6.9 -0.2,7.5 -3.1,9.9 -2.6,2.2 -4,2.6 -9.7,2.6 -3.7,0 -7.5,-0.5 -8.5,-1.1 z" id="path21" />
        <path d="m 1215.5,348.6 c -5,-2.2 -6.8,-5.1 -7.3,-11.4 -0.8,-12.3 4.3,-18.2 15.5,-18.2 11.6,0 15.8,4.1 15.8,15.5 0,8.3 -1.8,11.9 -7,14.1 -4.3,1.7 -13,1.8 -17,0 z" id="path22" />
        <path d="m 832.3,341 c -4.4,-2.7 -5.3,-4.8 -5.3,-13 0,-6.9 0.2,-7.4 3.4,-10.6 3.2,-3.2 3.8,-3.4 10.5,-3.4 6.7,0 7.3,0.2 10.9,3.4 3.6,3.3 3.7,3.6 3.7,10.4 0,8.1 -1.5,11.5 -6,13.7 -4.7,2.2 -13.3,1.9 -17.2,-0.5 z" id="path23" />
        <path d="m 1028.6,315.9 c -2.1,-2.5 -2.6,-4.1 -2.6,-8.6 0,-4.7 0.4,-5.9 2.9,-8.4 2.5,-2.5 3.7,-2.9 8.5,-2.9 9.8,0 12.6,2.7 12.6,12.4 0,3.9 -0.6,6 -2.1,8 -1.9,2.4 -2.6,2.6 -9.4,2.6 -7,0 -7.5,-0.2 -9.9,-3.1 z" id="path24" />
        <path d="m 952.2,265.5 c -5.5,-2.4 -6.2,-5.6 -6.2,-28.8 0,-11.3 0.3,-21.9 0.6,-23.6 0.4,-1.8 2,-4.6 3.7,-6.2 2.7,-2.7 3.5,-3 8.5,-2.7 5.3,0.3 5.5,0.4 6.7,3.8 0.7,2 2.9,6.1 4.9,9.2 l 3.6,5.7 v 18.4 c 0,17.1 -0.2,18.6 -2,21 -3.5,4.4 -13.3,6 -19.8,3.2 z" id="path25" />
        <path d="m 532.4,219.6 -3.4,-3.4 v -14 c 0,-12.5 0.2,-14.2 2,-16.5 3,-3.7 7.7,-4.7 23,-4.7 14.2,0 20.4,0.9 22.7,3.3 2.5,2.5 3.3,8.8 2.6,21.2 -0.6,11.3 -0.8,12.1 -3.4,14.7 l -2.7,2.8 h -18.7 -18.7 z" id="path26" />
        <path d="m 1108.9,213.1 c -3.9,-3.8 -3.9,-4 -3.9,-11.6 0,-8.9 1.6,-12.6 6.6,-15 4.3,-2 13.1,-1.9 17.4,0.3 6.7,3.3 10,14.6 6.6,22.7 -2.3,5.3 -6.7,7.5 -15.5,7.5 -7.2,0 -7.4,-0.1 -11.2,-3.9 z" id="path27" />
        <path d="m 1183.2,214.5 c -5.4,-2.3 -6.2,-5.8 -6.2,-26 0,-26.6 0.6,-27.5 20.3,-27.5 13.5,0 17.6,1 19.7,4.9 1.3,2.5 1.3,40.1 0,43.5 -1.6,4.3 -4.6,5.3 -18,5.9 -9.7,0.5 -13.2,0.3 -15.8,-0.8 z" id="path28" />
    </g>
    <g fill="#2f2a56" id="g89" transform="translate(-457.31645,-123.09792)">
        <path d="m 636.2,904.9 c 3.9,-2.9 5.3,-7.8 3.4,-12.2 -2.5,-6 -3.3,-6.1 -34.3,-6.7 l -28.1,-0.5 -2.7,-2.5 c -5.3,-5 -5.5,-6 -5.5,-32 v -24 h 5.5 c 15.9,0 28.8,-11.9 31.8,-29.4 l 1.1,-6.4 11,-0.4 c 15.6,-0.6 19.6,-3 19.6,-11.5 0,-8.4 -5.1,-11.3 -20.4,-11.3 h -10.4 l -0.4,-15.2 c -0.3,-14 -0.6,-15.8 -3,-21 -6.1,-13.2 -15.7,-19.3 -32.4,-20.5 l -9.9,-0.8 -0.5,-23.3 -0.5,-23.4 -3.3,-2.9 c -4.4,-3.9 -9,-3.9 -13.4,0 l -3.3,2.9 -0.3,23.5 -0.3,23.5 -8.7,0.4 c -10,0.6 -18.6,3.4 -23.8,8 l -3.3,3 -3.9,-3.9 c -2.1,-2.1 -5,-4.8 -6.5,-6 l -2.7,-2.1 v -21.4 c 0,-19 -0.2,-21.8 -1.9,-25.1 l -1.9,-3.7 h 22.2 c 21.1,0 22.3,-0.1 27.2,-2.4 10.5,-4.9 17.5,-15.7 19.5,-30.3 0.6,-4.6 0.9,-18.3 0.7,-31.9 l -0.3,-23.9 -3,-5.9 c -3.9,-7.6 -9.4,-13.2 -16.3,-16.4 -5.5,-2.6 -6.3,-2.7 -27.9,-3 l -22.1,-0.3 2.3,-3.5 c 3.3,-4.8 4.9,-12.5 4.2,-20.4 -0.7,-8 -2.2,-11.9 -7,-18.2 l -3.5,-4.6 13.8,-0.4 c 13.8,-0.3 13.9,-0.3 16.9,-3.2 3.8,-3.7 4.8,-8.3 2.7,-12.5 -2.7,-5.2 -5.8,-6.1 -21.8,-6.2 -8.3,0 -15.6,-0.5 -17.5,-1.2 -11.2,-4.1 -17.9,-14 -17.7,-26.2 0.1,-8.9 2.8,-14.9 9.6,-21 7.5,-6.7 11.3,-7.5 36.1,-7.5 h 20.9 l 2.9,-2.9 c 4.7,-4.8 3.7,-13 -2.1,-16.4 -2.1,-1.3 -5.3,-1.7 -13.1,-1.7 h -10.3 l 2.6,-2.7 c 8.5,-9.4 12,-22.9 8.8,-34.3 -2.5,-9.2 -10.8,-18.8 -18.6,-21.5 -2.9,-1 -4.3,-2.3 -6,-5.6 -2,-3.9 -2.3,-6 -2.4,-16.9 -0.1,-6.9 -0.1,-12.8 -0.1,-13.2 0.1,-0.4 1.6,-0.2 3.4,0.3 8.5,2.6 24.6,0.3 32,-4.6 l 2.5,-1.6 0.4,22.8 c 0.5,26.8 1,29 10,38.8 4,4.4 7.5,7 12,9.1 l 6.3,2.9 37,0.3 c 36,0.3 37.2,0.2 44,-2 5.6,-1.8 8,-3.2 12.3,-7.5 8.6,-8.6 10.4,-13.7 11.3,-32.8 1.2,-24.9 1,-63.7 -0.2,-69.7 -2.7,-12.7 -9.7,-21.4 -21.7,-27.1 l -6.7,-3.2 h -37 c -41.4,0 -43.1,0.2 -52.1,7.1 l -4.5,3.5 -5,-5.6 c -3.4,-3.6 -7.1,-6.4 -11,-8.2 l -5.9,-2.7 v -19.2 c 0,-11.8 0.4,-20.4 1.2,-22.5 1.7,-5.2 4.6,-8.8 8.8,-10.9 3.7,-1.9 6,-2 34,-2 h 30 v 3.8 c 0,5.6 3.5,18.6 6.5,24 6.1,11.2 17.1,20.3 29.4,24.4 5.9,1.9 9.3,2.2 33.2,2.6 17,0.2 29.3,0 34,-0.7 14.3,-2.3 29.8,-13.5 36.6,-26.6 9,-17.3 8.2,-42.3 -1.7,-54.6 -1.6,-2.1 -3,-4 -3,-4.3 0,-0.3 5.1,-0.6 11.4,-0.6 h 11.4 l 0.4,29.3 c 0.4,24.9 0.7,29.9 2.2,33.9 2.3,6.2 9.1,13.7 15.2,16.8 4.6,2.3 6.1,2.5 22.6,2.8 23.2,0.5 26.6,-0.4 35.3,-9.1 9.3,-9.3 9.5,-10.3 9.5,-44 0,-31.3 0.4,-34.1 6,-39.7 8.7,-8.7 23.2,-7.6 29.7,2.1 2.5,3.7 2.8,5.3 3,12.8 0.1,4.7 0.2,9.1 0.2,9.8 0.1,0.6 0.8,1.9 1.7,2.7 1.4,1.5 1.2,1.6 -2.1,1.6 -4.9,0 -14.9,3.5 -20.1,7 -5.7,4 -9.1,8.3 -12.8,16 l -3.1,6.5 V 236 c 0,47.4 0,48.6 2.2,54.3 4.5,12 14,20.9 25.6,24.2 4.8,1.4 9.8,1.6 29.5,1.3 23.2,-0.3 23.8,-0.4 29.3,-2.9 3.1,-1.5 7.4,-4.3 9.6,-6.3 4.4,-3.9 9.5,-12.8 11.1,-19.1 1.4,-5.7 2.2,-53.9 1.4,-80.5 -0.9,-24.4 -1.1,-25.4 -7.3,-32.5 l -3.1,-3.5 h 14.3 14.4 l -0.4,8.5 c -0.3,7.4 1.5,20.8 3.5,26 0.5,1.2 -0.3,1.5 -3.9,1.5 -3.7,0 -5.1,0.6 -7.5,2.9 -3.8,3.9 -4.2,6.2 -4.2,26.8 0,20.2 0.8,23.5 6.5,25.9 4.6,1.9 10.5,0.5 13.4,-3.3 2,-2.4 2.1,-3.9 2.1,-21.5 v -18.9 l 5.1,6.1 c 21.9,26.4 60.6,33.9 91.1,17.8 21.9,-11.6 36.8,-36.5 36.8,-61.4 0,-5 0.2,-5.5 1.8,-4.9 12.3,5.4 21.9,5.8 30.9,1.2 l 5.1,-2.5 0.2,17.5 c 0.1,19.2 0.6,21 6,23.3 3.8,1.6 7.7,0.6 11.3,-2.8 l 2.7,-2.6 v -22.2 c 0,-26.5 0.8,-31.2 5.9,-36.3 5.4,-5.4 9.1,-6.1 31.3,-6.1 18.1,0 19.7,0.1 23.8,2.3 3.2,1.5 5.2,3.5 7,6.7 2.4,4.3 2.5,5.5 3,25.3 l 0.5,20.9 2.8,2.4 c 4.1,3.5 9.7,3.3 13.9,-0.5 l 3.3,-2.9 0.5,-18 0.5,-18 3.1,-3.8 c 4.4,-5.4 9.5,-7.8 16.8,-7.7 6.9,0 11.9,1.8 15.8,5.7 5.3,5.4 5.8,7.8 5.8,28.9 0,21.8 -0.2,22.6 -8.3,29.1 -3.7,3 -3.8,3 -6.5,1.2 -4.6,-3 -14.8,-7.5 -19.4,-8.6 -16.9,-3.8 -36,2 -48.9,14.9 -11.3,11.3 -15.9,22.3 -15.9,37.6 0,15.7 4.7,27.2 15.4,38 8.2,8.2 14.4,11.8 25.2,14.5 9.8,2.5 18,2.5 27.8,0 14.1,-3.6 25,-11.4 31.8,-22.9 2,-3.4 3.8,-5.9 4.1,-5.4 0.3,0.4 0.8,7.6 1.2,15.8 0.8,15.9 1.8,19.5 6.8,23 1.9,1.3 -0.6,1.5 -25.1,1.5 -29.6,0 -31.7,0.3 -34,5.5 -2.3,5.1 -0.9,11.4 3,13.7 1.7,1 10.4,1.4 33.5,1.8 l 31.2,0.5 3,2.9 c 2.3,2.2 3.1,3.9 3.1,6.3 0,4.1 -2.3,8.9 -4.9,10.3 -1.2,0.6 -12.7,1 -29.9,1 -15.4,0 -29.3,0.3 -31.1,0.6 -1.7,0.4 -4.2,1.8 -5.6,3.2 -5,5 -2.2,15.1 4.7,16.6 1.2,0.3 14,0.7 28.4,0.8 l 26.1,0.3 6.9,3.5 c 11.9,6.1 18,16.7 17.2,30.3 -0.6,11.8 -6.9,21.5 -16.7,26.1 -4,1.8 -7.1,2.1 -25.6,2.6 -19.1,0.5 -21.4,0.8 -25.1,2.7 -5.6,3 -10.3,7.8 -12.8,13.3 -2.1,4.4 -2.1,6.1 -2.6,80.8 l -0.5,76.4 -3.7,3.4 c -3.7,3.3 -3.9,3.4 -12.8,3.4 h -9 v -17.3 c 0,-18.9 -1.2,-25.9 -5.4,-32.4 -5.4,-8.3 -10.9,-12.9 -19.6,-16.3 -5.3,-2.1 -7.1,-2.2 -46,-2.6 -43.9,-0.3 -49,0.1 -57.9,4.6 -9.9,5 -19.3,16.9 -20.7,26.2 -0.4,2.1 -0.9,3.8 -1.3,3.8 -0.3,-0.1 -1.7,-2.4 -3,-5.3 -5.1,-10.6 -16,-18.4 -29.3,-20.7 -19.5,-3.4 -38.9,9.3 -43.9,28.8 -1.5,5.9 -1.6,6.1 -2.7,3.7 -2.1,-4.6 -9.2,-11.2 -14.5,-13.6 -5.1,-2.4 -5.7,-2.4 -38.2,-2.4 h -33 l -5.5,2.6 c -7,3.3 -13.6,9.9 -16.9,16.9 l -2.6,5.5 -0.3,35.5 c -0.2,25.2 0,36.7 0.9,39.8 1.5,5.4 6.5,12.5 11.5,16.1 7.8,5.7 11.8,6.2 48.1,5.9 l 32.8,-0.3 5,-2.7 c 5,-2.6 12.3,-9.6 16.3,-15.5 2.1,-3 2.2,-4 2.2,-33.3 v -30.1 l 5.4,5.8 c 15.3,16.5 39.9,17.3 56.5,1.8 4.1,-3.8 6.1,-7.1 9.8,-16 0.4,-1.2 1,11.6 1.4,30 0.5,29.7 0.7,32.4 2.7,38 4.5,12.3 15,22.1 25.9,24.4 4.1,0.9 18.2,1.1 49.3,0.9 l 43.5,-0.3 5.7,-2.7 c 7.1,-3.3 14.6,-10.2 18.1,-16.6 4.2,-7.8 5.7,-15.3 5.7,-28.9 V 653 h 9.8 c 5.3,0 11.7,-0.5 14.2,-1.1 11.1,-2.5 19.9,-12.1 22,-23.9 0.9,-4.7 1.1,-26.4 0.9,-77 -0.4,-66.7 -0.3,-70.6 1.4,-73.2 3.2,-4.7 8,-5.8 25.8,-5.8 14.1,0 16.4,0.2 20,2 7.1,3.7 7.5,5.2 8.3,30.3 0.8,27.6 -0.2,38.7 -3.5,42.3 -4.5,4.8 -6.8,5.4 -22.1,5.4 -13,0 -14.7,0.2 -18.3,2.3 -3.1,1.7 -4.2,3.1 -4.9,6 -2,8.1 4.7,14.5 14.1,13.4 2.4,-0.2 4.3,-0.3 4.3,0 0,0.2 -1.3,2.1 -2.9,4.1 -4.8,6.2 -5.1,8.5 -5.1,38.4 0,28.9 0.4,32.4 4.3,35.7 2.8,2.2 2,2.6 -4.8,2.3 -12.7,-0.7 -27,5.4 -36.7,15.6 -9.7,10.1 -13.3,20.1 -12.6,34.6 0.3,5 0.8,9.9 1.3,10.9 0.7,1.6 -1.3,1.7 -33.4,1.7 h -34.2 l -2.4,2.5 -2.5,2.4 v 34 33.9 l -23.2,-0.5 c -27.5,-0.7 -35,0.2 -45.7,5.2 -13.9,6.6 -29.8,25.3 -32.6,38.3 -0.7,3.2 -1.8,4.1 -3,2.2 -0.4,-0.6 -2.4,-1.9 -4.5,-3 -3,-1.5 -5.9,-2 -12.4,-2 -10.3,0 -12.8,1 -15.7,6.4 -2.9,5.5 -2.1,10.4 2.2,14 3,2.5 3.5,2.6 17,2.6 h 13.9 v 3.3 c 0,5.5 2.9,15.9 6.6,23.5 4.2,8.6 14.4,20 21.9,24.3 l 5,2.9 h -36.8 c -39.8,0 -40.8,-0.1 -45.7,-5.4 -2.3,-2.5 -2.5,-3.6 -2.8,-13.4 -0.1,-5.9 -0.5,-11.8 -0.8,-13 -1.5,-6.9 -12.1,-9.8 -16.9,-4.6 -2.9,3.1 -3.7,7.5 -3.3,18.6 0.3,9.8 -1,12.9 -7.3,16 -6.7,3.5 -14.6,2 -19.9,-3.7 -2.3,-2.5 -2.5,-3.5 -3,-15.5 -0.4,-11.2 -0.8,-13.2 -2.7,-15.8 l -2.2,-3 15.2,-0.4 c 13.3,-0.4 15.8,-0.7 19.9,-2.7 11.9,-5.8 17.9,-19.5 14.4,-33 -0.9,-3.4 -1.6,-6.4 -1.6,-6.6 0,-0.2 1.9,0.3 4.3,1.2 3.2,1.2 9,1.7 24.3,2.1 25.4,0.5 29.4,-0.4 37,-8.2 2.7,-2.8 6.1,-7.4 7.5,-10.1 2.3,-4.8 2.4,-5.8 2.4,-25 v -20 l -2.9,-5.8 c -1.7,-3.2 -4.5,-7.2 -6.3,-8.8 -4.5,-3.9 -12.2,-7.7 -17.2,-8.5 -3.9,-0.6 -4.8,-2.4 -1.3,-2.4 2.8,0 11.7,-6.7 15,-11.3 5.1,-7.2 7.5,-15.8 7,-25.7 -0.3,-7.3 -0.9,-9.4 -3.8,-14.8 -7.2,-13.6 -22.6,-21.6 -38.4,-19.9 -10.1,1 -14,4.9 -12,11.9 1.6,5.5 5.3,7.3 15.2,7.4 11,0 10.5,-0.1 14.2,3 4.6,3.9 6.3,7.9 6.3,15 0,7.1 -2.1,11.5 -6.9,14.5 -2.6,1.6 -5,1.9 -14.7,1.9 -11.5,0 -11.6,0 -14.6,-3 -1.6,-1.7 -3.5,-4.5 -4.2,-6.4 l -1.2,-3.3 -6.7,0.5 c -4.3,0.3 -7.5,0 -9,-0.8 -2.3,-1.2 -2.3,-1.2 -1.7,3.4 1.5,11.1 10,22.2 20.4,26.8 l 4.7,2.1 -5.4,1.4 c -10.4,2.6 -19,9.7 -23.4,19.2 -1.8,4 -2.1,6.8 -2.4,21.1 -0.3,14.4 -0.1,17.4 1.6,22.4 1.7,5 1.7,5.6 0.3,5 -8.9,-3.8 -8.9,-3.8 -43.8,-3.9 -33.1,0 -34.2,0.1 -37,2.1 -3.3,2.5 -5.1,8.2 -3.7,12.1 0.5,1.4 2.2,3.5 3.7,4.7 2.7,2 4.3,2.1 35.5,2.6 18,0.3 33.5,0.9 34.5,1.4 2.1,1 4.7,5.7 4.7,8.5 0,1.1 -1.1,3.3 -2.5,5 l -2.6,3 -32.7,0.3 c -35.9,0.4 -36.4,0.4 -44.4,6.8 -2,1.7 -3.9,3 -4.2,3 -0.3,0 -0.6,-13.9 -0.6,-30.8 0,-32.8 -0.5,-37.5 -5.3,-47.1 -5.1,-10.3 -16.7,-19.6 -28.2,-22.6 -8.5,-2.2 -88.9,-2.2 -98.3,0 -16.4,3.9 -27.5,14.1 -32.5,30 -2.1,6.8 -2.2,8.4 -2.2,52.5 0,48.7 -0.2,46.5 4.9,58.1 1.1,2.4 -4.6,8.4 -9.7,10.4 -3.1,1.2 -7,1.5 -15.2,1.3 l -11,-0.3 4.2,-2.3 c 6.4,-3.4 11.1,-8 14.1,-13.6 l 2.7,-5.1 v -24 c 0,-22.9 -0.1,-24.2 -2.3,-29 -5,-10.8 -13.2,-16.1 -27.6,-17.6 -17.4,-1.9 -28.7,1 -37.2,9.5 -8,8.1 -8.9,11.7 -8.9,37.1 0,17.6 0.3,21.8 1.8,26.2 2.3,6.5 10.1,14.8 15.7,16.4 2.2,0.7 4,1.6 4,2.1 0,0.4 -8.2,0.8 -18.2,0.8 l -18.3,-0.1 z m -0.7,-32.5 c 1.9,-0.8 4.5,-5.5 4.5,-8.4 0,-3.3 -5.3,-8 -8.9,-8 -7,0 -11.8,9.8 -7.1,14.8 2.1,2.2 7.7,3 11.5,1.6 z M 631.2,843 c 5.6,-1.6 8.8,-6.3 8.8,-13 0,-4.7 -0.4,-5.6 -3.8,-9 -4.9,-4.9 -10.1,-6.1 -15.1,-3.4 -10.3,5.7 -10.7,19.4 -0.8,24.3 4.8,2.4 5.8,2.5 10.9,1.1 z m 73.7,-33.1 c 5.4,-2.4 11.3,-7.8 14.6,-13.4 4.1,-7.1 4.5,-12.5 3.7,-49.5 -0.7,-31.8 -0.9,-34.9 -2.8,-39.1 -4.8,-10.4 -14.5,-17.1 -27.5,-18.9 -19,-2.7 -35.3,6 -40.8,22 -0.8,2.5 -1.2,14.1 -1.1,40.2 0,34.5 0.1,37.1 2.1,42.2 2.3,6.3 8,12.6 14,15.7 8.4,4.2 29.1,4.7 37.8,0.8 z m 266.6,-24.6 c 5,-2.7 8.6,-6.5 11.6,-12.3 1.9,-3.6 2.3,-6.1 2.4,-13 0,-7.4 -0.3,-9.1 -2.7,-13 -3.5,-6 -7.2,-9.4 -13.3,-12.2 -4.6,-2.1 -6.3,-2.3 -23.5,-2.3 -17.2,0 -18.8,0.2 -22.6,2.2 -6.3,3.4 -9.7,6.6 -12.8,12.3 -7.8,14.2 -2.3,32 11.9,38.7 4.8,2.3 5.7,2.3 25,2.1 18.3,-0.3 20.3,-0.5 24,-2.5 z m 186.8,-11.5 c 4,-2.7 5,-7.7 4.5,-23.4 -0.6,-20.2 -1,-20.7 -21.1,-21.2 -11.3,-0.3 -14.7,-0.1 -18.3,1.3 -6.6,2.5 -7.4,4.8 -7.4,21.2 0,22.7 2,24.6 25,24.1 11.8,-0.2 15.1,-0.6 17.3,-2 z m -56,-8.8 2.7,-3 v -16 c 0,-8.7 -0.4,-17 -1,-18.4 -1.1,-3 -6.5,-6.6 -9.8,-6.6 -3.7,0 -7.8,2.7 -9.1,5.8 -0.9,2 -1.1,8.1 -0.9,19.5 0.3,14.8 0.5,16.7 2.3,18.7 4.5,5 11.3,5 15.8,0 z M 876.8,746.1 c 9.7,-5 15.3,-12.6 17.3,-23.7 1.9,-10.3 -1.3,-19.8 -8.8,-26.5 -12.6,-11 -32,-11.3 -43.1,-0.6 l -3.3,3.2 0.8,-4.5 c 1.3,-7.4 0.6,-19 -1.5,-25.8 l -2,-6.3 4,3.7 c 6.3,5.6 12,7.7 19.4,7.1 14,-1.1 24.4,-11.5 24.4,-24.5 0,-14.2 -9.7,-24.8 -24.5,-26.8 -15.9,-2.2 -32.3,15.6 -28.1,30.6 0.7,2.4 0.6,2.3 -1.5,-0.5 -10.3,-13.8 -25.2,-21.3 -43.9,-22.2 -9.5,-0.5 -11.2,-0.3 -18.5,2.2 -13,4.3 -20.9,10.1 -28.2,20.3 -6.6,9.2 -9.4,17.5 -10,29.7 -0.9,18.1 4.5,32.6 16.3,43.4 12.4,11.3 24.6,15.7 41.9,14.8 16.4,-0.8 27.2,-5.5 38,-16.5 2.8,-2.8 5.2,-5.2 5.5,-5.2 0.3,0 0.6,1.8 0.7,4 0.4,10.4 8.9,20.8 20.8,25.7 4.9,2 19.1,1.1 24.3,-1.6 z m -244.9,-3.6 c 5.9,-5 6.5,-13.8 1.3,-18.8 -5.7,-5.5 -14,-5.3 -19.3,0.4 -5.1,5.5 -4.4,14 1.6,18.7 4.1,3.3 12.3,3.1 16.4,-0.3 z m 4.7,-37.3 c 6.4,-5.1 5.6,-14.6 -1.5,-17.4 -1.6,-0.6 -11.7,-1 -27,-0.9 -25.9,0.2 -28.7,0.7 -31.1,5.2 -2.6,4.7 -0.8,11.7 3.4,13.7 1.3,0.7 12.3,1.1 28.1,1.1 23.2,0.1 26.2,-0.1 28.1,-1.7 z M 525,701.8 c 10.7,-5.4 10.7,-20.6 0,-26.1 -4.4,-2.3 -10.7,-1.8 -14.8,1.2 -3.9,2.7 -6.7,9.8 -5.8,14.6 1.2,6.4 7.9,12 14.6,12.4 0.9,0.1 3.6,-0.9 6,-2.1 z m 170.4,-26.1 c 4.3,-1.5 9.8,-3.9 12.1,-5.3 13.3,-7.8 25.7,-24.4 30.1,-40.5 2.4,-8.7 2.5,-28.9 0.1,-37.9 -6.1,-23.1 -25.1,-42.9 -46.4,-48.4 -9.1,-2.4 -76.4,-2.3 -84.4,0 -19.8,5.9 -36.8,23 -43.6,43.9 -3.4,10.7 -4.4,31.6 -1.9,41.5 4.9,19.2 17.8,35 35.9,44.1 10.8,5.5 13.8,5.8 53.7,5.6 l 36.5,-0.2 z M 766,622.8 c 6.3,-4.3 7,-7.1 7,-27 v -17.6 l -3.1,-3.1 c -3.3,-3.3 -6.9,-4 -11.3,-1.9 -5,2.2 -6,5.3 -6.4,18.6 -0.2,6.7 -0.8,12.2 -1.3,12.2 -0.6,0 -2.1,1.1 -3.4,2.5 -1.9,1.9 -2.5,3.5 -2.5,7.1 0,3.9 0.5,5.1 3.4,8 3,3 4,3.4 8.9,3.4 4,0 6.3,-0.6 8.7,-2.2 z m 41.4,-1.8 c 14.6,-7.1 9.5,-29 -6.7,-29 -3.8,0 -9,3.1 -11.9,7.1 -5.1,6.8 -2,17.5 6.2,21.7 5.4,2.7 7.2,2.7 12.4,0.2 z m 56.3,-6.6 c 6,-2.9 11.7,-8.8 14.7,-15.3 2.9,-6.5 3,-19.7 0,-26.2 -6.6,-14.3 -24.7,-21.5 -39.9,-15.9 -8.2,3.1 -16.7,11.6 -18.9,19.1 -4.3,14.5 0.5,28.2 12.5,36 9.7,6.2 21.5,7.1 31.6,2.3 z M 811.2,573 c 3.9,-3.9 4,-4.2 3.6,-9.7 -0.4,-4.9 -1,-6.1 -4.1,-8.9 -4.6,-4.3 -9.4,-5.2 -14.4,-2.8 -13.8,6.8 -9.3,25.4 6.1,25.4 4.3,0 5.3,-0.4 8.8,-4 z m 175.7,0.3 c 19.1,-0.6 20.5,-0.8 23,-2.9 3.9,-3.3 3.6,-9.3 -0.7,-13.7 l -3.2,-3.2 -39.8,-0.5 c -29.4,-0.4 -40.3,-0.8 -41.9,-1.8 -1.2,-0.7 -3.5,-2.9 -5,-4.9 l -2.8,-3.6 -0.3,-37.6 c -0.2,-36.3 -0.2,-37.7 1.8,-40.9 3.2,-5.2 6.9,-6.2 23,-6.2 15.5,0 18.7,-0.9 20.8,-5.5 1.7,-3.8 1.5,-6.9 -0.8,-9.7 -3.4,-4.4 -6.4,-5 -25.2,-4.6 -17,0.3 -17.4,0.3 -22.7,3.3 -6.7,3.7 -12.4,10.1 -15.3,17.4 -2.3,5.5 -2.3,6.1 -2.3,48.1 0,41.5 0.1,42.6 2.2,47.2 4.7,10.2 11.4,15.9 21.7,18.4 5.8,1.4 36.2,1.7 67.5,0.7 z m 252.1,-8.8 c 3.4,-1.8 5,-4.3 5,-8 0,-6.8 -7.1,-12 -13,-9.5 -4.1,1.7 -6.1,4.3 -6.7,8.9 -0.5,3.5 -0.2,4.4 2.5,7.1 3.5,3.4 7.5,3.9 12.2,1.5 z M 1147,550 c 2.6,-2.4 3,-3.5 3,-8 0,-4.3 -0.5,-5.6 -2.8,-8 -8.6,-8.5 -23.3,-0.6 -20.3,10.8 1.3,4.7 3.9,7.2 8.3,8.1 5,1 8.5,0.2 11.8,-2.9 z m -36.4,0.3 c 5,-2.7 10.1,-8.3 12.4,-13.7 2.4,-5.5 3.2,-20.3 2.2,-40.1 -0.7,-13.2 -1.2,-16.7 -2.9,-20 -3.1,-5.9 -10.1,-11.9 -16.8,-14.4 -5.6,-2.1 -7.3,-2.2 -28,-1.9 -20.8,0.3 -22.3,0.4 -26.8,2.7 -6.1,3 -12.2,9.2 -15,15.4 l -2.2,4.7 -0.5,-47.2 -0.5,-47.3 -2.9,-6.2 c -3.3,-7.2 -9.5,-13.5 -16.4,-16.6 -4.2,-1.9 -7,-2.1 -24.8,-2.5 -23.1,-0.5 -29.1,0.4 -36,5.1 -14.4,9.9 -14.1,31.8 0.3,31.7 4.4,-0.1 7.3,-2.3 10.2,-7.6 4,-7.5 6.6,-8.4 24.1,-8.4 16,0 19.5,0.9 23.4,6.3 2,2.8 2.1,4.4 2.9,58 0.4,30.4 0.5,56.2 0.2,57.5 -0.3,1.2 -2.1,4 -4.1,6.2 l -3.5,3.9 -30.9,0.3 c -29.5,0.3 -31,0.4 -33.7,2.4 -6,4.5 -5.1,13.2 1.7,16.7 3.2,1.6 6.5,1.7 35,1.5 30.5,-0.3 31.7,-0.4 36.5,-2.6 2.8,-1.3 6.5,-3.7 8.4,-5.5 4.1,-3.9 9.1,-11.5 9.1,-13.8 0,-1 0.4,-2 0.8,-2.3 0.5,-0.3 0.9,3.7 1.1,8.7 0.1,5.1 0.9,11.3 1.7,13.8 2.5,7.8 9.3,14.4 17.4,17 1.4,0.4 14,0.7 28,0.6 24.1,-0.2 25.7,-0.3 29.6,-2.4 z m 95.6,-0.3 c 7.6,-2.3 14.4,-6.8 20.8,-13.5 6.2,-6.7 10.4,-15.4 12.1,-25.6 2.5,-14.9 -2.7,-30.6 -13.6,-41.5 -14.6,-14.7 -34.4,-18.6 -54.3,-10.7 -5.3,2.1 -8.2,4.2 -14.3,10.2 -12,12 -16.8,23.9 -15.5,38.8 2.6,31.9 33.5,52 64.8,42.3 z m -468.6,-8.5 c 6.5,-1.9 14.6,-7.9 19,-14.1 1.8,-2.6 3.6,-4.9 3.8,-5.1 0.3,-0.3 1.4,1.3 2.5,3.5 2.9,5.6 7.7,10.1 14.1,13.1 l 5.5,2.6 35.8,0.3 c 23.6,0.2 37.7,-0.1 41.2,-0.8 10.3,-2.1 18.9,-10.1 22.1,-20.4 2.1,-6.7 2.8,-35 1.6,-59.6 -0.7,-16 -1.2,-19.1 -3.1,-22.8 -3.1,-6.1 -9.4,-12 -16,-15.1 -5.4,-2.5 -6.3,-2.6 -22.8,-2.6 -17,0 -21.3,-0.6 -13.2,-1.9 9.5,-1.5 20.5,-9.9 24.7,-18.9 3.5,-7.5 4.8,-16.8 3.3,-24 -1.5,-7.4 -6.5,-16 -12.2,-21.2 -4.6,-4.1 -15.2,-9.5 -18.6,-9.5 H 823 v -38.4 c 0,-21.7 -0.4,-40.6 -1,-43.7 -2.2,-11.3 -9.6,-21.3 -20,-26.8 -4.9,-2.6 -7.9,-3.4 -15.3,-4.2 -12.2,-1.1 -74.7,-1.1 -81.9,0 -12.9,2.2 -26.1,12.7 -31,24.8 -2.3,5.8 -2.3,5.9 -2.3,50.8 0,44.9 0,45 2.4,51.5 3,8.2 7.9,15.1 14.5,20 10.1,7.6 8.3,7.4 54.8,7.8 28.6,0.3 43.9,0 48.6,-0.8 11.3,-1.9 16.9,-5.9 26.3,-19.2 1.5,-2 1.9,-2.1 5.6,-1 8.6,2.6 14.1,10.6 12.8,18.8 -0.8,5.9 -6.1,12 -11.6,13.4 -2.4,0.7 -18.3,1 -42.3,1 -41.9,-0.2 -41.8,-0.2 -44.4,5.6 -2,4.3 -1.4,8.1 1.7,11.6 l 2.9,3.3 24.9,0.5 c 13.6,0.3 23.1,0.7 21.1,0.8 -5.3,0.3 -13.6,3.8 -18.5,7.8 -2.7,2.2 -5.4,5.9 -7.5,10.2 l -3.3,6.7 -0.6,19.5 c -0.3,10.7 -0.6,18.8 -0.7,18 -0.3,-2.6 -10.3,-11.6 -15.8,-14.4 -10.2,-5 -22.1,-5.2 -33,-0.6 l -4.4,1.9 v -28 c 0,-33.1 -0.8,-38.5 -7.3,-48.2 -5.3,-7.8 -12.4,-13.2 -20.7,-15.8 -6.3,-1.9 -8.9,-2 -59.5,-1.7 l -53,0.3 -5.7,2.8 c -7.4,3.6 -13.9,10.1 -17.5,17.5 -3.8,7.7 -4,20 -0.5,27.7 3,6.5 9.2,12.8 15.6,15.7 5,2.2 6,2.3 44.6,2.8 49.2,0.6 45.6,-0.7 46.2,17.2 0.3,8 0.5,8.9 3.2,11.7 2.6,2.7 3.7,3.1 8.1,3.1 4.4,0 5.5,-0.4 8.1,-3.1 l 2.9,-3 v -14.7 c 0,-13.9 -0.2,-15.1 -2.6,-19.7 -1.8,-3.5 -3.9,-5.9 -7.4,-8 l -4.8,-3 -43.1,-0.5 c -38.7,-0.4 -43.4,-0.7 -46.3,-2.3 -9.3,-5 -8,-18.3 2.2,-22.8 4.3,-1.9 6.6,-2 53.7,-1.7 55.5,0.3 52.6,-0.1 59.2,8.1 l 3.1,3.9 0.5,52.1 0.5,52.2 2.4,6 c 1.7,4.3 4.2,7.8 8.5,12.1 12,12 25.7,15.5 42.2,10.9 z m -154.7,-1.6 c 14.4,-3.3 27.5,-14.8 33.1,-28.9 11.5,-29.2 -6.5,-60.5 -37.4,-65.1 -18.4,-2.8 -37.7,5.9 -47.8,21.5 -9.3,14.5 -10.4,32.4 -2.7,48.3 1.2,2.7 5.2,7.8 8.8,11.4 9.9,9.8 19.3,13.7 33.6,13.8 4.4,0 10,-0.4 12.4,-1 z m -62.2,-8.2 c 3,-2.7 3.8,-6.9 1.9,-10.6 -2,-3.7 -4.4,-5.1 -8.8,-5.1 -8.1,0.1 -12.6,10.2 -6.9,15.5 4.1,3.6 9.9,3.7 13.8,0.2 z m 140.1,1.7 c 7.9,-3.3 14.2,-12 14.2,-19.9 0,-4.5 -3,-11.8 -6.3,-15.4 -3.3,-3.6 -11.5,-7.1 -16.8,-7.1 -10.3,0 -19.9,8.4 -21.5,18.7 -2.4,16.3 15.2,30.1 30.4,23.7 z m 295.6,-37.8 c 4,-1.7 7.6,-7.2 7.6,-11.6 0,-6.8 -6.6,-14 -13,-14 -1.2,0 -3.8,0.8 -5.7,1.7 -9.2,4.3 -9.8,18 -1,23.3 3.8,2.3 7.5,2.5 12.1,0.6 z M 632.9,475.5 c 3.2,-1.6 4.1,-3.3 4.1,-7.8 -0.1,-6 -5.3,-9.5 -11,-7.6 -6.2,2.2 -7.6,10.7 -2.3,14.9 3,2.4 5.4,2.5 9.2,0.5 z m 607.9,-19.1 c 5.1,-2.1 10,-7.1 11.2,-11.4 1.3,-4.7 1.3,-36.1 -0.1,-39.7 -4.7,-12.6 -23.3,-16.4 -33.7,-6.9 -4.8,4.3 -5.2,6.2 -5.2,26.6 -0.1,18.7 -0.1,19.2 2.4,23.4 2.6,4.5 6,7.3 10.5,8.6 4.3,1.4 11,1.1 14.9,-0.6 z m -500.1,-2.6 c 7.2,-3.5 9.8,-14.7 4.7,-20.8 -10.8,-12.8 -30.3,-3 -25.5,12.9 2.5,8.6 11.9,12.2 20.8,7.9 z m 402.1,-0.8 c 25.6,-6.1 47,-23.8 56.8,-47.1 12.9,-30.5 10,-60.9 -8.1,-86.5 -7.6,-10.6 -20.7,-21.4 -32.8,-27 -19.7,-9 -49.4,-9.7 -69.7,-1.7 -20.1,7.9 -38.7,25.1 -46.6,42.9 -8.9,20.1 -9.9,45.7 -2.5,67.1 3.8,11.1 8.1,18 17,27.5 14,14.9 31.4,24 51.2,26.8 9,1.2 24.9,0.3 34.7,-2 z m 142.6,-5 c 1.4,-0.5 3.5,-2.4 4.6,-4.2 1.8,-3 2,-5.1 2,-23.6 0,-21.7 -0.5,-24.3 -5.2,-27.6 -5.3,-3.7 -13.9,-0.4 -15.8,6.1 -0.7,2.4 -1,11 -0.8,23.9 0.3,18.5 0.5,20.4 2.3,22.4 3.4,3.8 8,4.9 12.9,3 z M 918,429.5 c 7.1,-3.7 10.4,-12.5 7.6,-20 -4.5,-11.8 -18,-15 -26.5,-6.3 -5.7,5.8 -6.4,13.5 -2.1,20.6 3.7,6.1 14.6,9 21,5.7 z m 39.8,-3.8 c 3.2,-3 3.1,-8.9 -0.4,-11.6 -7.5,-5.9 -17.2,3 -11.8,10.7 3.1,4.5 7.8,4.9 12.2,0.9 z m -78.9,-12.3 c 2.6,-2.1 3.1,-3.3 3.1,-6.9 0,-12.5 -17.2,-14.5 -19.5,-2.2 -0.7,3.8 1.3,8.9 4.2,10.6 3.4,2 9,1.3 12.2,-1.5 z M 902.1,393 c 11.6,-2.2 20.8,-9.2 26.6,-20.2 2.5,-4.8 2.8,-6.2 2.8,-15.8 0,-12.4 -1.8,-17.2 -9.7,-25.6 -19.1,-20.3 -53.5,-12 -62,14.9 -6.4,20.1 6.8,41.7 28.2,46.3 7.1,1.6 7.7,1.6 14.1,0.4 z m 328.3,-9.5 c 6.7,-3.2 8.8,-12.7 4,-18.4 -7.5,-9 -21.4,-4.2 -21.4,7.4 0,9.7 8.6,15.1 17.4,11 z m -236.8,-33 c 10.5,-3.1 21.6,-13.7 25,-23.7 3.9,-11.8 3.6,-24.6 -0.8,-33.5 -3.3,-6.8 -13.1,-16.4 -20.1,-19.7 -12.3,-5.8 -24,-5.8 -35.6,0 -16.4,8.2 -26.2,26.6 -23.2,43.5 2.7,15.7 13.4,28.3 28,33 7,2.2 19.9,2.4 26.7,0.4 z m 235.9,-4.9 c 4.4,-1.9 6.8,-5.8 6.8,-11 0,-7.3 -5.3,-12.6 -12.6,-12.6 -10,0 -16.5,14.2 -9.4,20.8 4.4,4.2 9.6,5.1 15.2,2.8 z m -383,-7.1 c 4,-2 6,-5.6 5.9,-10.8 -0.1,-3.3 -0.8,-4.7 -3.8,-7.4 -5.1,-4.7 -10.4,-4.7 -15.2,0.1 -2.8,2.8 -3.4,4.2 -3.4,7.6 0,5.2 1.3,7.6 5.3,10 3.9,2.4 6.8,2.5 11.2,0.5 z m 198.4,-25.1 c 7,-8.9 -5,-19.5 -13,-11.5 -3.6,3.6 -3.7,7 -0.3,11 2.1,2.6 3.3,3.1 6.9,3.1 3.5,0 4.8,-0.5 6.4,-2.6 z m 49.4,-31.5 c 2.1,-0.7 5.5,-2.8 7.7,-4.6 6.1,-5.3 8.2,-9.4 9.1,-18.4 0.8,-8.7 2.8,-13 7.2,-16.3 2.7,-2 4,-2.1 24.7,-2.1 h 21.9 l 3.5,3.4 c 6,5.8 5.7,13.2 -0.6,17.1 -2.9,1.7 -5.1,2 -17.1,2 -7.6,0 -14.7,0.5 -15.8,1 -2.2,1.3 -4.9,6.1 -4.9,9 0,3.6 2.8,7.7 6.2,9.1 2.4,1 7.9,1.4 19.3,1.4 14.1,0 16.5,-0.3 20.5,-2.1 6.5,-3 10.7,-6.9 13.8,-12.8 2.4,-4.6 2.7,-6.2 2.7,-15.1 0,-12.5 -2.3,-18.3 -9.9,-25.3 -8.9,-8.1 -11.9,-8.7 -41.6,-8.7 h -25.5 l -6.1,3.2 c -10.9,5.7 -17.3,15.1 -17.4,25.5 0,6.7 -1.3,10.1 -4.9,12.5 -2.3,1.6 -6.4,1.9 -38.4,2.3 l -35.9,0.5 -2.4,2.8 c -3.5,4.1 -3.3,9.5 0.7,13.3 l 3,2.9 27.7,0.6 c 33.8,0.7 47.5,0.4 52.5,-1.2 z M 572.7,217.6 c 2.6,-2.2 2.8,-3.1 3.4,-12.1 1,-15.1 -0.4,-18.9 -7.7,-20.5 -5.3,-1.3 -24.1,-1.2 -28.6,0 -6.5,1.9 -7.8,4.6 -7.8,17.2 v 11 l 3.4,3.4 3.4,3.4 h 15.5 c 15,0 15.7,-0.1 18.4,-2.4 z m 555.4,-5.9 c 2.1,-1.4 3.9,-3.8 4.8,-6.3 1.3,-3.6 1.2,-4.4 -0.7,-8.6 -3.3,-7.5 -10.6,-10.6 -17.4,-7.4 -4.5,2.1 -6.8,6.3 -6.8,12.1 0,4.2 0.5,5.2 3.9,8.6 3.3,3.4 4.5,3.9 8.3,3.9 3,0 5.6,-0.8 7.9,-2.3 z m 82.7,-1.3 c 1.3,-0.8 2.7,-2.6 3.2,-4 1.3,-3.4 1.3,-35 0,-37.5 -2,-3.6 -6.3,-4.9 -16.7,-4.9 -15.8,0 -17.3,2.1 -17.3,24.5 0,16.7 1.1,20.8 5.9,22.8 4.1,1.7 21.8,1 24.9,-0.9 z" id="path29" />
        <path d="m 678.8,791.2 c -1.5,-0.2 -3.7,-1.5 -4.8,-2.9 -1.9,-2.5 -2,-4 -2,-37.4 v -34.8 l 2.4,-2.8 c 2.2,-2.6 3.1,-2.8 10.9,-3.1 9,-0.4 13.7,1 15.7,4.7 0.5,1.1 1.2,15.3 1.6,33.3 0.7,33.6 0.2,38.6 -3.9,41.2 -2.1,1.4 -14.5,2.5 -19.9,1.8 z" id="path30" />
        <path d="m 928,766 c -2.9,-2.9 -2.7,-8.4 0.5,-11.5 2.4,-2.4 2.7,-2.5 18.5,-2.5 15.8,0 16.1,0.1 18.5,2.5 3.1,3 3.2,7.3 0.4,10.9 l -2,2.6 h -17 c -15.6,0 -17.1,-0.2 -18.9,-2 z" id="path31" />
        <path d="m 857.1,729.2 c -3.9,-1.9 -7.1,-7.2 -7.1,-11.6 0,-1.6 0.9,-4.3 2,-6.1 6.9,-11.2 24,-6.5 24,6.5 0,10 -9.9,15.9 -18.9,11.2 z" id="path32" />
        <path d="m 778,717.7 c -11.2,-2.5 -22.3,-12 -25.6,-21.9 -2.2,-6.7 -2.1,-16.3 0.2,-22.9 2.5,-7 10,-15 17.2,-18.6 5,-2.4 6.9,-2.8 14.7,-2.8 10.5,0 16.5,2.2 22.9,8.3 14.7,14.2 15.1,35 0.9,48.8 -8.5,8.3 -19.3,11.5 -30.3,9.1 z" id="path33" />
        <path d="m 852.2,652.8 c -1.1,-1.3 -2.4,-3.5 -2.7,-5 -1,-3.8 3.9,-8.8 8.5,-8.8 4.5,0 9.4,5 8.6,8.8 -0.9,3.9 -5.1,7.2 -9,7.2 -2.1,0 -4,-0.8 -5.4,-2.2 z" id="path34" />
        <path d="m 612,656.1 c -8.8,-2.8 -19.2,-11.5 -24.4,-20.4 -8.4,-14.4 -8.7,-31.8 -0.9,-48.3 3.5,-7.6 12.1,-16.2 20.4,-20.5 l 6.4,-3.4 h 35.5 35.5 l 6.8,3.2 c 21.3,10.1 32.2,37.1 24.2,59.8 -4.3,12.2 -12.2,21.7 -22.7,27.2 l -5.3,2.8 -36.5,0.2 c -20.1,0.1 -37.6,-0.2 -39,-0.6 z" id="path35" />
        <path d="m 842.1,595.5 c -6.2,-5.3 -6.2,-13.7 0.2,-19.1 2.8,-2.3 3.7,-2.6 8.2,-2 15.6,1.8 14.4,23.6 -1.3,23.6 -2.9,0 -4.9,-0.7 -7.1,-2.5 z" id="path36" />
        <path d="m 1058.6,529.9 -2.6,-2 v -20.4 -20.3 l 3.1,-2.6 c 3,-2.6 3.2,-2.6 20.9,-2.6 17.7,0 17.9,0 20.9,2.6 l 3.1,2.6 v 20.2 c 0,26.6 1.9,24.6 -23.7,24.6 -17.7,0 -19.2,-0.1 -21.7,-2.1 z" id="path37" />
        <path d="m 1178.1,527.9 c -16.4,-8.2 -20.1,-29.4 -7.4,-43 13.4,-14.3 36.3,-10.9 44.9,6.8 11.6,23.6 -13.7,48.1 -37.5,36.2 z" id="path38" />
        <path d="m 716.5,521.5 c -7.6,-4.1 -12.5,-13.2 -11.1,-20.7 1.9,-10.3 14,-18.4 23.4,-15.8 9.2,2.4 15.2,10.1 15.2,19.3 0,10.3 -7.5,17.9 -18.4,18.5 -4.2,0.2 -7,-0.2 -9.1,-1.3 z" id="path39" />
        <path d="m 785.1,519.4 c -4.7,-3.3 -5.1,-6.2 -5.1,-37.9 0,-32.9 0.3,-34.9 6.2,-38.5 3.1,-1.9 5,-2 35.1,-2 26.3,0 32.3,0.3 34.7,1.5 6,3.1 6,2.9 6,38.3 0,33.6 -0.2,35 -4.4,38.4 -1.9,1.6 -5.4,1.8 -36.1,1.8 -29.9,0 -34.3,-0.2 -36.4,-1.6 z" id="path40" />
        <path d="m 704.4,364.1 c -4.8,-2.2 -10,-8.2 -11.5,-13.1 -0.7,-2.3 -0.9,-17.9 -0.7,-44 0.3,-44.3 0.2,-43.2 6.5,-49.2 6,-5.7 6.8,-5.8 49.1,-5.8 38.2,0 38.8,0 43.2,2.3 2.6,1.3 5.7,4 7.5,6.5 l 3,4.4 v 43.6 43.7 l -3.2,4.7 c -2,2.8 -4.9,5.4 -7.6,6.7 -4.2,2 -5.7,2.1 -43.3,2.1 -35.7,0 -39.2,-0.2 -43,-1.9 z" id="path41" />
        <path d="m 559.2,517 c -10.2,-5.2 -15.8,-14.7 -15,-25.5 1.2,-14.3 12.5,-24.9 26.8,-25 23.3,-0.1 36,26.7 20.9,44 -5.3,5.9 -11.1,8.8 -19.3,9.2 -6.4,0.4 -7.7,0.2 -13.4,-2.7 z" id="path42" />
        <path d="m 649.2,516.8 c -0.7,-0.7 -1.2,-2.4 -1.2,-3.8 0,-5.3 5.7,-6.9 8.6,-2.5 1.5,2.3 1.5,2.7 0,5 -1.8,2.7 -5.4,3.3 -7.4,1.3 z" id="path43" />
        <path d="m 1103,430.7 c -23.3,-7.1 -39.8,-25.1 -44.6,-48.6 -4.1,-20.7 3,-43.5 17.8,-57.4 7.2,-6.8 20.6,-13.8 30.8,-16.1 27.9,-6.6 57.8,7 70.8,32 5.1,10 7.2,18.3 7.2,29.4 0,10.5 -1.8,18.1 -6.9,28.5 -7.2,14.6 -19.6,25.7 -34.8,31 -6.5,2.3 -9.9,2.8 -20.3,3.1 -10.9,0.4 -13.5,0.1 -20,-1.9 z" id="path44" />
        <path d="m 887.8,372 c -5,-2.7 -8,-7.3 -8.6,-13 -0.6,-6.9 1.3,-11.6 6,-15 7.2,-5.3 15.2,-5.2 21.4,0.2 4.6,4 6.4,7.7 6.4,13 0,12 -14.6,20.6 -25.2,14.8 z" id="path45" />
        <path d="M 972.5,327.3 C 963,322.3 959.4,312 964,303 c 7.8,-15.4 32.1,-11 33.8,6 0.2,2.7 0.2,6 -0.2,7.4 -0.9,3.6 -6.5,9.6 -10.3,11.2 -4.3,1.8 -11.1,1.7 -14.8,-0.3 z" id="path46" />
        <path d="m 1204.2,905.7 c -1.8,-0.6 -4.7,-2.3 -6.3,-3.8 l -3,-2.8 4.7,-6.3 c 10.4,-14.2 15.1,-28.8 14,-44.3 -1,-16.7 -6.2,-29.7 -15.5,-39 l -5.5,-5.5 h 12.2 12.2 v 24.1 c 0,32.6 0.6,33.9 16.3,33.9 h 8.9 l -0.4,10 c -0.4,12.5 -1,13.3 -11.1,13.8 -8.7,0.5 -12.3,2.6 -13.3,7.7 -0.9,4.7 0.2,8.2 3.3,11.1 l 2.6,2.4 -7.9,-0.1 c -4.3,-0.1 -9.4,-0.6 -11.2,-1.2 z" id="path47" />
        <path d="m 919.5,901.5 c -4.2,-2.1 -9,-7.8 -10.3,-12.3 -1.9,-6.2 0.5,-13.7 5.8,-18.4 6.6,-5.9 14.7,-6.3 22,-1.3 7.7,5.3 10,14.7 5.9,23.3 -4.2,8.5 -15.4,12.7 -23.4,8.7 z" id="path48" />
        <path d="m 771.3,896.3 c -5.2,-1.8 -12.5,-9.5 -14.1,-15.1 -0.8,-2.8 -1.2,-16.5 -1.2,-46.4 v -42.4 l 2.6,-5.3 c 3,-6 8.1,-10.2 14.6,-12 3.1,-0.9 16.1,-1.1 46.8,-0.9 l 42.5,0.3 4.6,2.7 c 5.4,3.2 10.3,10.1 11.8,16.8 0.6,2.7 1.1,20 1.1,42.7 0,36.6 -0.1,38.5 -2.1,44 -2.8,7.6 -9.7,14.5 -16.2,16.1 -3.1,0.8 -17.5,1.2 -45.4,1.1 -33.5,0 -41.6,-0.3 -45,-1.6 z" id="path49" />
        <path d="m 1113.3,889.9 c -10,-3.9 -19.7,-15 -23.4,-27 -2.3,-7.3 -2.4,-13.5 -0.4,-21.2 3.5,-13.3 10.9,-22.6 22.3,-28 l 6.7,-3.2 21.1,-0.3 c 19.4,-0.3 21.5,-0.1 26.7,1.8 7,2.6 15.5,10.2 19.6,17.3 7.5,13.2 8.1,27.2 1.7,40.2 -4.3,8.7 -11.2,16.2 -18.3,19.6 -4.6,2.3 -5.8,2.4 -27.8,2.6 -21,0.2 -23.4,0.1 -28.2,-1.8 z" id="path50" />
        <path d="m 672.9,884.7 c -3.4,-2.6 -3.9,-5.4 -3.9,-23.1 0,-9.6 0.4,-18.6 1,-20 1.7,-4.6 5.9,-5.8 18.7,-5.4 11.2,0.3 11.5,0.4 13.9,3.1 2.3,2.8 2.4,3.2 2.4,21.3 0,19.2 -0.7,23.3 -4.5,24.8 -3.1,1.2 -25.9,0.6 -27.6,-0.7 z" id="path51" />
        <path d="m 1258,875 c -4.5,-4.5 -1.1,-12 5.5,-12 6.7,0 9.6,6.1 5.4,11.4 -2.6,3.3 -7.9,3.6 -10.9,0.6 z" id="path52" />
        <path d="m 528.5,872.1 c -2.8,-1.2 -6.2,-5.1 -7.4,-8.4 -0.6,-1.6 -1.1,-9.3 -1.1,-17.2 0,-14.2 0,-14.4 -2.7,-17.6 l -2.8,-3.2 3.4,0.6 c 1.8,0.4 9.6,0.7 17.3,0.7 h 13.9 l -0.3,19.5 -0.3,19.5 -3.2,3.2 c -2.8,2.7 -4,3.2 -9,3.5 -3.2,0.1 -6.7,-0.1 -7.8,-0.6 z" id="path53" />
        <path d="m 491.2,840 c -4.7,-4.4 -1.1,-14 5.3,-14 6.5,0 10.4,10.8 5.3,14.4 -3.1,2.2 -8,2 -10.6,-0.4 z" id="path54" />
        <path d="m 1240.6,837.5 c -2.5,-2.4 -2.6,-2.7 -2.6,-14.9 0,-12.3 0,-12.5 2.6,-14.5 2.4,-1.9 4,-2.1 16.6,-2.1 13.4,0 14,0.1 16.3,2.5 2.4,2.3 2.5,3 2.5,14.5 0,11.5 -0.1,12.2 -2.5,14.5 -2.3,2.4 -2.9,2.5 -16.3,2.5 -13.4,0 -14,-0.1 -16.6,-2.5 z" id="path55" />
        <path d="m 1306.7,810.3 c -2.9,-3.3 -3.1,-6.8 -0.4,-9.8 3.9,-4.6 11.4,-3.1 13.2,2.6 0.7,2.2 -1.8,7.4 -4,8.3 -3.1,1.1 -7.2,0.6 -8.8,-1.1 z" id="path56" />
        <path d="m 1017.3,804.6 -2.8,-2.4 v -17.7 -17.7 l 2.8,-2.4 c 2.7,-2.3 3.3,-2.4 19.6,-2.4 23,0 21.7,-1.3 22.3,20.7 0.3,9.2 0.1,17.9 -0.4,19.2 -1.7,4.7 -3.2,5 -21.5,5.1 -16.8,0 -17.3,-0.1 -20,-2.4 z" id="path57" />
        <path d="m 523,804.3 c -1.9,-1 -4.5,-3.4 -5.8,-5.3 -2.3,-3.4 -2.3,-3.6 -2,-31.1 l 0.3,-27.8 2.9,-3 c 1.7,-1.7 4.6,-3.6 6.5,-4.1 2,-0.5 14.1,-1 27,-1 22.1,0 23.5,0.1 27.2,2.2 6.6,3.7 6.9,5.2 6.9,35.3 0,29.5 -0.3,31 -6.3,34.2 -2.8,1.6 -6.5,1.8 -28.2,2.1 -22.4,0.2 -25.4,0.1 -28.5,-1.5 z" id="path58" />
        <path d="m 1197.3,782.3 c -1.2,-0.2 -3.4,-1.8 -4.8,-3.5 l -2.6,-3.1 0.3,-16.4 0.3,-16.5 2.9,-2.4 2.8,-2.5 20,0.3 20,0.3 2.2,2.6 c 2,2.4 2.4,4.2 3,16.2 0.9,16.4 0,20.9 -4.7,23.7 -2.9,1.8 -5,2 -20.2,1.9 -9.3,-0.1 -18,-0.4 -19.2,-0.6 z" id="path59" />
        <path d="m 1262.6,779.9 c -0.9,-4.5 -0.7,-35.1 0.2,-34.7 0.4,0.2 3.3,1.6 6.4,3.1 7.8,3.9 18.8,5.7 28.5,4.6 7.5,-0.8 10.2,-0.6 6.9,0.7 -1.3,0.5 -1.6,2.3 -1.6,11.6 0,6 -0.5,11.8 -1.1,13 -2,3.8 -6.8,4.8 -23.2,4.8 h -15.4 z" id="path60" />
        <path d="m 471,779.3 c -2.8,-1 -5.9,-4.6 -7.1,-8 -2,-6.2 2.4,-13.7 8.8,-14.9 9.6,-1.8 16.5,8.5 11.7,17.7 -2.2,4.3 -8.8,6.9 -13.4,5.2 z" id="path61" />
        <path d="m 1320,770 c -2.6,-2.6 -2.5,-5.5 0.1,-8.1 2.2,-2.2 5.5,-1.9 7.7,0.9 1.6,2.1 1.5,4.3 -0.4,7 -1.9,2.7 -4.8,2.8 -7.4,0.2 z" id="path62" />
        <path d="m 470.4,737.1 c -5.7,-2.5 -8.3,-11 -4.8,-16 6.1,-8.6 19.4,-4.1 19.4,6.6 0,6.8 -8.3,12.1 -14.6,9.4 z" id="path63" />
        <path d="m 1284.5,731.6 c -6.5,-2.1 -9.8,-4.1 -14.6,-9.3 -13.3,-14.2 -8.9,-36 9.1,-45.4 3.6,-1.9 6,-2.4 12,-2.3 34.8,0.2 41,48.1 7.4,56.9 -6.9,1.8 -8.6,1.8 -13.9,0.1 z" id="path64" />
        <path d="m 1110.5,692.5 c -4.8,-1.7 -9.7,-7 -11.3,-12.3 -0.8,-2.7 -1.2,-15.9 -1.2,-42.3 0,-42.7 0.2,-43.5 6.9,-49.2 5.4,-4.5 8.4,-4.8 49.4,-4.5 43.3,0.3 42.2,0.1 48.2,8.7 l 3,4.3 0.3,39.1 c 0.2,21.6 0,40.7 -0.3,42.5 -0.8,4.2 -6.9,11 -12,13.3 -3.6,1.7 -7.3,1.9 -41.5,1.8 -29.6,0 -38.3,-0.3 -41.5,-1.4 z" id="path65" />
        <path d="m 911.7,688 c -1.5,-1.2 -3.1,-3.8 -3.7,-5.8 -1.5,-5.6 -1.3,-63 0.3,-66.1 0.6,-1.3 2.5,-3.4 4,-4.5 2.7,-2 4.2,-2.1 30.8,-2.4 24.5,-0.3 28.3,-0.1 31.4,1.4 6.4,3 6.5,3.7 6.5,39.4 0,35 -0.2,36.4 -5.7,38.9 -1.6,0.7 -12.8,1.1 -31.7,1.1 -28,0 -29.4,-0.1 -31.9,-2 z" id="path66" />
        <path d="m 461.5,685.7 c -2.9,-2.9 -3.5,-4.2 -3.5,-7.8 0.1,-9.1 8.8,-13.8 16.8,-8.9 9,5.5 5.6,18.5 -5.2,19.7 -4.2,0.5 -4.8,0.3 -8.1,-3 z" id="path67" />
        <path d="m 1316.6,651 c -5.2,-1.6 -9.6,-7.3 -9.6,-12.5 0,-6.1 6.3,-12.5 12.3,-12.5 3.6,0 10.1,3.3 12.1,6.2 2,2.9 2,9 0,12.9 -0.9,1.8 -3.2,3.8 -5.7,5 -4.7,2.1 -5,2.1 -9.1,0.9 z" id="path68" />
        <path d="m 473.6,639 c -1.6,-0.5 -4,-1.9 -5.4,-3.2 -4.8,-4.5 -5.2,-6.9 -5.2,-33.4 0,-27.7 0.4,-29.6 6.9,-33.6 3.5,-2.2 4.6,-2.3 28.8,-2.6 23.6,-0.3 25.4,-0.2 29.1,1.7 2.2,1.1 4.9,3.6 6.1,5.4 2,3.3 2.1,4.8 2.1,29.4 0,25.3 -0.1,26.1 -2.3,29.4 -1.2,1.9 -4.2,4.4 -6.7,5.7 -4.2,2.1 -5.5,2.2 -27.5,2.1 -12.6,0 -24.3,-0.5 -25.9,-0.9 z" id="path69" />
        <path d="m 1031.7,626.5 c -7.6,-2.7 -12,-8.9 -12,-17 0,-8 4,-13.8 11.5,-17 10.9,-4.5 23.5,2.8 24.6,14.4 0.2,2.7 -0.1,6.5 -0.7,8.4 -1.5,4.5 -7.8,10.2 -12.8,11.6 -4.8,1.4 -5.9,1.3 -10.6,-0.4 z" id="path70" />
        <path d="m 1314.3,607.5 c -5.1,-2.2 -7.5,-6.9 -7,-13.8 0.3,-4.6 0.9,-6.3 3.1,-8.6 5.4,-5.7 12.4,-6.4 18,-2 8.3,6.6 7.1,19 -2.4,24 -4.1,2.2 -7.3,2.3 -11.7,0.4 z" id="path71" />
        <path d="m 463.3,535 c -3.8,-1.6 -6.5,-6.9 -5.9,-11.5 0.6,-5.1 5.2,-9.5 9.9,-9.5 3.8,0 9.1,3 10.7,6.1 1.8,3.2 0.6,9.8 -2.3,12.6 -2.7,2.7 -8.8,3.9 -12.4,2.3 z" id="path72" />
        <path d="m 471.9,385.6 c -6.8,-4.7 -9,-14.2 -4.6,-20.7 6.8,-10.2 18.8,-10.5 26,-0.7 2.9,3.8 3.3,11.4 0.9,15.8 -4.4,8 -14.9,10.6 -22.3,5.6 z" id="path73" />
        <path d="m 557.5,351.6 c -4.7,-2 -8.2,-6.9 -9.5,-12.9 -0.7,-3.5 -1,-17.5 -0.8,-40.4 l 0.3,-35 2.9,-3.7 c 5.5,-7.3 7.1,-7.6 42.3,-7.6 19.7,0 32.2,0.4 34,1.1 3.8,1.4 7.1,4.6 9.4,9.2 1.9,3.5 2,5.8 1.7,42.2 -0.3,36.9 -0.4,38.5 -2.4,41.1 -1.1,1.5 -3.3,3.7 -4.8,4.8 -2.6,2 -4.2,2.1 -36.4,2.3 -26.6,0.2 -34.3,0 -36.7,-1.1 z" id="path74" />
        <path d="m 463.6,322.4 c -1.9,-1.8 -2.1,-5.5 -0.4,-7.2 2.1,-2.1 6.6,-1.4 8.4,1.3 1.5,2.3 1.5,2.7 0,5 -1.9,2.9 -5.6,3.3 -8,0.9 z" id="path75" />
        <path d="m 1318.1,315.4 c -1.2,-1.5 -2.1,-3.4 -2.1,-4.4 0,-2.9 3.9,-7 6.6,-7 2.9,0 7.4,4.1 7.4,6.8 0,3.3 -3.8,7.2 -7,7.2 -1.9,0 -3.6,-0.9 -4.9,-2.6 z" id="path76" />
        <path d="m 867.9,294.1 c -4.4,-1.4 -7.4,-3.9 -10,-8.3 l -2.4,-4.3 -0.3,-42.3 c -0.3,-46.5 -0.1,-49.1 5.6,-54.4 4.8,-4.5 6,-4.7 28,-4.9 24.8,-0.1 26.2,0.3 30.7,9.5 l 2.6,5.2 -0.3,44 -0.3,44 -2.7,4.1 c -4.6,7 -7.5,7.8 -29.3,8 -10.4,0.1 -20.2,-0.2 -21.6,-0.6 z" id="path77" />
        <path d="m 1244.1,292.9 c -8.8,-1.7 -18.2,-9.4 -22.3,-18.4 -3.1,-6.9 -3.1,-17.9 0.1,-25 5.1,-11.4 17,-19 29.8,-18.9 6.2,0 8.1,0.5 13.9,3.4 12,6.1 18.1,16.9 17.2,30.4 -0.9,14 -9.7,24.6 -23.2,28.2 -5.7,1.5 -9,1.6 -15.5,0.3 z" id="path78" />
        <path d="m 494.8,285.8 c -8.3,-2.2 -15.8,-12.2 -15.8,-21.1 0,-9.1 4.7,-16.2 13.5,-20.3 5.9,-2.8 8.7,-3 14.6,-0.9 10.9,3.9 17.3,15.7 14.5,26.6 -1.7,6.5 -5.6,11.2 -11.8,14.3 -5.4,2.7 -8.9,3 -15,1.4 z" id="path79" />
        <path d="m 1314.8,283.4 c -7.8,-4.2 -7.6,-17.8 0.2,-21.9 10.9,-5.6 21.8,4.8 17,16.4 -2.5,6.1 -11.1,8.9 -17.2,5.5 z" id="path80" />
        <path d="m 1313.3,240 c -1.2,-0.5 -2.9,-2.3 -3.8,-4 -4.8,-9.3 6.7,-17.9 13.7,-10.2 4.4,5 3.2,10.8 -2.7,13.7 -3.7,1.7 -4.1,1.7 -7.2,0.5 z" id="path81" />
        <path d="m 1019.3,227 c -9.5,-2.5 -14.6,-5.2 -20.9,-11.2 -10.7,-10.1 -15.4,-20.7 -15.4,-34.7 0,-15.4 4.5,-26.6 14.1,-35.6 21.1,-19.5 51.5,-19.1 70.7,0.9 19,19.8 19,49.1 -0.2,68.2 -12.6,12.6 -30.2,17.1 -48.3,12.4 z" id="path82" />
        <path d="m 488,221 c -2.9,-2.9 -2.6,-7.4 0.6,-9.9 1.5,-1.2 3.2,-2.1 3.9,-2.1 0.7,0 2.4,0.9 3.9,2.1 1.9,1.5 2.6,3 2.6,5.4 0,5.8 -6.9,8.6 -11,4.5 z" id="path83" />
        <path d="m 631.4,203.2 c -13.9,-4.8 -23.5,-19.9 -22,-34.6 0.8,-8.8 5.7,-18 12.1,-22.8 8.4,-6.4 11.7,-7 42.2,-6.6 24.9,0.3 27.1,0.5 31.4,2.4 6.6,3.1 12.1,8.4 15.5,15.1 2.6,5.2 2.9,6.8 2.9,15.3 0,7.9 -0.4,10.3 -2.3,14.1 -3.6,7.2 -8.7,12.5 -15.4,15.8 l -6.1,3.1 h -26.6 c -22.7,-0.1 -27.3,-0.3 -31.7,-1.8 z" id="path84" />
        <path d="m 773.4,199.2 c -4.1,-3.3 -4.4,-5.1 -4.4,-30.7 0,-27.4 0.3,-29 6.6,-32 4.5,-2.1 25.3,-2.1 29.4,0 5.6,2.9 6,4.9 6,32 0,26.7 -0.4,29 -5.5,31.3 -1.6,0.7 -7.8,1.2 -16.3,1.2 -11.5,0 -14,-0.3 -15.8,-1.8 z" id="path85" />
        <path d="m 1116.6,158.6 c -13.3,-4.9 -15.3,-22.3 -3.4,-29.6 10.2,-6.2 24.8,1.9 24.8,13.7 0,11.7 -10.9,19.7 -21.4,15.9 z" id="path86" />
        <path d="m 901.8,158.3 -10.8,-0.4 -0.1,-9.2 c -0.2,-12.6 -0.1,-12.9 2.7,-15.5 4.1,-3.6 10.7,-2.7 14.6,2.2 1.3,1.6 1.8,4 1.8,10.1 0,7.8 0.1,8.1 3.2,10.7 2.7,2.2 2.9,2.7 1.3,2.6 -1.1,-0.1 -6.8,-0.4 -12.7,-0.5 z" id="path87" />
        <path d="m 567.2,150.4 c -3.4,-2.4 -5.5,-7.1 -4.8,-11 1.4,-7.2 10.5,-9.8 16.5,-4.8 2.6,2.2 3.1,3.3 3.1,7.1 0,3.6 -0.6,5 -2.9,7.4 -3.4,3.3 -8.3,3.9 -11.9,1.3 z" id="path88" />
        <path d="m 936.3,150 c -8.6,-5.2 -8,-17.6 1.1,-22.3 10.1,-5.3 22,6.3 17.1,16.7 -3.3,7 -11.7,9.6 -18.2,5.6 z" id="path89" />
    </g>
</svg>
